Music_EmeraldWildBattle::
	    dbw $C0, Music_EmeraldWildBattle_Ch1
	    dbw $01, Music_EmeraldWildBattle_Ch2
	    dbw $02, Music_EmeraldWildBattle_Ch3
	    dbw $03, Music_EmeraldWildBattle_Ch4

Music_EmeraldWildBattle_Ch4:
	endchannel

    
Music_EmeraldWildBattle_Ch1_sub_0::
	note E_, 15
	note __, 1
	notetype 2, (10<<4) + 0
	note F_, 11
	note __, 1
	note E_, 11
	note __, 1
	note F_, 11
	note __, 1
	notetype 3, (10<<4) + 0
	note G_, 15
	note __, 1
	notetype 2, (10<<4) + 0
	note E_, 11
	note __, 1
	note C_, 11
	note __, 1
	note E_, 11
	note __, 1
	notetype 8, (10<<4) + 0
	note F_, 11
	note __, 1
	note A#, 11
	note __, 1
	notetype 5, (10<<4) + 0
	octave 4
	note D_, 13
	notetype 1, (10<<4) + 0
	note __, 7
	notetype 5, (10<<4) + 0
	note F_, 14
	notetype 1, (10<<4) + 0
	note __, 2
	notetype 2, (10<<4) + 0
	note E_, 11
	note __, 1
	note C_, 11
	note __, 1
	octave 3
	note C_, 11
	note __, 1
	note D_, 11
	note __, 1
	note E_, 11
	note __, 1
	notetype 3, (10<<4) + 0
	note F_, 15
	note __, 1
	notetype 2, (10<<4) + 0
	note G_, 11
	note __, 1
	notetype 3, (10<<4) + 0
	note E_, 15
	note __, 1
	notetype 2, (10<<4) + 0
	note C_, 11
	note __, 1
	note D_, 11
	note __, 1
	note E_, 11
	note __, 1
	notetype 3, (10<<4) + 0
	note F_, 15
	note __, 1
	notetype 2, (10<<4) + 0
	note G_, 11
	note __, 1
	note A_, 11
	note __, 1
	notetype 8, (10<<4) + 0
	note F_, 14
	note __, 1
	note A#, 11
	note __, 1
	notetype 5, (10<<4) + 0
	octave 4
	note D_, 13
	notetype 1, (10<<4) + 0
	note __, 7
	notetype 3, (10<<4) + 0
	note F_, 15
	note __, 1
	notetype 2, (10<<4) + 0
	note E_, 11
	note __, 1
	note D_, 11
	note __, 1
	octave 3
	note B_, 11
	note __, 1
	notetype 5, (10<<4) + 0
	octave 4
	note C_, 13
	notetype 1, (10<<4) + 0
	note __, 7
	notetype 5, (10<<4) + 0
	octave 3
	note G_, 13
	notetype 1, (10<<4) + 0
	note __, 7
	notetype 3, (10<<4) + 0
	note E_, 15
	note __, 1
	notetype 5, (10<<4) + 0
	octave 4
	note E_, 13
	notetype 1, (10<<4) + 0
	note __, 7
	notetype 5, (10<<4) + 0
	note D_, 13
	notetype 1, (10<<4) + 0
	note __, 7
	notetype 3, (10<<4) + 0
	note C_, 15
	note __, 1
	notetype 5, (10<<4) + 0
	octave 3
	note A#, 13
	notetype 1, (10<<4) + 0
	note __, 7
	notetype 5, (10<<4) + 0
	note F_, 13
	notetype 1, (10<<4) + 0
	note __, 7
	notetype 3, (10<<4) + 0
	note D_, 15
	note __, 1
	notetype 5, (10<<4) + 0
	octave 4
	note D_, 13
	notetype 1, (10<<4) + 0
	note __, 7
	notetype 5, (10<<4) + 0
	note C_, 13
	notetype 1, (10<<4) + 0
	note __, 7
	notetype 3, (10<<4) + 0
	octave 3
	note A#, 15
	note __, 1
	notetype 5, (10<<4) + 0
	octave 4
	note C_, 13
	notetype 1, (10<<4) + 0
	note __, 7
	notetype 5, (10<<4) + 0
	octave 3
	note G_, 13
	notetype 1, (10<<4) + 0
	note __, 7
	notetype 3, (10<<4) + 0
	note E_, 15
	note __, 1
	notetype 13, (10<<4) + 0
	octave 4
	note E_, 14
	notetype 1, (10<<4) + 0
	note __, 10
	notetype 9, (10<<4) + 0
	note C_, 15
	note __, 1
	octave 3
	note G_, 5
	notetype 1, (10<<4) + 0
	note __, 3
	notetype 8, (10<<4) + 0
	octave 4
	note E_, 14
	note __, 1
	notetype 2, (10<<4) + 0
	note E_, 11
	note __, 1
	note F_, 11
	note __, 13
	notetype 8, (10<<4) + 0
	octave 3
	note A#, 11
	note __, 1
	octave 4
	note D_, 11
	note __, 1
	notetype 3, (10<<4) + 0
	octave 3
	note A#, 15
	note __, 1
	octave 4
	note C_, 15
	note __, 1
	note D_, 15
	note __, 1
	octave 3
	note B_, 15
	note __, 1
	notetype 9, (10<<4) + 0
	octave 4
	note C_, 15
	note __, 1
	octave 3
	note G_, 5
	notetype 1, (10<<4) + 0
	note __, 3
	notetype 8, (10<<4) + 0
	octave 4
	note E_, 14
	note __, 1
	notetype 2, (10<<4) + 0
	note E_, 11
	note __, 1
	note G_, 11
	note __, 13
	notetype 8, (10<<4) + 0
	note G#, 14
	note __, 1
	notetype 2, (10<<4) + 0
	note C#, 11
	note __, 1
	note G_, 11
	note __, 13
	notetype 3, (10<<4) + 0
	note G#, 15
	note __, 1
	note G_, 15
	note __, 1
	note F_, 15
	note __, 1
	note C#, 15
	note __, 1
	notetype 8, (10<<4) + 0
	note C_, 14
	notetype 11, (10<<4) + 0
	note __, 16
	note E_, 8
	notetype 8, (10<<4) + 0
	note __, 1
	notetype 2, (10<<4) + 0
	octave 2
	note G_, 11
	notetype 5, (10<<4) + 0
	note __, 10
	notetype 2, (10<<4) + 0
	note C_, 11
	notetype 5, (10<<4) + 0
	note __, 10
	notetype 2, (10<<4) + 0
	note G_, 11
	note __, 13
	note G#, 11
	notetype 5, (10<<4) + 0
	note __, 10
	notetype 2, (10<<4) + 0
	note F_, 11
	notetype 5, (10<<4) + 0
	note __, 10
	notetype 2, (10<<4) + 0
	note G#, 11
	note __, 13
	note G_, 11
	notetype 5, (10<<4) + 0
	note __, 10
	notetype 2, (10<<4) + 0
	note C_, 11
	notetype 5, (10<<4) + 0
	note __, 10
	notetype 2, (10<<4) + 0
	note G_, 11
	note __, 13
	note G#, 11
	notetype 5, (10<<4) + 0
	note __, 10
	notetype 2, (10<<4) + 0
	note F_, 11
	notetype 5, (10<<4) + 0
	note __, 10
	note B_, 9
	notetype 1, (10<<4) + 0
	note __, 3
	notetype 2, (10<<4) + 0
	octave 4
	note G_, 11
	notetype 5, (10<<4) + 0
	note __, 10
	notetype 2, (10<<4) + 0
	note C_, 11
	notetype 5, (10<<4) + 0
	note __, 10
	notetype 2, (10<<4) + 0
	note G_, 11
	note __, 13
	note G#, 11
	notetype 5, (10<<4) + 0
	note __, 10
	notetype 2, (10<<4) + 0
	note F_, 11
	notetype 5, (10<<4) + 0
	note __, 10
	notetype 2, (10<<4) + 0
	note G#, 11
	note __, 13
	note G_, 11
	notetype 5, (10<<4) + 0
	note __, 10
	notetype 2, (10<<4) + 0
	note C_, 11
	notetype 5, (10<<4) + 0
	note __, 10
	notetype 2, (10<<4) + 0
	note G_, 11
	note __, 13
	note G#, 11
	notetype 5, (10<<4) + 0
	note __, 10
	notetype 2, (10<<4) + 0
	note F_, 11
	notetype 5, (10<<4) + 0
	note __, 10
	note B_, 9
	notetype 1, (10<<4) + 0
	note __, 3
	notetype 2, (10<<4) + 0
	octave 3
	note C_, 11
	note __, 1
	note D_, 11
	note __, 1
	note E_, 11
	note __, 1
	notetype 3, (10<<4) + 0
	note F_, 15
	note __, 1
	notetype 2, (10<<4) + 0
	note G_, 11
	note __, 1
	notetype 3, (10<<4) + 0
	endchannel
Music_EmeraldWildBattle_Ch1_sub_1::
	notetype 2, (10<<4) + 0
	note C_, 11
	notetype 5, (10<<4) + 0
	note __, 10
	notetype 2, (10<<4) + 0
	note G_, 11
	note __, 13
	note G#, 11
	notetype 5, (10<<4) + 0
	note __, 10
	notetype 2, (10<<4) + 0
	note F_, 11
	notetype 5, (10<<4) + 0
	note __, 10
	notetype 2, (10<<4) + 0
	note G#, 11
	note __, 13
	note G_, 11
	notetype 5, (10<<4) + 0
	note __, 10
	notetype 2, (10<<4) + 0
	note C_, 11
	notetype 5, (10<<4) + 0
	note __, 10
	notetype 2, (10<<4) + 0
	note G_, 11
	note __, 13
	note G#, 11
	notetype 5, (10<<4) + 0
	note __, 10
	notetype 2, (10<<4) + 0
	note A#, 11
	notetype 5, (10<<4) + 0
	note __, 10
	note B_, 9
	notetype 1, (10<<4) + 0
	note __, 3
	notetype 2, (10<<4) + 0
	endchannel
Music_EmeraldWildBattle_Ch1_sub_2::
	note B_, 11
	note __, 1
	note A#, 11
	note __, 1
	note A_, 11
	note __, 1
	note A#, 11
	note __, 1
	note A_, 11
	note __, 1
	note G#, 11
	note __, 1
	endchannel
Music_EmeraldWildBattle_Ch1::
	tempo 98
	vibrato 0, (0<<4) + 0
	dutycycle 0
	notetype 1, (10<<4) + 0
	octave 5
	note C_, 11
	note __, 1
	octave 4
	callchannel Music_EmeraldWildBattle_Ch1_sub_2
	note G_, 11
	note __, 1
	note G#, 11
	note __, 1
	note G_, 11
	note __, 1
	note F#, 11
	note __, 1
	note F_, 11
	note __, 1
	note F#, 11
	note __, 1
	note F_, 11
	note __, 1
	note E_, 11
	note __, 1
	note D#, 11
	note __, 1
	note E_, 11
	note __, 1
	note D#, 11
	note __, 1
	note D_, 11
	note __, 1
	note C#, 11
	note __, 1
	note D_, 11
	note __, 1
	note C#, 11
	note __, 1
	note C_, 11
	note __, 1
	octave 3
	note B_, 11
	note __, 1
	octave 4
	note C_, 11
	note __, 1
	octave 3
	callchannel Music_EmeraldWildBattle_Ch1_sub_2
	notetype 5, (10<<4) + 0
	note G_, 7
	notetype 7, (10<<4) + 0
	note __, 7
	callchannel Music_EmeraldWildBattle_Ch1_sub_1
	octave 4
	note G_, 11
	notetype 5, (10<<4) + 0
	note __, 10
	callchannel Music_EmeraldWildBattle_Ch1_sub_1
	octave 3
	note C_, 11
	note __, 1
	note D_, 11
	note __, 1
	note E_, 11
	note __, 1
	notetype 3, (10<<4) + 0
	note F_, 15
	note __, 1
	notetype 2, (10<<4) + 0
	note G_, 11
	note __, 1
	notetype 3, (10<<4) + 0
	callchannel Music_EmeraldWildBattle_Ch1_sub_0
	callchannel Music_EmeraldWildBattle_Ch1_sub_0
	note E_, 15
	note __, 1
	notetype 1, (10<<4) + 0
	note F_, 1
	endchannel
Music_EmeraldWildBattle_Ch2_sub_0::
	note G_, 15
	note __, 1
	notetype 2, (10<<4) + 0
	note F_, 11
	note __, 1
	note E_, 11
	note __, 1
	note D_, 11
	note __, 1
	note C_, 11
	note __, 1
	note E_, 11
	note __, 1
	note D_, 11
	note __, 1
	note C_, 11
	note __, 1
	octave 3
	note G_, 11
	note __, 1
	notetype 8, (10<<4) + 0
	note A#, 11
	note __, 1
	octave 4
	note D_, 11
	note __, 1
	notetype 5, (10<<4) + 0
	note F_, 13
	notetype 1, (10<<4) + 0
	note __, 7
	notetype 5, (10<<4) + 0
	note A_, 14
	notetype 1, (10<<4) + 0
	note __, 2
	notetype 2, (10<<4) + 0
	note G_, 11
	note __, 1
	note E_, 11
	note __, 1
	notetype 5, (10<<4) + 0
	note C_, 13
	notetype 1, (10<<4) + 0
	note __, 7
	notetype 5, (10<<4) + 0
	note D_, 13
	notetype 1, (10<<4) + 0
	note __, 7
	notetype 3, (10<<4) + 0
	note G_, 15
	note __, 1
	notetype 2, (10<<4) + 0
	note F_, 11
	note __, 1
	note E_, 11
	note __, 1
	note D_, 11
	note __, 1
	notetype 3, (10<<4) + 0
	note F_, 15
	note __, 1
	notetype 2, (10<<4) + 0
	note E_, 11
	note __, 1
	note D_, 11
	note __, 1
	note C_, 11
	note __, 1
	notetype 8, (10<<4) + 0
	octave 3
	note A#, 11
	note __, 1
	octave 4
	note D_, 11
	note __, 1
	notetype 5, (10<<4) + 0
	note F_, 13
	notetype 1, (10<<4) + 0
	note __, 7
	notetype 3, (10<<4) + 0
	note A#, 15
	note __, 1
	notetype 2, (10<<4) + 0
	note A_, 11
	note __, 1
	note G_, 11
	note __, 1
	note F_, 11
	note __, 1
	notetype 9, (10<<4) + 0
	note E_, 15
	note __, 1
	note C_, 5
	notetype 1, (10<<4) + 0
	note __, 3
	notetype 13, (10<<4) + 0
	note G_, 14
	notetype 1, (10<<4) + 0
	note __, 10
	notetype 9, (10<<4) + 0
	note D_, 15
	note __, 1
	octave 3
	note A#, 5
	notetype 1, (10<<4) + 0
	note __, 3
	notetype 13, (10<<4) + 0
	octave 4
	note F_, 14
	notetype 1, (10<<4) + 0
	note __, 10
	notetype 9, (10<<4) + 0
	note E_, 15
	note __, 1
	note C_, 5
	notetype 1, (10<<4) + 0
	note __, 3
	notetype 15, (10<<4) + 0
	note G_, 16
	notetype 12, (10<<4) + 0
	note __, 16
	note __, 6
	notetype 2, (10<<4) + 0
	note G_, 11
	note __, 1
	note A_, 11
	note __, 13
	notetype 15, (10<<4) + 0
	note A#, 15
	note __, 1
	note A_, 3
	notetype 1, (10<<4) + 0
	note __, 3
	notetype 3, (10<<4) + 0
	note G_, 15
	note __, 1
	note F_, 15
	note __, 1
	notetype 9, (10<<4) + 0
	note E_, 15
	note __, 1
	note C_, 5
	notetype 1, (10<<4) + 0
	note __, 3
	notetype 8, (10<<4) + 0
	note G_, 14
	note __, 1
	notetype 2, (10<<4) + 0
	note G_, 11
	note __, 1
	octave 5
	note C_, 11
	note __, 13
	notetype 10, (10<<4) + 0
	note C#, 16
	notetype 8, (10<<4) + 0
	note __, 1
	notetype 2, (10<<4) + 0
	note C_, 11
	note __, 1
	notetype 3, (10<<4) + 0
	note C#, 15
	note __, 1
	note C_, 15
	note __, 1
	octave 4
	note A#, 15
	note __, 1
	notetype 2, (10<<4) + 0
	note G#, 11
	note __, 1
	note A#, 11
	note __, 1
	notetype 8, (10<<4) + 0
	note G#, 14
	note __, 1
	notetype 2, (10<<4) + 0
	note A#, 11
	note __, 1
	note G#, 11
	note __, 1
	note F_, 11
	note __, 1
	notetype 8, (10<<4) + 0
	note G_, 11
	note __, 1
	octave 5
	note C_, 11
	note __, 1
	notetype 2, (10<<4) + 0
	octave 3
	note C_, 11
	notetype 5, (10<<4) + 0
	note __, 10
	notetype 2, (10<<4) + 0
	octave 2
	note G_, 11
	notetype 5, (10<<4) + 0
	note __, 10
	notetype 2, (10<<4) + 0
	octave 3
	note C_, 11
	note __, 13
	note C#, 11
	notetype 5, (10<<4) + 0
	note __, 10
	notetype 2, (10<<4) + 0
	note D#, 11
	notetype 5, (10<<4) + 0
	note __, 10
	notetype 2, (10<<4) + 0
	note C#, 11
	note __, 13
	note C_, 11
	notetype 5, (10<<4) + 0
	note __, 10
	notetype 2, (10<<4) + 0
	octave 2
	note G_, 11
	notetype 5, (10<<4) + 0
	note __, 10
	notetype 2, (10<<4) + 0
	octave 3
	note C_, 11
	note __, 13
	note C#, 11
	notetype 5, (10<<4) + 0
	note __, 10
	notetype 2, (10<<4) + 0
	note D#, 11
	notetype 5, (10<<4) + 0
	note __, 10
	note F_, 9
	notetype 1, (10<<4) + 0
	note __, 3
	notetype 2, (10<<4) + 0
	octave 5
	note C_, 11
	notetype 5, (10<<4) + 0
	note __, 10
	notetype 2, (10<<4) + 0
	octave 4
	note G_, 11
	notetype 5, (10<<4) + 0
	note __, 10
	notetype 2, (10<<4) + 0
	octave 5
	note C_, 11
	note __, 13
	note C#, 11
	notetype 5, (10<<4) + 0
	note __, 10
	notetype 2, (10<<4) + 0
	note D#, 11
	notetype 5, (10<<4) + 0
	note __, 10
	notetype 2, (10<<4) + 0
	note C#, 11
	note __, 13
	note C_, 11
	notetype 5, (10<<4) + 0
	note __, 10
	notetype 2, (10<<4) + 0
	octave 4
	note G_, 11
	notetype 5, (10<<4) + 0
	note __, 10
	notetype 2, (10<<4) + 0
	octave 5
	note C_, 11
	note __, 13
	note C#, 11
	notetype 5, (10<<4) + 0
	note __, 10
	notetype 2, (10<<4) + 0
	note D#, 11
	notetype 5, (10<<4) + 0
	note __, 10
	note F_, 9
	notetype 1, (10<<4) + 0
	note __, 3
	notetype 5, (10<<4) + 0
	octave 4
	note C_, 13
	notetype 1, (10<<4) + 0
	note __, 7
	notetype 5, (10<<4) + 0
	note D_, 13
	notetype 1, (10<<4) + 0
	note __, 7
	notetype 3, (10<<4) + 0
	endchannel
Music_EmeraldWildBattle_Ch2_sub_1::
	notetype 5, (10<<4) + 0
	note G_, 7
	notetype 1, (10<<4) + 0
	note __, 1
	note F#, 11
	note __, 1
	endchannel
Music_EmeraldWildBattle_Ch2_sub_2::
	note C_, 11
	note __, 13
	note C#, 11
	notetype 5, (10<<4) + 0
	note __, 10
	notetype 2, (10<<4) + 0
	note D#, 11
	notetype 5, (10<<4) + 0
	note __, 10
	endchannel
Music_EmeraldWildBattle_Ch2_sub_3::
	notetype 5, (10<<4) + 0
	note __, 10
	notetype 2, (10<<4) + 0
	endchannel
Music_EmeraldWildBattle_Ch2::
	vibrato 0, (0<<4) + 0
	dutycycle 0
	notetype 1, (10<<4) + 0
	octave 5
	note G_, 11
	note __, 1
	note F#, 11
	note __, 1
	callchannel Music_EmeraldWildBattle_Ch2_sub_1
	callchannel Music_EmeraldWildBattle_Ch2_sub_1
	callchannel Music_EmeraldWildBattle_Ch2_sub_1
	callchannel Music_EmeraldWildBattle_Ch2_sub_1
	callchannel Music_EmeraldWildBattle_Ch2_sub_1
	callchannel Music_EmeraldWildBattle_Ch2_sub_1
	callchannel Music_EmeraldWildBattle_Ch2_sub_1
	notetype 2, (10<<4) + 0
	note G_, 11
	note __, 1
	octave 4
	note C_, 11
	callchannel Music_EmeraldWildBattle_Ch2_sub_3
	octave 3
	note G_, 11
	callchannel Music_EmeraldWildBattle_Ch2_sub_3
	octave 4
	callchannel Music_EmeraldWildBattle_Ch2_sub_2
	notetype 2, (10<<4) + 0
	note C#, 11
	note __, 13
	note C_, 11
	callchannel Music_EmeraldWildBattle_Ch2_sub_3
	octave 3
	note G_, 11
	callchannel Music_EmeraldWildBattle_Ch2_sub_3
	octave 4
	callchannel Music_EmeraldWildBattle_Ch2_sub_2
	note F_, 9
	notetype 1, (10<<4) + 0
	note __, 3
	notetype 2, (10<<4) + 0
	octave 5
	note C_, 11
	callchannel Music_EmeraldWildBattle_Ch2_sub_3
	octave 4
	note G_, 11
	callchannel Music_EmeraldWildBattle_Ch2_sub_3
	octave 5
	callchannel Music_EmeraldWildBattle_Ch2_sub_2
	notetype 2, (10<<4) + 0
	note C#, 11
	note __, 13
	note C_, 11
	callchannel Music_EmeraldWildBattle_Ch2_sub_3
	octave 4
	note G_, 11
	callchannel Music_EmeraldWildBattle_Ch2_sub_3
	octave 5
	callchannel Music_EmeraldWildBattle_Ch2_sub_2
	note F_, 9
	notetype 1, (10<<4) + 0
	note __, 3
	notetype 5, (10<<4) + 0
	octave 4
	note C_, 13
	notetype 1, (10<<4) + 0
	note __, 7
	notetype 5, (10<<4) + 0
	note D_, 13
	notetype 1, (10<<4) + 0
	note __, 7
	notetype 3, (10<<4) + 0
	callchannel Music_EmeraldWildBattle_Ch2_sub_0
	callchannel Music_EmeraldWildBattle_Ch2_sub_0
	note G_, 15
	endchannel
Music_EmeraldWildBattle_Ch3_sub_0::
	note G_, 11
	note __, 1
	note C_, 11
	note __, 1
	note G_, 11
	note __, 1
	note C_, 11
	note __, 1
	notetype 3, (10<<4) + 0
	note G_, 15
	note __, 1
	notetype 2, (10<<4) + 0
	note C_, 11
	note __, 1
	note E_, 11
	note __, 1
	note G_, 11
	note __, 1
	octave 1
	note A#, 11
	note __, 1
	octave 2
	note F_, 11
	note __, 1
	octave 1
	note A#, 11
	note __, 1
	octave 2
	note F_, 11
	note __, 1
	octave 1
	note A#, 11
	note __, 1
	octave 2
	note F_, 11
	note __, 1
	octave 1
	note A#, 11
	note __, 1
	octave 2
	note F_, 11
	note __, 1
	octave 1
	note A#, 11
	note __, 1
	octave 2
	note F_, 11
	note __, 1
	octave 1
	note A#, 11
	note __, 1
	notetype 5, (10<<4) + 0
	octave 2
	note F_, 14
	notetype 1, (10<<4) + 0
	note __, 2
	notetype 2, (10<<4) + 0
	octave 1
	note A#, 11
	note __, 1
	octave 2
	note F_, 11
	note __, 1
	note C_, 11
	note __, 1
	note G_, 11
	note __, 1
	note C_, 11
	note __, 1
	note G_, 11
	note __, 1
	note C_, 11
	note __, 1
	note G_, 11
	note __, 1
	note C_, 11
	note __, 1
	note G_, 11
	note __, 1
	note C_, 11
	note __, 1
	note G_, 11
	note __, 1
	note C_, 11
	note __, 1
	notetype 3, (10<<4) + 0
	note G_, 15
	note __, 1
	notetype 2, (10<<4) + 0
	note C_, 11
	note __, 1
	note G_, 11
	note __, 1
	note C_, 11
	note __, 1
	octave 1
	note A#, 11
	note __, 1
	octave 2
	note F_, 11
	note __, 1
	octave 1
	note A#, 11
	note __, 1
	octave 2
	note F_, 11
	note __, 1
	octave 1
	note A#, 11
	note __, 1
	octave 2
	note F_, 11
	note __, 1
	octave 1
	note A#, 11
	note __, 1
	octave 2
	note F_, 11
	note __, 1
	octave 1
	note A#, 11
	note __, 1
	octave 2
	note F_, 11
	note __, 1
	octave 1
	note A#, 11
	note __, 1
	notetype 5, (10<<4) + 0
	octave 2
	note F_, 14
	notetype 1, (10<<4) + 0
	note __, 2
	notetype 2, (10<<4) + 0
	octave 1
	note A#, 11
	note __, 1
	octave 2
	note F_, 11
	note __, 1
	note E_, 11
	note __, 1
	note G_, 11
	note __, 1
	note C_, 11
	note __, 1
	note G_, 11
	note __, 1
	note E_, 11
	note __, 1
	note G_, 11
	note __, 1
	note C_, 11
	note __, 1
	note G_, 11
	note __, 1
	note C_, 11
	note __, 1
	note G_, 11
	note __, 1
	note C_, 11
	note __, 1
	note G_, 11
	note __, 1
	note C_, 11
	note __, 1
	note G_, 11
	note __, 1
	note C_, 11
	note __, 1
	note G_, 11
	note __, 1
	note D_, 11
	note __, 1
	note F_, 11
	note __, 1
	octave 1
	note A#, 11
	note __, 1
	octave 2
	note F_, 11
	note __, 1
	note D_, 11
	note __, 1
	note F_, 11
	note __, 1
	octave 1
	note A#, 11
	note __, 1
	octave 2
	note F_, 11
	note __, 1
	octave 1
	note A#, 11
	note __, 1
	octave 2
	note F_, 11
	note __, 1
	octave 1
	note A#, 11
	note __, 1
	notetype 3, (10<<4) + 0
	octave 2
	note F_, 15
	note __, 1
	notetype 2, (10<<4) + 0
	note D_, 11
	note __, 1
	octave 1
	note A#, 11
	note __, 1
	note B_, 11
	note __, 1
	octave 2
	note C_, 11
	note __, 1
	note E_, 11
	note __, 1
	octave 1
	note G_, 11
	note __, 1
	octave 2
	note E_, 11
	note __, 1
	note C_, 11
	note __, 1
	note E_, 11
	note __, 1
	octave 1
	note G_, 11
	note __, 1
	octave 2
	note E_, 11
	note __, 1
	note C_, 11
	note __, 1
	note G_, 11
	note __, 1
	note C_, 11
	note __, 1
	note G_, 11
	note __, 1
	note C_, 11
	note __, 1
	note E_, 11
	notetype 5, (10<<4) + 0
	note __, 10
	notetype 2, (10<<4) + 0
	note C_, 11
	note __, 1
	note E_, 11
	note __, 1
	octave 1
	note G_, 11
	note __, 1
	octave 2
	note E_, 11
	note __, 1
	note C_, 11
	note __, 1
	note E_, 11
	note __, 1
	octave 1
	note G_, 11
	note __, 1
	octave 2
	note E_, 11
	note __, 1
	note C_, 11
	note __, 1
	octave 1
	note G_, 11
	note __, 1
	octave 2
	note C_, 11
	note __, 1
	note G_, 11
	note __, 1
	octave 3
	note C_, 11
	note __, 1
	octave 2
	note E_, 11
	note __, 1
	note G_, 11
	note __, 1
	note A_, 11
	note __, 1
	note F_, 11
	note __, 1
	note A#, 11
	note __, 1
	note F_, 11
	note __, 1
	note A#, 11
	note __, 1
	note F_, 11
	note __, 1
	note A#, 11
	note __, 1
	note F_, 11
	note __, 1
	note A#, 11
	note __, 1
	note F_, 11
	note __, 1
	note A#, 11
	note __, 1
	note F_, 11
	note __, 1
	note A#, 11
	note __, 1
	note F_, 11
	note __, 1
	note A#, 11
	note __, 1
	note A_, 11
	note __, 1
	note A#, 11
	note __, 1
	note G_, 11
	note __, 1
	octave 3
	note C_, 11
	note __, 1
	octave 2
	note G_, 11
	note __, 1
	octave 3
	note C_, 11
	note __, 1
	octave 2
	note G_, 11
	note __, 1
	octave 3
	note C_, 11
	note __, 1
	octave 2
	note G_, 11
	note __, 1
	octave 3
	note C_, 11
	note __, 1
	octave 2
	note G_, 11
	note __, 1
	octave 3
	note C_, 11
	note __, 1
	octave 2
	note G_, 11
	note __, 1
	octave 3
	note C_, 11
	note __, 1
	octave 2
	note G_, 11
	note __, 1
	octave 3
	note C_, 11
	note __, 1
	octave 2
	note G_, 11
	note __, 1
	octave 3
	note C_, 11
	note __, 1
	octave 2
	note G#, 11
	note __, 1
	octave 3
	note C#, 11
	note __, 1
	octave 2
	note G#, 11
	note __, 1
	octave 3
	note C#, 11
	note __, 1
	octave 2
	note G#, 11
	note __, 1
	octave 3
	note C#, 11
	note __, 1
	octave 2
	note G#, 11
	note __, 1
	octave 3
	note C#, 11
	note __, 1
	octave 2
	note G#, 11
	note __, 1
	octave 3
	note C#, 11
	note __, 1
	octave 2
	note G#, 11
	note __, 1
	octave 3
	note C#, 11
	note __, 1
	octave 2
	note G#, 11
	note __, 1
	octave 3
	note C#, 11
	note __, 1
	octave 2
	note G#, 11
	note __, 1
	octave 3
	note C#, 11
	note __, 1
	octave 2
	note G_, 11
	note __, 1
	octave 3
	note C_, 11
	note __, 1
	octave 2
	note G_, 11
	note __, 1
	octave 3
	note C_, 11
	note __, 1
	octave 2
	note G_, 11
	note __, 1
	octave 3
	note C_, 11
	note __, 1
	octave 2
	note G_, 11
	note __, 1
	octave 3
	note C_, 11
	note __, 1
	octave 2
	note G_, 11
	note __, 1
	octave 3
	note C_, 11
	note __, 1
	octave 2
	note G_, 11
	note __, 1
	octave 3
	note C_, 11
	note __, 1
	octave 2
	note E_, 11
	note __, 1
	octave 3
	note C_, 11
	note __, 1
	octave 2
	note E_, 11
	note __, 1
	octave 3
	note C_, 11
	note __, 1
	octave 2
	note C_, 11
	note __, 1
	note G_, 11
	note __, 1
	note C_, 11
	note __, 1
	note G_, 11
	note __, 1
	note C_, 11
	note __, 1
	note G_, 11
	note __, 1
	note C_, 11
	note __, 1
	note G_, 11
	note __, 1
	note C_, 11
	note __, 1
	note G_, 11
	note __, 1
	note C_, 11
	note __, 1
	note G_, 11
	note __, 1
	note C_, 11
	note __, 1
	note G_, 11
	note __, 1
	note C_, 11
	note __, 1
	note G_, 11
	note __, 1
	note C_, 11
	note __, 1
	note G_, 11
	note __, 1
	note C_, 11
	note __, 1
	note G_, 11
	note __, 1
	note C_, 11
	note __, 1
	note G_, 11
	note __, 1
	note C_, 11
	note __, 1
	note G_, 11
	note __, 1
	note C_, 11
	note __, 1
	note D#, 11
	note __, 1
	note F#, 11
	note __, 1
	notetype 3, (10<<4) + 0
	note G_, 15
	note __, 1
	notetype 2, (10<<4) + 0
	note C#, 11
	note __, 1
	note D#, 11
	note __, 1
	octave 1
	note B_, 11
	note __, 1
	octave 2
	note C_, 11
	note __, 1
	note G_, 11
	note __, 1
	note C_, 11
	note __, 1
	note G_, 11
	note __, 1
	note C_, 11
	note __, 1
	note G_, 11
	note __, 1
	note C_, 11
	note __, 1
	note G_, 11
	note __, 1
	note C_, 11
	note __, 1
	note G_, 11
	note __, 1
	note C_, 11
	note __, 1
	note G_, 11
	note __, 1
	note C_, 11
	note __, 1
	note G_, 11
	note __, 1
	note C_, 11
	note __, 1
	note G_, 11
	note __, 1
	note C_, 11
	note __, 1
	note G_, 11
	note __, 1
	note C_, 11
	note __, 1
	note G_, 11
	note __, 1
	note C_, 11
	note __, 1
	note G_, 11
	note __, 1
	note C_, 11
	note __, 1
	note G_, 11
	note __, 1
	note C_, 11
	note __, 1
	note D#, 11
	note __, 1
	note F#, 11
	note __, 1
	notetype 3, (10<<4) + 0
	note G_, 15
	note __, 1
	notetype 2, (10<<4) + 0
	note C#, 11
	note __, 1
	note D#, 11
	note __, 1
	note G_, 11
	note __, 1
	note C_, 11
	note __, 1
	note G_, 11
	note __, 1
	note C_, 11
	note __, 1
	note G_, 11
	note __, 1
	note C_, 11
	note __, 1
	note G_, 11
	note __, 1
	note C_, 11
	note __, 1
	endchannel
Music_EmeraldWildBattle_Ch3_sub_1::
	note C#, 11
	note __, 1
	note C_, 11
	note __, 1
	octave 1
	note G_, 11
	note __, 1
	octave 2
	note C_, 11
	note __, 1
	notetype 3, (10<<4) + 0
	note E_, 15
	note __, 1
	notetype 2, (10<<4) + 0
	note C_, 11
	note __, 1
	note C#, 11
	note __, 1
	octave 1
	note B_, 11
	note __, 1
	octave 2
	note C_, 11
	note __, 1
	octave 1
	note G_, 11
	note __, 1
	octave 2
	note C_, 11
	note __, 1
	notetype 3, (10<<4) + 0
	note C#, 15
	note __, 1
	notetype 2, (10<<4) + 0
	note C_, 11
	note __, 1
	octave 1
	note A#, 11
	note __, 1
	octave 2
	endchannel
Music_EmeraldWildBattle_Ch3::
	vibrato 0, (0<<4) + 0
	notetype 13, (10<<4) + 0
	octave 1
	note G_, 14
	notetype 1, (10<<4) + 0
	note __, 10
	notetype 8, (10<<4) + 0
	note A#, 11
	note __, 1
	note B_, 11
	note __, 1
	notetype 2, (10<<4) + 0
	octave 2
	note C_, 11
	note __, 1
	octave 1
	note G_, 11
	note __, 1
	octave 2
	note C_, 11
	note __, 1
	notetype 3, (10<<4) + 0
	note C#, 15
	note __, 1
	notetype 2, (10<<4) + 0
	note C_, 11
	note __, 1
	octave 1
	note A#, 11
	note __, 1
	octave 2
	callchannel Music_EmeraldWildBattle_Ch3_sub_1
	callchannel Music_EmeraldWildBattle_Ch3_sub_1
	callchannel Music_EmeraldWildBattle_Ch3_sub_1
	note C#, 11
	note __, 1
	note C_, 11
	note __, 1
	note F_, 11
	note __, 1
	note C_, 11
	note __, 1
	notetype 3, (10<<4) + 0
	note F_, 15
	note __, 1
	notetype 2, (10<<4) + 0
	octave 1
	note G_, 11
	note __, 1
	note A#, 11
	note __, 1
	note B_, 11
	note __, 1
	octave 2
	note C_, 11
	note __, 1
	note G_, 11
	note __, 1
	note C_, 11
	note __, 1
	note G_, 11
	note __, 1
	note C_, 11
	note __, 1
	note G_, 11
	note __, 1
	note C_, 11
	note __, 1
	callchannel Music_EmeraldWildBattle_Ch3_sub_0
	callchannel Music_EmeraldWildBattle_Ch3_sub_0
	note G_, 11
	endchannel
