Music_EmeraldLittleroot::
	    dbw $C0, Music_EmeraldLittleroot_Ch1
	    dbw $01, Music_EmeraldLittleroot_Ch2
	    dbw $02, Music_EmeraldLittleroot_Ch3
	    dbw $03, Music_EmeraldLittleroot_Ch4

    
Music_EmeraldLittleroot_Ch2_sub_0::
	note G_, 11
	note __, 1
	notetype 1, (10<<4) + 0
	note G#, 5
	note __, 1
	notetype 12, (10<<4) + 0
	note A_, 5
	notetype 6, (10<<4) + 0
	note __, 1
	notetype 2, (10<<4) + 0
	note G_, 11
	note __, 1
	notetype 3, (10<<4) + 0
	note A_, 7
	note __, 1
	note G_, 7
	note __, 1
	note A_, 7
	note __, 1
	note A#, 7
	note __, 1
	notetype 5, (10<<4) + 0
	octave 5
	note C_, 13
	notetype 1, (10<<4) + 0
	note __, 7
	notetype 2, (10<<4) + 0
	note D_, 11
	note __, 1
	octave 4
	note A_, 11
	note __, 13
	note A_, 11
	note __, 1
	octave 5
	note C#, 11
	note __, 1
	note D_, 11
	note __, 1
	note D_, 11
	note __, 1
	notetype 3, (10<<4) + 0
	note E_, 15
	note __, 1
	notetype 2, (10<<4) + 0
	note D_, 11
	note __, 1
	note D_, 11
	note __, 1
	octave 4
	note A_, 11
	note __, 1
	note G_, 11
	note __, 1
	note F_, 11
	note __, 1
	note E_, 11
	note __, 1
	note F_, 11
	note __, 1
	note A_, 11
	note __, 1
	notetype 1, (10<<4) + 0
	octave 5
	note C#, 5
	note __, 1
	notetype 8, (10<<4) + 0
	note D_, 5
	notetype 1, (10<<4) + 0
	note __, 2
	notetype 2, (10<<4) + 0
	octave 4
	note D_, 11
	note __, 1
	note E_, 11
	note __, 1
	notetype 8, (10<<4) + 0
	note F_, 11
	note __, 1
	notetype 2, (10<<4) + 0
	octave 5
	note C_, 11
	note __, 1
	notetype 1, (10<<4) + 0
	octave 4
	note A#, 11
	note __, 1
	note A#, 11
	note __, 1
	notetype 2, (10<<4) + 0
	note A#, 11
	note __, 1
	note A_, 11
	note __, 1
	notetype 8, (10<<4) + 0
	note F_, 11
	note __, 1
	notetype 1, (10<<4) + 0
	octave 5
	note C#, 5
	note __, 1
	note D_, 16
	note __, 2
	octave 4
	note A_, 11
	note __, 1
	note A_, 11
	note __, 1
	notetype 2, (10<<4) + 0
	note A_, 11
	note __, 1
	note G_, 11
	note __, 1
	notetype 9, (10<<4) + 0
	note F_, 15
	note __, 1
	notetype 2, (10<<4) + 0
	note E_, 11
	note __, 1
	note D_, 11
	note __, 1
	notetype 5, (10<<4) + 0
	note E_, 13
	notetype 1, (10<<4) + 0
	note __, 7
	notetype 2, (10<<4) + 0
	note F_, 11
	note __, 1
	note G_, 11
	note __, 1
	note C_, 11
	note __, 1
	octave 5
	note C_, 11
	note __, 1
	octave 4
	note A#, 11
	note __, 1
	notetype 1, (10<<4) + 0
	note G#, 5
	note __, 1
	notetype 12, (10<<4) + 0
	note A_, 5
	notetype 6, (10<<4) + 0
	note __, 1
	notetype 2, (10<<4) + 0
	note G_, 11
	note __, 1
	note A_, 11
	note __, 1
	note G_, 11
	note __, 1
	note A_, 11
	note __, 1
	note A#, 11
	note __, 13
	notetype 1, (10<<4) + 0
	octave 5
	note C#, 5
	note __, 1
	notetype 8, (10<<4) + 0
	note C_, 5
	notetype 1, (10<<4) + 0
	note __, 2
	notetype 2, (10<<4) + 0
	note D_, 11
	note __, 1
	octave 4
	note A_, 11
	note __, 1
	note G_, 11
	note __, 1
	note A_, 11
	note __, 1
	octave 5
	note C#, 11
	note __, 1
	note D_, 11
	note __, 1
	note D_, 11
	note __, 1
	note E_, 11
	note __, 1
	note E_, 11
	note __, 1
	note F_, 11
	note __, 1
	note F_, 11
	note __, 1
	octave 4
	note A_, 11
	note __, 1
	note G_, 11
	note __, 1
	note F_, 11
	note __, 1
	note E_, 11
	note __, 1
	note F_, 11
	note __, 1
	note A_, 11
	note __, 1
	notetype 1, (10<<4) + 0
	octave 5
	note C#, 5
	note __, 1
	notetype 8, (10<<4) + 0
	note D_, 5
	notetype 1, (10<<4) + 0
	note __, 2
	notetype 2, (10<<4) + 0
	octave 4
	note D_, 11
	note __, 1
	note E_, 11
	note __, 1
	notetype 8, (10<<4) + 0
	note F_, 11
	note __, 1
	notetype 2, (10<<4) + 0
	octave 5
	note C_, 11
	note __, 1
	notetype 1, (10<<4) + 0
	octave 4
	note A#, 11
	note __, 1
	note A#, 11
	note __, 1
	notetype 2, (10<<4) + 0
	note A#, 11
	note __, 1
	note A_, 11
	note __, 1
	notetype 8, (10<<4) + 0
	note F_, 11
	note __, 1
	notetype 1, (10<<4) + 0
	octave 5
	note C#, 5
	note __, 1
	note D_, 16
	note __, 2
	octave 4
	note A_, 11
	note __, 1
	note A_, 11
	note __, 1
	notetype 2, (10<<4) + 0
	note A_, 11
	note __, 1
	note G_, 11
	note __, 1
	notetype 9, (10<<4) + 0
	note F_, 15
	note __, 1
	notetype 2, (10<<4) + 0
	note E_, 11
	note __, 1
	note F_, 11
	note __, 1
	notetype 5, (10<<4) + 0
	note G_, 13
	notetype 1, (10<<4) + 0
	note __, 7
	notetype 2, (10<<4) + 0
	note A_, 11
	note __, 1
	note A#, 11
	note __, 1
	note A#, 11
	note __, 1
	note A_, 11
	note __, 1
	note A#, 11
	note __, 1
	notetype 8, (10<<4) + 0
	octave 5
	note C_, 11
	note __, 1
	notetype 2, (10<<4) + 0
	note C#, 11
	note __, 1
	octave 4
	note A#, 11
	note __, 1
	note A_, 11
	note __, 1
	note G_, 11
	note __, 1
	notetype 1, (10<<4) + 0
	note F_, 11
	note __, 13
	notetype 3, (10<<4) + 0
	note F_, 15
	note __, 1
	notetype 2, (10<<4) + 0
	note E_, 11
	note __, 1
	note D_, 11
	note __, 1
	note D_, 11
	note __, 1
	note F_, 11
	note __, 1
	note A_, 11
	note __, 1
	notetype 8, (10<<4) + 0
	note G_, 11
	note __, 1
	notetype 2, (10<<4) + 0
	note G_, 11
	note __, 1
	notetype 1, (10<<4) + 0
	note E_, 5
	note __, 1
	note F_, 16
	note __, 2
	notetype 2, (10<<4) + 0
	note D_, 11
	note __, 1
	note F_, 11
	note __, 1
	notetype 1, (10<<4) + 0
	note E_, 11
	note __, 1
	note E_, 11
	note __, 1
	notetype 3, (10<<4) + 0
	note E_, 15
	note __, 1
	notetype 2, (10<<4) + 0
	note F_, 11
	note __, 1
	note G_, 11
	note __, 1
	note G_, 11
	note __, 1
	note A_, 11
	note __, 1
	note A#, 11
	note __, 1
	notetype 8, (10<<4) + 0
	octave 5
	note C_, 11
	note __, 1
	notetype 2, (10<<4) + 0
	note C_, 11
	note __, 1
	octave 4
	note A_, 11
	note __, 1
	octave 5
	note C#, 11
	note __, 1
	note E_, 11
	note __, 1
	note G_, 11
	note __, 1
	note F_, 11
	note __, 1
	note E_, 11
	note __, 1
	note F_, 11
	note __, 1
	note D_, 11
	note __, 1
	note D_, 11
	note __, 1
	note F_, 11
	note __, 1
	note A_, 11
	note __, 1
	notetype 8, (10<<4) + 0
	note G_, 11
	note __, 1
	notetype 2, (10<<4) + 0
	note G_, 11
	note __, 1
	notetype 1, (10<<4) + 0
	note E_, 5
	note __, 1
	note F_, 16
	note __, 2
	notetype 2, (10<<4) + 0
	note D_, 11
	note __, 1
	note F_, 11
	note __, 1
	notetype 1, (10<<4) + 0
	note E_, 11
	note __, 1
	note E_, 11
	note __, 1
	notetype 3, (10<<4) + 0
	note E_, 15
	note __, 1
	notetype 2, (10<<4) + 0
	note F_, 11
	note __, 1
	notetype 3, (10<<4) + 0
	note G_, 15
	note __, 1
	notetype 2, (10<<4) + 0
	octave 4
	note A#, 11
	note __, 1
	endchannel
Music_EmeraldLittleroot_Ch2::
	vibrato 0, (0<<4) + 0
	dutycycle 0
	notetype 2, (10<<4) + 0
	octave 4
	note C_, 11
	note __, 1
	note F_, 11
	note __, 1
	callchannel Music_EmeraldLittleroot_Ch2_sub_0
	callchannel Music_EmeraldLittleroot_Ch2_sub_0
	note G_, 11
	endchannel
Music_EmeraldLittleroot_Ch3_sub_0::
	note __, 1
	notetype 5, (10<<4) + 0
	note F_, 14
	notetype 1, (10<<4) + 0
	note __, 2
	notetype 2, (10<<4) + 0
	note F_, 11
	note __, 1
	notetype 3, (10<<4) + 0
	octave 3
	note C_, 7
	note __, 1
	octave 2
	note F_, 15
	note __, 1
	note G_, 7
	note __, 1
	notetype 5, (10<<4) + 0
	note A_, 14
	notetype 1, (10<<4) + 0
	note __, 2
	notetype 2, (10<<4) + 0
	note A_, 11
	note __, 1
	octave 3
	note C#, 11
	note __, 1
	notetype 5, (10<<4) + 0
	octave 2
	note A_, 7
	notetype 1, (10<<4) + 0
	note __, 13
	note G_, 11
	note __, 13
	notetype 5, (10<<4) + 0
	note D_, 14
	notetype 1, (10<<4) + 0
	note __, 2
	notetype 2, (10<<4) + 0
	note A_, 11
	note __, 1
	octave 3
	note C#, 11
	note __, 1
	notetype 3, (10<<4) + 0
	octave 2
	note A_, 15
	note __, 1
	notetype 2, (10<<4) + 0
	note G_, 11
	note __, 1
	notetype 5, (10<<4) + 0
	note C_, 14
	notetype 1, (10<<4) + 0
	note __, 2
	notetype 2, (10<<4) + 0
	note A_, 11
	note __, 1
	note B_, 11
	note __, 1
	note F_, 11
	note __, 1
	note A_, 11
	note __, 1
	note G_, 11
	note __, 1
	notetype 5, (10<<4) + 0
	note F_, 14
	notetype 1, (10<<4) + 0
	note __, 2
	notetype 2, (10<<4) + 0
	octave 1
	note A#, 11
	note __, 1
	octave 2
	note A#, 11
	note __, 1
	notetype 3, (10<<4) + 0
	note A#, 15
	note __, 1
	notetype 2, (10<<4) + 0
	octave 3
	note D_, 11
	note __, 1
	notetype 5, (10<<4) + 0
	octave 2
	note G_, 14
	notetype 1, (10<<4) + 0
	note __, 2
	notetype 2, (10<<4) + 0
	note D_, 11
	note __, 1
	note G_, 11
	note __, 1
	notetype 3, (10<<4) + 0
	note G_, 15
	note __, 1
	notetype 2, (10<<4) + 0
	octave 3
	note D_, 11
	note __, 1
	notetype 5, (10<<4) + 0
	note C_, 14
	notetype 1, (10<<4) + 0
	note __, 2
	notetype 2, (10<<4) + 0
	note C_, 11
	note __, 1
	note G_, 11
	note __, 1
	note C_, 11
	note __, 1
	octave 2
	note A#, 11
	note __, 1
	note G_, 11
	note __, 1
	notetype 5, (10<<4) + 0
	note E_, 14
	notetype 1, (10<<4) + 0
	note __, 2
	notetype 2, (10<<4) + 0
	note E_, 11
	note __, 1
	note C_, 11
	note __, 1
	octave 3
	note C_, 11
	note __, 1
	octave 4
	note C_, 11
	note __, 1
	octave 2
	note A#, 11
	note __, 1
	notetype 5, (10<<4) + 0
	note F_, 14
	notetype 1, (10<<4) + 0
	note __, 2
	notetype 2, (10<<4) + 0
	note F_, 11
	note __, 1
	octave 3
	note C_, 11
	note __, 1
	notetype 3, (10<<4) + 0
	octave 2
	note F_, 15
	note __, 1
	notetype 2, (10<<4) + 0
	note G_, 11
	note __, 1
	notetype 5, (10<<4) + 0
	note A_, 14
	notetype 1, (10<<4) + 0
	note __, 2
	notetype 2, (10<<4) + 0
	note A_, 11
	note __, 1
	octave 3
	note C#, 11
	note __, 1
	notetype 3, (10<<4) + 0
	octave 2
	note A_, 15
	note __, 1
	notetype 2, (10<<4) + 0
	note G_, 11
	note __, 1
	notetype 5, (10<<4) + 0
	note D_, 14
	notetype 1, (10<<4) + 0
	note __, 2
	notetype 2, (10<<4) + 0
	note A_, 11
	note __, 1
	octave 3
	note C#, 11
	note __, 1
	notetype 5, (10<<4) + 0
	octave 2
	note A_, 7
	notetype 1, (10<<4) + 0
	note __, 13
	notetype 2, (10<<4) + 0
	note G_, 11
	note __, 1
	notetype 5, (10<<4) + 0
	note C_, 14
	notetype 1, (10<<4) + 0
	note __, 2
	notetype 2, (10<<4) + 0
	note A_, 11
	note __, 1
	note B_, 11
	note __, 1
	note F_, 11
	note __, 1
	note D_, 11
	note __, 1
	note E_, 11
	note __, 1
	notetype 5, (10<<4) + 0
	note F_, 14
	notetype 1, (10<<4) + 0
	note __, 2
	notetype 2, (10<<4) + 0
	octave 1
	note A#, 11
	note __, 1
	octave 2
	note A#, 11
	note __, 1
	notetype 3, (10<<4) + 0
	note A#, 15
	note __, 1
	notetype 2, (10<<4) + 0
	note F#, 11
	note __, 1
	notetype 5, (10<<4) + 0
	note G_, 14
	notetype 1, (10<<4) + 0
	note __, 2
	notetype 2, (10<<4) + 0
	note G_, 11
	note __, 1
	octave 3
	note D_, 11
	note __, 1
	notetype 3, (10<<4) + 0
	octave 2
	note G_, 15
	note __, 1
	notetype 2, (10<<4) + 0
	note A#, 11
	note __, 1
	notetype 5, (10<<4) + 0
	octave 3
	note C_, 14
	notetype 1, (10<<4) + 0
	note __, 2
	notetype 2, (10<<4) + 0
	note C_, 11
	note __, 1
	note G_, 11
	note __, 1
	note C_, 11
	note __, 1
	octave 2
	note A#, 11
	note __, 1
	note G_, 11
	note __, 1
	notetype 5, (10<<4) + 0
	note E_, 14
	notetype 1, (10<<4) + 0
	note __, 2
	notetype 2, (10<<4) + 0
	note E_, 11
	note __, 1
	note C_, 11
	note __, 1
	octave 3
	note C_, 11
	note __, 1
	octave 4
	note C_, 11
	note __, 1
	octave 2
	note A#, 11
	note __, 1
	notetype 5, (10<<4) + 0
	octave 3
	note C_, 14
	notetype 1, (10<<4) + 0
	note __, 2
	notetype 2, (10<<4) + 0
	note C_, 11
	note __, 1
	note C#, 11
	note __, 1
	notetype 3, (10<<4) + 0
	note C#, 15
	note __, 1
	notetype 2, (10<<4) + 0
	octave 2
	note A#, 11
	note __, 1
	notetype 5, (10<<4) + 0
	note A_, 14
	notetype 1, (10<<4) + 0
	note __, 2
	notetype 2, (10<<4) + 0
	octave 3
	note D_, 11
	note __, 1
	octave 2
	note B_, 11
	note __, 1
	notetype 3, (10<<4) + 0
	note F_, 15
	note __, 1
	notetype 2, (10<<4) + 0
	note A_, 11
	note __, 1
	notetype 5, (10<<4) + 0
	note A#, 14
	notetype 1, (10<<4) + 0
	note __, 2
	notetype 2, (10<<4) + 0
	note G_, 11
	note __, 1
	note E_, 11
	note __, 1
	notetype 3, (10<<4) + 0
	note G_, 15
	note __, 1
	notetype 2, (10<<4) + 0
	octave 3
	note D_, 11
	note __, 1
	notetype 5, (10<<4) + 0
	note C_, 14
	notetype 1, (10<<4) + 0
	note __, 2
	notetype 2, (10<<4) + 0
	octave 2
	note A_, 11
	note __, 1
	note A#, 11
	note __, 1
	notetype 3, (10<<4) + 0
	note A#, 15
	note __, 1
	notetype 2, (10<<4) + 0
	note G_, 11
	note __, 1
	notetype 5, (10<<4) + 0
	note A_, 14
	notetype 1, (10<<4) + 0
	note __, 2
	notetype 2, (10<<4) + 0
	note A_, 11
	note __, 1
	octave 3
	note C#, 11
	note __, 1
	notetype 3, (10<<4) + 0
	octave 2
	note A_, 15
	note __, 1
	notetype 2, (10<<4) + 0
	octave 3
	note C#, 11
	note __, 1
	notetype 5, (10<<4) + 0
	octave 2
	note F_, 14
	notetype 1, (10<<4) + 0
	note __, 2
	notetype 2, (10<<4) + 0
	octave 3
	note D_, 11
	note __, 1
	octave 2
	note B_, 11
	note __, 1
	notetype 3, (10<<4) + 0
	note B_, 15
	note __, 1
	notetype 2, (10<<4) + 0
	note G_, 11
	note __, 1
	notetype 5, (10<<4) + 0
	note A#, 14
	notetype 1, (10<<4) + 0
	note __, 2
	notetype 2, (10<<4) + 0
	note G_, 11
	note __, 1
	note B_, 11
	note __, 1
	notetype 3, (10<<4) + 0
	note B_, 15
	note __, 1
	notetype 2, (10<<4) + 0
	note G_, 11
	note __, 1
	notetype 5, (10<<4) + 0
	octave 3
	note C_, 14
	notetype 1, (10<<4) + 0
	note __, 2
	notetype 2, (10<<4) + 0
	note F_, 11
	note __, 1
	note C_, 11
	note __, 1
	notetype 3, (10<<4) + 0
	note C_, 15
	note __, 1
	notetype 2, (10<<4) + 0
	octave 2
	note G_, 11
	endchannel
Music_EmeraldLittleroot_Ch3::
	vibrato 0, (0<<4) + 0
	notetype 1, (10<<4) + 0
	octave 2
	note C_, 11
	note __, 13
	notetype 3, (10<<4) + 0
	note E_, 15
	callchannel Music_EmeraldLittleroot_Ch3_sub_0
	callchannel Music_EmeraldLittleroot_Ch3_sub_0
	endchannel
Music_EmeraldLittleroot_Ch1_sub_0::
	octave 3
	note A_, 11
	note __, 1
	note G_, 11
	note __, 1
	octave 2
	note A#, 11
	note __, 1
	octave 3
	note F_, 11
	note __, 1
	octave 4
	note D_, 11
	note __, 1
	octave 3
	note F_, 11
	note __, 1
	octave 2
	note A#, 11
	note __, 1
	octave 3
	note F_, 11
	note __, 1
	octave 4
	note D_, 11
	note __, 1
	octave 3
	note F_, 11
	note __, 1
	octave 2
	note G_, 11
	note __, 1
	octave 3
	note D_, 11
	note __, 1
	octave 4
	note D_, 11
	note __, 1
	octave 3
	note D_, 11
	note __, 1
	octave 2
	note G_, 11
	note __, 1
	octave 3
	note D_, 11
	note __, 1
	octave 4
	note D_, 11
	note __, 1
	octave 3
	note D_, 11
	note __, 1
	note C_, 11
	note __, 1
	note G_, 11
	note __, 1
	octave 4
	note F_, 11
	note __, 1
	octave 3
	note G_, 11
	note __, 1
	note C_, 11
	note __, 1
	note G_, 11
	note __, 1
	octave 4
	note F_, 11
	note __, 1
	octave 3
	note G_, 11
	note __, 1
	note C_, 11
	note __, 1
	note G_, 11
	note __, 1
	octave 4
	note E_, 11
	note __, 1
	octave 3
	note G_, 11
	note __, 1
	note C_, 11
	note __, 1
	note G_, 11
	note __, 1
	octave 4
	note E_, 11
	note __, 1
	octave 3
	note G_, 11
	notetype 12, (10<<4) + 0
	note __, 16
	note __, 16
	note __, 16
	note __, 16
	note __, 16
	note __, 16
	note __, 16
	note __, 12
	notetype 1, (10<<4) + 0
	note __, 2
	notetype 2, (10<<4) + 0
	octave 5
	note A_, 11
	note __, 1
	note A#, 11
	note __, 1
	notetype 8, (10<<4) + 0
	octave 6
	note C_, 11
	note __, 1
	notetype 2, (10<<4) + 0
	note C#, 11
	note __, 1
	octave 5
	note A#, 11
	note __, 1
	note A_, 11
	note __, 1
	note G_, 11
	note __, 1
	note F_, 11
	note __, 1
	notetype 3, (10<<4) + 0
	note F_, 15
	note __, 1
	notetype 2, (10<<4) + 0
	note E_, 11
	note __, 1
	notetype 3, (10<<4) + 0
	note D_, 15
	note __, 1
	notetype 2, (10<<4) + 0
	note F_, 11
	note __, 1
	note A_, 11
	note __, 1
	notetype 9, (10<<4) + 0
	note G_, 13
	notetype 1, (10<<4) + 0
	note __, 3
	note E_, 5
	note __, 1
	note F_, 16
	note __, 2
	notetype 2, (10<<4) + 0
	note D_, 11
	note __, 1
	note F_, 11
	note __, 1
	note E_, 11
	note __, 1
	notetype 3, (10<<4) + 0
	note E_, 15
	note __, 1
	notetype 2, (10<<4) + 0
	note F_, 11
	note __, 1
	notetype 3, (10<<4) + 0
	note G_, 15
	note __, 1
	notetype 2, (10<<4) + 0
	note A_, 11
	note __, 1
	note A#, 11
	note __, 1
	notetype 9, (10<<4) + 0
	octave 6
	note C_, 13
	notetype 1, (10<<4) + 0
	note __, 3
	notetype 2, (10<<4) + 0
	octave 5
	note A_, 11
	note __, 1
	octave 6
	note C#, 11
	note __, 1
	note E_, 11
	note __, 1
	note G_, 11
	note __, 1
	note F_, 11
	note __, 1
	note E_, 11
	note __, 1
	note F_, 11
	note __, 1
	notetype 3, (10<<4) + 0
	note D_, 15
	note __, 1
	notetype 2, (10<<4) + 0
	note F_, 11
	note __, 1
	note A_, 11
	note __, 1
	notetype 9, (10<<4) + 0
	note G_, 13
	notetype 1, (10<<4) + 0
	note __, 3
	note E_, 5
	note __, 1
	note F_, 16
	note __, 2
	notetype 2, (10<<4) + 0
	note D_, 11
	note __, 1
	note F_, 11
	note __, 1
	note E_, 11
	note __, 1
	notetype 3, (10<<4) + 0
	note E_, 15
	note __, 1
	notetype 2, (10<<4) + 0
	note F_, 11
	note __, 1
	notetype 3, (10<<4) + 0
	note G_, 15
	note __, 1
	notetype 2, (10<<4) + 0
	octave 5
	note A#, 11
	note __, 1
	note G_, 11
	endchannel
Music_EmeraldLittleroot_Ch1_sub_1::
	octave 2
	note F_, 11
	note __, 1
	octave 3
	note C_, 11
	note __, 1
	note A_, 11
	note __, 1
	note C_, 11
	note __, 1
	octave 2
	note F_, 11
	note __, 1
	notetype 1, (10<<4) + 0
	octave 3
	note C_, 9
	note __, 3
	note C_, 11
	note __, 1
	note A_, 9
	note __, 3
	note A_, 11
	note __, 1
	note C_, 9
	note __, 3
	note C_, 11
	note __, 1
	octave 2
	note A_, 9
	note __, 3
	note A_, 11
	note __, 1
	notetype 2, (10<<4) + 0
	octave 3
	note E_, 11
	note __, 1
	octave 4
	note C_, 11
	note __, 1
	octave 3
	note E_, 11
	note __, 1
	octave 2
	note G_, 11
	note __, 1
	octave 3
	note C#, 11
	note __, 1
	note A_, 11
	note __, 1
	note G_, 11
	note __, 1
	note D_, 11
	note __, 1
	note A_, 11
	note __, 1
	octave 4
	note F_, 11
	note __, 1
	octave 3
	note A_, 11
	note __, 1
	note C#, 11
	note __, 1
	note A_, 11
	note __, 1
	octave 4
	note F_, 11
	note __, 1
	octave 3
	note A_, 11
	note __, 1
	note C_, 11
	note __, 1
	note A_, 11
	note __, 1
	octave 4
	note F_, 11
	note __, 1
	octave 3
	note A_, 11
	note __, 1
	octave 4
	note F_, 11
	note __, 1
	endchannel
Music_EmeraldLittleroot_Ch1::
	tempo 178
	
	notetype 12, (0<<4) + 0
	note __, 6
	vibrato 0, (0<<4) + 0
	dutycycle 0
	notetype 2, (10<<4) + 0
	callchannel Music_EmeraldLittleroot_Ch1_sub_1
	notetype 1, (10<<4) + 0
	note D_, 11
	note __, 1
	note D_, 11
	note __, 1
	notetype 2, (10<<4) + 0
	callchannel Music_EmeraldLittleroot_Ch1_sub_0
	note __, 1
	callchannel Music_EmeraldLittleroot_Ch1_sub_1
	note D_, 11
	note __, 1
	callchannel Music_EmeraldLittleroot_Ch1_sub_0
	endchannel
Music_EmeraldLittleroot_Ch4_sub_0::
	note C_, 11
	note __, 13
	note C_, 11
	note __, 13
	note C_, 11
	note __, 13
	note C_, 11
	note __, 13
	note C_, 11
	note __, 13
	note C_, 11
	note __, 13
	note C_, 11
	note __, 13
	note C_, 11
	note __, 13
	note C_, 11
	note __, 13
	note C_, 11
	note __, 13
	note C_, 11
	note __, 13
	note C_, 11
	note __, 13
	note C_, 11
	note __, 13
	note C_, 11
	note __, 13
	note C_, 11
	note __, 13
	note C_, 11
	note __, 13
	note C_, 11
	note __, 13
	note C_, 11
	note __, 13
	endchannel
Music_EmeraldLittleroot_Ch4_sub_1::
	notetype 12
	note __, 16
	note __, 16
	note __, 16
	note __, 16
	note __, 16
	note __, 16
	note __, 16
	note __, 16
	endchannel
Music_EmeraldLittleroot_Ch4::
	callchannel Music_EmeraldLittleroot_Ch4_sub_1
	note __, 6
	notetype 1
	callchannel Music_EmeraldLittleroot_Ch4_sub_0
	callchannel Music_EmeraldLittleroot_Ch4_sub_0
	callchannel Music_EmeraldLittleroot_Ch4_sub_0
	callchannel Music_EmeraldLittleroot_Ch4_sub_0
	callchannel Music_EmeraldLittleroot_Ch4_sub_0
	callchannel Music_EmeraldLittleroot_Ch4_sub_0
	callchannel Music_EmeraldLittleroot_Ch4_sub_0
	note C_, 11
	note __, 13
	note C_, 11
	callchannel Music_EmeraldLittleroot_Ch4_sub_1
	notetype 1
	note __, 13
	callchannel Music_EmeraldLittleroot_Ch4_sub_0
	callchannel Music_EmeraldLittleroot_Ch4_sub_0
	callchannel Music_EmeraldLittleroot_Ch4_sub_0
	callchannel Music_EmeraldLittleroot_Ch4_sub_0
	callchannel Music_EmeraldLittleroot_Ch4_sub_0
	callchannel Music_EmeraldLittleroot_Ch4_sub_0
	callchannel Music_EmeraldLittleroot_Ch4_sub_0
	note C_, 11
	note __, 13
	note C_, 11
	endchannel
