Music_EmeraldTitleScreen::
	    dbw $C0, Music_EmeraldTitleScreen_Ch1
	    dbw $01, Music_EmeraldTitleScreen_Ch2
	    dbw $02, Music_EmeraldTitleScreen_Ch3
	    dbw $03, Music_EmeraldTitleScreen_Ch4

    
Music_EmeraldTitleScreen_Ch3_sub_0::
	note __, 9
	note C#, 7
	note __, 1
	note D#, 7
	note __, 1
	note C#, 7
	note __, 1
	note D#, 7
	note __, 1
	note C#, 7
	note __, 1
	note D#, 7
	note __, 1
	note C#, 7
	note __, 1
	note D#, 7
	note __, 1
	note C#, 7
	note __, 1
	note D#, 7
	note __, 1
	note C#, 7
	note __, 1
	note D#, 7
	note __, 1
	notetype 6, (10<<4) + 0
	note C#, 5
	notetype 1, (10<<4) + 0
	note __, 2
	octave 5
	note B_, 7
	note __, 9
	notetype 6, (10<<4) + 0
	note A#, 5
	notetype 1, (10<<4) + 0
	note __, 2
	note F#, 7
	note __, 9
	note G#, 7
	note __, 9
	note A#, 7
	note __, 9
	note B_, 7
	note __, 9
	note A#, 7
	note __, 9
	note B_, 7
	note __, 9
	octave 6
	note C#, 7
	note __, 9
	octave 5
	note B_, 7
	note __, 9
	octave 6
	note C#, 7
	note __, 9
	endchannel
Music_EmeraldTitleScreen_Ch3_sub_1::
	note D_, 3
	note __, 1
	note F_, 3
	note __, 1
	note A#, 3
	note __, 1
	endchannel
Music_EmeraldTitleScreen_Ch3_sub_2::
	note G#, 3
	note __, 1
	note D#, 3
	note __, 1
	note C_, 3
	note __, 1
	endchannel
Music_EmeraldTitleScreen_Ch3_sub_3::
	note A#, 3
	note __, 1
	note F_, 3
	note __, 1
	note D_, 3
	note __, 1
	endchannel
Music_EmeraldTitleScreen_Ch3_sub_4::
	note __, 1
	octave 4
	note C_, 7
	note __, 1
	note D#, 7
	note __, 1
	note G_, 7
	note __, 1
	note G#, 7
	note __, 1
	endchannel
Music_EmeraldTitleScreen_Ch3_sub_5::
	note __, 1
	octave 3
	note A_, 7
	note __, 9
	note G_, 7
	note __, 9
	note F#, 15
	note __, 1
	endchannel
Music_EmeraldTitleScreen_Ch3_sub_6::
	note C_, 3
	note __, 1
	note D#, 3
	note __, 1
	note G#, 3
	note __, 1
	endchannel
Music_EmeraldTitleScreen_Ch3_sub_7::
	octave 4
	note F_, 3
	note __, 1
	note A#, 3
	note __, 1
	octave 5
	note D_, 3
	note __, 1
	note F_, 3
	note __, 1
	octave 4
	endchannel
Music_EmeraldTitleScreen_Ch3_sub_8::
	notetype 5, (10<<4) + 0
	note __, 5
	notetype 1, (10<<4) + 0
	endchannel
Music_EmeraldTitleScreen_Ch3_sub_9::
	octave 6
	note F_, 3
	note __, 1
	note D_, 3
	note __, 1
	octave 5
	note A#, 3
	note __, 1
	note F_, 3
	note __, 1
	octave 6
	note D_, 3
	note __, 1
	octave 5
	endchannel
Music_EmeraldTitleScreen_Ch3_sub_10::
	octave 6
	note C_, 3
	note __, 1
	octave 5
	note D#, 3
	note __, 1
	note G#, 3
	note __, 1
	octave 6
	note C_, 3
	note __, 1
	note D#, 3
	note __, 1
	octave 5
	endchannel
Music_EmeraldTitleScreen_Ch3_sub_11::
	octave 6
	note D#, 3
	note __, 1
	note C_, 3
	note __, 1
	octave 5
	note G#, 3
	note __, 1
	note D#, 3
	note __, 1
	octave 6
	note C_, 3
	note __, 1
	octave 5
	endchannel
Music_EmeraldTitleScreen_Ch3_sub_12::
	octave 4
	note A#, 3
	note __, 1
	octave 5
	note F_, 3
	note __, 1
	note D_, 3
	note __, 1
	octave 4
	note A#, 3
	note __, 1
	note F_, 3
	note __, 1
	octave 5
	endchannel
Music_EmeraldTitleScreen_Ch3_sub_13::
	octave 4
	note D#, 3
	note __, 1
	note G#, 3
	note __, 1
	octave 5
	note C_, 3
	note __, 1
	note D#, 3
	note __, 1
	octave 4
	note G#, 3
	note __, 1
	octave 5
	endchannel
Music_EmeraldTitleScreen_Ch3_sub_14::
	octave 4
	note G#, 3
	note __, 1
	octave 5
	note D#, 3
	note __, 1
	note C_, 3
	note __, 1
	octave 4
	note G#, 3
	note __, 1
	note D#, 3
	note __, 1
	octave 5
	endchannel
Music_EmeraldTitleScreen_Ch3_sub_15::
	octave 6
	note C#, 7
	note __, 1
	note D#, 7
	note __, 1
	note C#, 7
	note __, 1
	note D#, 7
	note __, 1
	note C#, 7
	note __, 1
	note D#, 7
	note __, 1
	endchannel
Music_EmeraldTitleScreen_Ch3_sub_16::
	note F#, 15
	note __, 1
	note B_, 7
	note __, 9
	octave 4
	note C_, 7
	note __, 9
	endchannel
Music_EmeraldTitleScreen_Ch3_sub_17::
	note __, 1
	note G_, 7
	note __, 1
	note D#, 7
	note __, 1
	note C_, 7
	note __, 1
	endchannel
Music_EmeraldTitleScreen_Ch3_sub_18::
	note D_, 7
	note __, 1
	note F_, 7
	note __, 1
	note A_, 7
	note __, 1
	endchannel
Music_EmeraldTitleScreen_Ch3_sub_19::
	note C_, 7
	note __, 1
	note D#, 7
	note __, 1
	note G_, 7
	note __, 1
	endchannel
Music_EmeraldTitleScreen_Ch3_sub_20::
	note A_, 7
	note __, 1
	note F_, 7
	note __, 1
	note D_, 7
	note __, 1
	endchannel
Music_EmeraldTitleScreen_Ch3_sub_21::
	note C#, 7
	note __, 1
	note F_, 7
	note __, 1
	note F#, 7
	note __, 1
	note A#, 7
	note __, 1
	endchannel
Music_EmeraldTitleScreen_Ch3_sub_22::
	note A#, 7
	note __, 1
	note F#, 7
	note __, 1
	note F_, 7
	note __, 1
	note C#, 7
	note __, 1
	endchannel
Music_EmeraldTitleScreen_Ch3_sub_23::
	note C_, 7
	note __, 1
	note E_, 7
	note __, 1
	note G_, 7
	note __, 1
	note A#, 7
	note __, 1
	endchannel
Music_EmeraldTitleScreen_Ch3::
	vibrato 0, (0<<4) + 0
	notetype 1, (10<<4) + 0
	octave 4
	note F_, 7
	note __, 1
	note A_, 7
	note __, 1
	octave 5
	note C_, 4
	note E_, 7
	note __, 1
	note F_, 4
	note A_, 7
	note __, 1
	octave 6
	note C_, 7
	notetype 12, (10<<4) + 0
	note __, 16
	note __, 16
	note __, 16
	note __, 8
	notetype 1, (10<<4) + 0
	note __, 1
	tempo 137
	notetype 12, (10<<4) + 0
	note __, 4
	tempo 145
	note __, 4
	tempo 137
	note __, 8
	tempo 133
	note __, 4
	notetype 1, (10<<4) + 0
	octave 3
	note A_, 15
	notetype 12, (10<<4) + 0
	note __, 1
	notetype 1, (10<<4) + 0
	note __, 5
	octave 4
	note C_, 15
	note __, 1
	notetype 6, (10<<4) + 0
	note F_, 5
	note __, 3
	notetype 1, (10<<4) + 0
	note F_, 15
	notetype 12, (10<<4) + 0
	note __, 1
	notetype 1, (10<<4) + 0
	note __, 5
	note A_, 15
	note __, 1
	notetype 3, (10<<4) + 0
	octave 5
	note C_, 15
	note __, 1
	octave 4
	note A#, 5
	notetype 1, (10<<4) + 0
	note __, 1
	note A_, 15
	note __, 1
	note E_, 7
	note __, 9
	notetype 8, (10<<4) + 0
	note A_, 11
	note __, 1
	notetype 3, (10<<4) + 0
	note F_, 15
	note __, 1
	note G_, 5
	notetype 1, (10<<4) + 0
	note __, 1
	note G#, 7
	note __, 9
	note A_, 7
	notetype 12, (10<<4) + 0
	note __, 16
	notetype 7, (10<<4) + 0
	note __, 15
	octave 5
	note A_, 1
	notetype 1, (10<<4) + 0
	note __, 9
	note A_, 3
	note __, 5
	note A_, 3
	note __, 5
	note A_, 3
	note __, 13
	note A_, 7
	callchannel Music_EmeraldTitleScreen_Ch3_sub_8
	note A_, 7
	note __, 9
	note A#, 7
	callchannel Music_EmeraldTitleScreen_Ch3_sub_8
	note A#, 3
	note __, 13
	note A#, 3
	note __, 13
	note A#, 3
	note __, 13
	note G_, 7
	notetype 7, (10<<4) + 0
	note __, 15
	note A_, 1
	notetype 1, (10<<4) + 0
	note __, 9
	note A#, 7
	note __, 9
	octave 6
	note C_, 7
	note __, 9
	octave 5
	note A#, 7
	note __, 9
	note A_, 7
	note __, 9
	note G_, 7
	note __, 9
	notetype 6, (10<<4) + 0
	note F_, 5
	notetype 1, (10<<4) + 0
	note __, 2
	notetype 6, (10<<4) + 0
	note G_, 5
	notetype 1, (10<<4) + 0
	note __, 2
	notetype 6, (10<<4) + 0
	note D#, 5
	notetype 1, (10<<4) + 0
	note __, 2
	octave 4
	note A#, 15
	note __, 1
	note G_, 7
	note __, 9
	note A#, 7
	note __, 9
	notetype 3, (10<<4) + 0
	octave 5
	note E_, 15
	note __, 1
	note D#, 15
	note __, 1
	note G_, 5
	notetype 1, (10<<4) + 0
	note __, 1
	note D#, 7
	note __, 13
	octave 4
	note A#, 11
	notetype 12, (10<<4) + 0
	note __, 16
	note __, 16
	note __, 16
	notetype 1, (10<<4) + 0
	note __, 1
	octave 5
	note A_, 7
	note __, 9
	note A_, 7
	callchannel Music_EmeraldTitleScreen_Ch3_sub_8
	note A_, 3
	notetype 12, (10<<4) + 0
	note __, 2
	notetype 1, (10<<4) + 0
	note __, 5
	note A_, 3
	note __, 13
	note A#, 7
	note __, 9
	note G_, 7
	callchannel Music_EmeraldTitleScreen_Ch3_sub_8
	note A#, 3
	notetype 12, (10<<4) + 0
	note __, 2
	notetype 1, (10<<4) + 0
	note __, 5
	note A#, 7
	note __, 9
	octave 4
	note F_, 7
	note __, 9
	note C_, 7
	note __, 9
	note F_, 7
	note __, 9
	note A_, 7
	note __, 9
	note F_, 3
	note __, 13
	note A_, 7
	note __, 9
	octave 5
	note C_, 7
	callchannel Music_EmeraldTitleScreen_Ch3_sub_8
	octave 4
	note A_, 7
	note __, 9
	notetype 3, (10<<4) + 0
	octave 5
	note F_, 15
	note __, 1
	notetype 1, (10<<4) + 0
	note D#, 7
	callchannel Music_EmeraldTitleScreen_Ch3_sub_8
	octave 4
	note A#, 7
	note __, 9
	notetype 3, (10<<4) + 0
	octave 5
	note G_, 15
	note __, 1
	note G_, 1
	notetype 1, (10<<4) + 0
	note __, 13
	note F#, 3
	note __, 13
	note G_, 7
	notetype 12, (10<<4) + 0
	note __, 3
	notetype 1, (10<<4) + 0
	note __, 5
	note G_, 7
	note __, 9
	notetype 3, (10<<4) + 0
	octave 4
	note G#, 15
	note __, 1
	note F_, 5
	notetype 1, (10<<4) + 0
	note __, 1
	note G#, 15
	note __, 1
	octave 5
	note D_, 15
	note __, 1
	octave 4
	note B_, 3
	note __, 1
	notetype 6, (10<<4) + 0
	note A#, 7
	notetype 1, (10<<4) + 0
	note __, 2
	note F_, 7
	note __, 9
	note A#, 7
	note __, 9
	octave 5
	note C_, 7
	note __, 9
	note D_, 15
	note __, 1
	octave 4
	note A#, 7
	note __, 9
	octave 5
	note D_, 7
	note __, 5
	note B_, 3
	note __, 1
	note A#, 15
	note __, 1
	note A_, 3
	note __, 1
	note G#, 3
	note __, 1
	note G_, 3
	note __, 1
	note F#, 3
	note __, 1
	note F_, 3
	note __, 1
	note E_, 3
	note __, 9
	octave 3
	note G_, 7
	note __, 1
	note A#, 7
	note __, 1
	octave 4
	callchannel Music_EmeraldTitleScreen_Ch3_sub_23
	octave 5
	callchannel Music_EmeraldTitleScreen_Ch3_sub_23
	octave 6
	note C_, 7
	note __, 1
	note E_, 7
	note __, 1
	callchannel Music_EmeraldTitleScreen_Ch3_sub_2
	octave 5
	note G#, 3
	note __, 1
	callchannel Music_EmeraldTitleScreen_Ch3_sub_11
	callchannel Music_EmeraldTitleScreen_Ch3_sub_2
	callchannel Music_EmeraldTitleScreen_Ch3_sub_11
	callchannel Music_EmeraldTitleScreen_Ch3_sub_2
	callchannel Music_EmeraldTitleScreen_Ch3_sub_2
	octave 4
	note G#, 3
	note __, 1
	octave 6
	note C_, 3
	note __, 1
	octave 5
	callchannel Music_EmeraldTitleScreen_Ch3_sub_2
	callchannel Music_EmeraldTitleScreen_Ch3_sub_2
	callchannel Music_EmeraldTitleScreen_Ch3_sub_14
	callchannel Music_EmeraldTitleScreen_Ch3_sub_2
	callchannel Music_EmeraldTitleScreen_Ch3_sub_14
	note C_, 3
	note __, 1
	octave 4
	callchannel Music_EmeraldTitleScreen_Ch3_sub_2
	octave 3
	note G#, 3
	note __, 1
	octave 4
	note D#, 3
	note __, 1
	note G#, 3
	note __, 1
	octave 5
	note C_, 3
	note __, 1
	callchannel Music_EmeraldTitleScreen_Ch3_sub_13
	callchannel Music_EmeraldTitleScreen_Ch3_sub_6
	callchannel Music_EmeraldTitleScreen_Ch3_sub_13
	callchannel Music_EmeraldTitleScreen_Ch3_sub_6
	callchannel Music_EmeraldTitleScreen_Ch3_sub_6
	octave 6
	note C_, 3
	note __, 1
	octave 4
	note G#, 3
	note __, 1
	octave 5
	callchannel Music_EmeraldTitleScreen_Ch3_sub_6
	callchannel Music_EmeraldTitleScreen_Ch3_sub_6
	callchannel Music_EmeraldTitleScreen_Ch3_sub_10
	callchannel Music_EmeraldTitleScreen_Ch3_sub_6
	callchannel Music_EmeraldTitleScreen_Ch3_sub_10
	note G#, 3
	note __, 1
	octave 6
	callchannel Music_EmeraldTitleScreen_Ch3_sub_6
	callchannel Music_EmeraldTitleScreen_Ch3_sub_3
	octave 5
	note A#, 3
	note __, 1
	callchannel Music_EmeraldTitleScreen_Ch3_sub_9
	callchannel Music_EmeraldTitleScreen_Ch3_sub_3
	callchannel Music_EmeraldTitleScreen_Ch3_sub_9
	callchannel Music_EmeraldTitleScreen_Ch3_sub_3
	callchannel Music_EmeraldTitleScreen_Ch3_sub_3
	octave 4
	note A#, 3
	note __, 1
	octave 6
	note D_, 3
	note __, 1
	octave 5
	callchannel Music_EmeraldTitleScreen_Ch3_sub_3
	callchannel Music_EmeraldTitleScreen_Ch3_sub_3
	callchannel Music_EmeraldTitleScreen_Ch3_sub_12
	callchannel Music_EmeraldTitleScreen_Ch3_sub_3
	callchannel Music_EmeraldTitleScreen_Ch3_sub_12
	note D_, 3
	note __, 1
	octave 4
	callchannel Music_EmeraldTitleScreen_Ch3_sub_3
	octave 3
	note A#, 3
	note __, 1
	octave 4
	callchannel Music_EmeraldTitleScreen_Ch3_sub_1
	callchannel Music_EmeraldTitleScreen_Ch3_sub_1
	octave 5
	note D_, 3
	note __, 1
	callchannel Music_EmeraldTitleScreen_Ch3_sub_7
	callchannel Music_EmeraldTitleScreen_Ch3_sub_1
	octave 5
	note D_, 3
	note __, 1
	callchannel Music_EmeraldTitleScreen_Ch3_sub_7
	note A#, 3
	note __, 1
	octave 5
	callchannel Music_EmeraldTitleScreen_Ch3_sub_1
	callchannel Music_EmeraldTitleScreen_Ch3_sub_7
	note A#, 3
	note __, 1
	octave 5
	callchannel Music_EmeraldTitleScreen_Ch3_sub_1
	callchannel Music_EmeraldTitleScreen_Ch3_sub_1
	octave 6
	note D_, 3
	note __, 1
	octave 4
	note A#, 3
	note __, 1
	octave 5
	callchannel Music_EmeraldTitleScreen_Ch3_sub_1
	callchannel Music_EmeraldTitleScreen_Ch3_sub_1
	octave 6
	note D_, 3
	note __, 1
	octave 5
	note F_, 3
	note __, 1
	note A#, 3
	note __, 1
	octave 6
	note D_, 3
	note __, 1
	note F_, 3
	notetype 12, (10<<4) + 0
	note __, 16
	note __, 16
	note __, 16
	notetype 7, (10<<4) + 0
	note __, 7
	tempo 137
	notetype 12, (10<<4) + 0
	note __, 4
	tempo 139
	note __, 4
	tempo 141
	note __, 4
	tempo 143
	note __, 16
	notetype 1, (10<<4) + 0
	octave 3
	note A#, 7
	note __, 1
	octave 4
	callchannel Music_EmeraldTitleScreen_Ch3_sub_18
	octave 5
	note C_, 7
	note __, 1
	callchannel Music_EmeraldTitleScreen_Ch3_sub_18
	octave 6
	note C_, 7
	note __, 1
	callchannel Music_EmeraldTitleScreen_Ch3_sub_18
	octave 7
	note C_, 7
	note __, 1
	octave 6
	callchannel Music_EmeraldTitleScreen_Ch3_sub_20
	note C_, 7
	note __, 1
	octave 5
	callchannel Music_EmeraldTitleScreen_Ch3_sub_20
	note C_, 7
	note __, 1
	octave 4
	callchannel Music_EmeraldTitleScreen_Ch3_sub_20
	notetype 3, (10<<4) + 0
	octave 3
	note A#, 15
	notetype 12, (10<<4) + 0
	note __, 12
	notetype 1, (10<<4) + 0
	note __, 3
	note G#, 7
	callchannel Music_EmeraldTitleScreen_Ch3_sub_4
	octave 5
	callchannel Music_EmeraldTitleScreen_Ch3_sub_19
	note G#, 7
	note __, 1
	octave 6
	callchannel Music_EmeraldTitleScreen_Ch3_sub_19
	note A#, 7
	callchannel Music_EmeraldTitleScreen_Ch3_sub_17
	octave 5
	note G#, 7
	callchannel Music_EmeraldTitleScreen_Ch3_sub_17
	octave 4
	note G#, 7
	callchannel Music_EmeraldTitleScreen_Ch3_sub_17
	notetype 3, (10<<4) + 0
	octave 3
	note G#, 15
	notetype 12, (10<<4) + 0
	note __, 12
	notetype 1, (10<<4) + 0
	note __, 3
	note F#, 7
	note __, 1
	note A#, 7
	note __, 1
	octave 4
	callchannel Music_EmeraldTitleScreen_Ch3_sub_21
	octave 5
	callchannel Music_EmeraldTitleScreen_Ch3_sub_21
	octave 6
	note C#, 7
	note __, 1
	note F_, 7
	note __, 1
	note G#, 7
	note __, 1
	note F_, 7
	note __, 1
	note C#, 7
	note __, 1
	octave 5
	callchannel Music_EmeraldTitleScreen_Ch3_sub_22
	octave 4
	callchannel Music_EmeraldTitleScreen_Ch3_sub_22
	octave 3
	note A#, 7
	note __, 1
	tempo 145
	note D#, 7
	note __, 1
	note G_, 7
	note __, 1
	note G#, 7
	note __, 1
	octave 4
	callchannel Music_EmeraldTitleScreen_Ch3_sub_19
	octave 3
	note G_, 7
	note __, 1
	note G#, 7
	callchannel Music_EmeraldTitleScreen_Ch3_sub_4
	octave 3
	note G#, 7
	callchannel Music_EmeraldTitleScreen_Ch3_sub_4
	octave 5
	note C_, 7
	callchannel Music_EmeraldTitleScreen_Ch3_sub_4
	octave 5
	note C_, 7
	note __, 1
	note D#, 7
	note __, 1
	tempo 141
	octave 4
	note C#, 7
	note __, 1
	note F_, 7
	note __, 1
	note G#, 7
	note __, 1
	note B_, 7
	note __, 1
	octave 5
	note C#, 7
	note __, 1
	note D#, 7
	note __, 1
	note F_, 7
	note __, 1
	note G#, 7
	note __, 1
	note B_, 7
	note __, 1
	octave 6
	note C#, 7
	note __, 1
	note D#, 7
	note __, 1
	note F_, 7
	note __, 1
	tempo 143
	note G#, 7
	note __, 1
	note F_, 7
	note __, 1
	note D#, 7
	note __, 1
	note C#, 7
	note __, 1
	octave 5
	note B_, 7
	note __, 1
	note G#, 7
	note __, 1
	tempo 150
	note F_, 7
	note __, 1
	note D#, 7
	note __, 1
	note C#, 7
	note __, 1
	octave 4
	note B_, 7
	note __, 1
	note G#, 7
	note __, 1
	note F_, 7
	note __, 1
	tempo 139
	notetype 12, (10<<4) + 0
	note __, 8
	notetype 6, (10<<4) + 0
	octave 5
	note F#, 5
	notetype 1, (10<<4) + 0
	note __, 2
	note A#, 15
	note __, 1
	callchannel Music_EmeraldTitleScreen_Ch3_sub_15
	notetype 3, (10<<4) + 0
	octave 5
	note G#, 15
	notetype 5, (10<<4) + 0
	note __, 7
	notetype 1, (10<<4) + 0
	note B_, 7
	note __, 9
	octave 6
	note E_, 7
	note __, 1
	note F#, 7
	note __, 1
	note E_, 7
	note __, 1
	note F#, 7
	note __, 1
	note E_, 7
	note __, 1
	note F#, 7
	note __, 1
	note E_, 7
	note __, 9
	note D#, 7
	note __, 9
	note D_, 7
	callchannel Music_EmeraldTitleScreen_Ch3_sub_0
	note D#, 7
	note __, 9
	note C#, 7
	note __, 9
	note D#, 7
	note __, 9
	note F_, 7
	notetype 7, (10<<4) + 0
	note __, 15
	octave 5
	note F#, 1
	notetype 1, (10<<4) + 0
	note __, 9
	note F_, 7
	note __, 1
	note F#, 7
	note __, 1
	note A#, 7
	note __, 9
	callchannel Music_EmeraldTitleScreen_Ch3_sub_15
	octave 5
	note G#, 15
	note __, 1
	note D#, 7
	note __, 9
	note G_, 7
	note __, 9
	note G#, 7
	callchannel Music_EmeraldTitleScreen_Ch3_sub_8
	note B_, 7
	note __, 9
	octave 6
	note F_, 7
	note __, 1
	note F#, 7
	note __, 1
	note F_, 7
	note __, 1
	note F#, 7
	note __, 1
	note F_, 7
	note __, 1
	note F#, 7
	note __, 1
	note F_, 7
	note __, 9
	note D#, 7
	note __, 9
	note C_, 7
	callchannel Music_EmeraldTitleScreen_Ch3_sub_0
	note D_, 7
	note __, 9
	note C#, 7
	note __, 9
	note F_, 7
	note __, 9
	note G#, 7
	notetype 7, (10<<4) + 0
	note __, 15
	notetype 1, (10<<4) + 0
	octave 3
	note F#, 15
	note __, 1
	note F_, 7
	note __, 9
	note F#, 15
	note __, 1
	note A#, 11
	notetype 3, (10<<4) + 0
	note __, 7
	notetype 1, (10<<4) + 0
	octave 4
	note C#, 7
	note __, 9
	octave 3
	note B_, 7
	notetype 5, (10<<4) + 0
	note __, 5
	octave 4
	note C#, 3
	notetype 1, (10<<4) + 0
	note __, 1
	notetype 3, (10<<4) + 0
	note F#, 15
	note __, 1
	notetype 1, (10<<4) + 0
	octave 5
	note D#, 7
	notetype 5, (10<<4) + 0
	note __, 5
	note F#, 3
	notetype 1, (10<<4) + 0
	note __, 1
	notetype 9, (10<<4) + 0
	note B_, 15
	notetype 12, (10<<4) + 0
	note __, 16
	note __, 16
	notetype 7, (10<<4) + 0
	note __, 15
	notetype 1, (10<<4) + 0
	octave 3
	callchannel Music_EmeraldTitleScreen_Ch3_sub_16
	note C#, 15
	callchannel Music_EmeraldTitleScreen_Ch3_sub_5
	note B_, 7
	note __, 9
	octave 4
	note C_, 7
	note __, 9
	note D_, 15
	callchannel Music_EmeraldTitleScreen_Ch3_sub_5
	note B_, 7
	note __, 9
	octave 4
	note C_, 7
	note __, 9
	note C#, 15
	callchannel Music_EmeraldTitleScreen_Ch3_sub_5
	note F_, 7
	note __, 9
	note F#, 7
	note __, 9
	note A#, 15
	note __, 1
	note G_, 7
	note __, 9
	note E_, 7
	note __, 9
	callchannel Music_EmeraldTitleScreen_Ch3_sub_16
	note C#, 15
	note __, 5
	octave 3
	note A_, 7
	note __, 5
	note G_, 7
	note __, 9
	callchannel Music_EmeraldTitleScreen_Ch3_sub_16
	note D_, 15
	callchannel Music_EmeraldTitleScreen_Ch3_sub_5
	octave 4
	note D_, 7
	note __, 9
	note D#, 7
	note __, 9
	note E_, 15
	callchannel Music_EmeraldTitleScreen_Ch3_sub_5
	octave 4
	note D#, 7
	note __, 9
	note E_, 7
	note __, 9
	note F_, 15
	note __, 1
	note E_, 7
	note __, 9
	note F_, 7
	note __, 9
	note F#, 11
	notetype 12, (10<<4) + 0
	note __, 15
	notetype 1, (10<<4) + 0
	note __, 1
	tempo 141
	notetype 12, (10<<4) + 0
	note __, 12
	tempo 150
	note __, 4
	tempo 160
	note __, 16
	tempo 192
	notetype 1, (10<<4) + 0
	octave 6
	note F#, 7
	notetype 12, (10<<4) + 0
	note __, 3
	notetype 1, (10<<4) + 0
	note __, 5
	tempo 234
	notetype 12, (10<<4) + 0
	note __, 4
	tempo 300
	endchannel
Music_EmeraldTitleScreen_Ch1_sub_0::
	note F_, 15
	notetype 12, (10<<4) + 0
	note __, 1
	notetype 1, (10<<4) + 0
	note __, 5
	note F_, 7
	note __, 9
	note F_, 15
	note __, 1
	octave 2
	note C_, 15
	note __, 1
	note F_, 15
	note __, 1
	octave 1
	note F_, 15
	notetype 12, (10<<4) + 0
	note __, 1
	notetype 1, (10<<4) + 0
	note __, 5
	note F_, 7
	note __, 9
	note E_, 15
	notetype 12, (10<<4) + 0
	note __, 1
	notetype 1, (10<<4) + 0
	note __, 5
	note E_, 7
	note __, 9
	endchannel
Music_EmeraldTitleScreen_Ch1_sub_1::
	note __, 9
	note F#, 7
	notetype 5, (10<<4) + 0
	note __, 5
	notetype 1, (10<<4) + 0
	note F_, 7
	note __, 9
	notetype 2, (10<<4) + 0
	note F#, 11
	note __, 5
	notetype 1, (10<<4) + 0
	endchannel
Music_EmeraldTitleScreen_Ch1_sub_2::
	notetype 12, (10<<4) + 0
	note __, 1
	notetype 1, (10<<4) + 0
	note __, 5
	endchannel
Music_EmeraldTitleScreen_Ch1_sub_3::
	notetype 1, (10<<4) + 0
	note __, 5
	notetype 3, (10<<4) + 0
	endchannel
Music_EmeraldTitleScreen_Ch1_sub_4::
	notetype 1, (10<<4) + 0
	note __, 2
	notetype 6, (10<<4) + 0
	note F#, 5
	notetype 1, (10<<4) + 0
	note __, 2
	notetype 6, (10<<4) + 0
	endchannel
Music_EmeraldTitleScreen_Ch1_sub_5::
	note D#, 7
	note __, 9
	note D#, 15
	note __, 1
	note A#, 15
	note __, 1
	octave 2
	note D#, 15
	note __, 1
	octave 1
	endchannel
Music_EmeraldTitleScreen_Ch1_sub_6::
	note F_, 15
	note __, 1
	octave 2
	note C_, 15
	note __, 1
	note F_, 15
	note __, 1
	octave 1
	endchannel
Music_EmeraldTitleScreen_Ch1_sub_7::
	note E_, 15
	note __, 1
	note B_, 15
	note __, 1
	octave 2
	note E_, 15
	note __, 1
	octave 1
	endchannel
Music_EmeraldTitleScreen_Ch1_sub_8::
	note F_, 15
	note __, 1
	note D#, 15
	note __, 1
	note C#, 15
	note __, 1
	endchannel
Music_EmeraldTitleScreen_Ch1_sub_9::
	notetype 5, (10<<4) + 0
	note __, 5
	notetype 1, (10<<4) + 0
	endchannel
Music_EmeraldTitleScreen_Ch1_sub_10::
	note F#, 7
	note __, 9
	note F#, 7
	notetype 12, (10<<4) + 0
	note __, 6
	notetype 1, (10<<4) + 0
	note __, 1
	note F_, 7
	endchannel
Music_EmeraldTitleScreen_Ch1_sub_11::
	notetype 8, (10<<4) + 0
	note __, 1
	notetype 1, (10<<4) + 0
	octave 1
	endchannel
Music_EmeraldTitleScreen_Ch1::
	tempo 133
	notetype 12, (0<<4) + 0
	note __, 16
	note __, 16
	notetype 15, (0<<4) + 0
	note __, 16
	vibrato 0, (0<<4) + 0
	dutycycle 0
	notetype 3, (10<<4) + 0
	octave 2
	note D#, 9
	note __, 7
	notetype 1, (10<<4) + 0
	note D#, 7
	callchannel Music_EmeraldTitleScreen_Ch1_sub_9
	note D#, 7
	note __, 9
	note D#, 7
	note __, 9
	note D_, 7
	note __, 9
	note D#, 7
	note __, 9
	note D#, 7
	note __, 9
	note D#, 7
	note __, 9
	note E_, 7
	note __, 9
	octave 1
	callchannel Music_EmeraldTitleScreen_Ch1_sub_0
	note D#, 15
	callchannel Music_EmeraldTitleScreen_Ch1_sub_2
	note D#, 7
	note __, 9
	note D#, 15
	callchannel Music_EmeraldTitleScreen_Ch1_sub_2
	note D#, 7
	note __, 9
	note D#, 15
	callchannel Music_EmeraldTitleScreen_Ch1_sub_2
	note D#, 7
	note __, 9
	callchannel Music_EmeraldTitleScreen_Ch1_sub_7
	callchannel Music_EmeraldTitleScreen_Ch1_sub_0
	notetype 3, (10<<4) + 0
	note D#, 13
	note __, 3
	notetype 1, (10<<4) + 0
	note D#, 7
	note __, 9
	note D#, 3
	note __, 5
	note D#, 3
	note __, 5
	callchannel Music_EmeraldTitleScreen_Ch1_sub_5
	callchannel Music_EmeraldTitleScreen_Ch1_sub_7
	callchannel Music_EmeraldTitleScreen_Ch1_sub_0
	note D#, 15
	callchannel Music_EmeraldTitleScreen_Ch1_sub_2
	note D#, 7
	note __, 9
	note D#, 15
	callchannel Music_EmeraldTitleScreen_Ch1_sub_2
	note D#, 7
	note __, 9
	note D#, 15
	callchannel Music_EmeraldTitleScreen_Ch1_sub_2
	note D#, 7
	note __, 9
	callchannel Music_EmeraldTitleScreen_Ch1_sub_7
	callchannel Music_EmeraldTitleScreen_Ch1_sub_0
	note D#, 15
	note __, 1
	note D_, 7
	note __, 9
	note D#, 7
	note __, 9
	notetype 3, (10<<4) + 0
	octave 2
	note C#, 15
	note __, 1
	octave 1
	note A#, 10
	notetype 1, (10<<4) + 0
	note __, 2
	note D#, 15
	note __, 1
	octave 0
	note A#, 15
	note __, 1
	octave 1
	note C#, 15
	note __, 1
	note D#, 7
	note __, 1
	note E_, 7
	note __, 1
	note F_, 15
	callchannel Music_EmeraldTitleScreen_Ch1_sub_2
	note F_, 7
	note __, 9
	callchannel Music_EmeraldTitleScreen_Ch1_sub_6
	callchannel Music_EmeraldTitleScreen_Ch1_sub_6
	note E_, 15
	callchannel Music_EmeraldTitleScreen_Ch1_sub_2
	note E_, 7
	note __, 9
	note D#, 15
	callchannel Music_EmeraldTitleScreen_Ch1_sub_2
	callchannel Music_EmeraldTitleScreen_Ch1_sub_5
	note D#, 15
	callchannel Music_EmeraldTitleScreen_Ch1_sub_2
	note D#, 7
	note __, 9
	note E_, 15
	callchannel Music_EmeraldTitleScreen_Ch1_sub_2
	note E_, 7
	note __, 9
	callchannel Music_EmeraldTitleScreen_Ch1_sub_0
	note D#, 7
	note __, 9
	note D#, 7
	notetype 5, (10<<4) + 0
	note __, 5
	notetype 2, (10<<4) + 0
	note D#, 11
	note __, 5
	notetype 1, (10<<4) + 0
	note E_, 15
	note __, 1
	note D#, 15
	note __, 1
	notetype 6, (10<<4) + 0
	note F_, 5
	notetype 1, (10<<4) + 0
	note __, 2
	note G_, 11
	notetype 3, (10<<4) + 0
	note __, 7
	note E_, 5
	notetype 1, (10<<4) + 0
	note __, 1
	note F_, 15
	callchannel Music_EmeraldTitleScreen_Ch1_sub_2
	note F_, 7
	note __, 9
	note F_, 15
	callchannel Music_EmeraldTitleScreen_Ch1_sub_2
	note F_, 7
	note __, 9
	callchannel Music_EmeraldTitleScreen_Ch1_sub_6
	note E_, 15
	callchannel Music_EmeraldTitleScreen_Ch1_sub_2
	note E_, 7
	note __, 9
	note D#, 15
	callchannel Music_EmeraldTitleScreen_Ch1_sub_2
	callchannel Music_EmeraldTitleScreen_Ch1_sub_5
	note D_, 15
	callchannel Music_EmeraldTitleScreen_Ch1_sub_2
	note D_, 7
	note __, 9
	note C_, 15
	callchannel Music_EmeraldTitleScreen_Ch1_sub_2
	note C_, 7
	note __, 9
	notetype 12, (10<<4) + 0
	octave 0
	note A#, 6
	callchannel Music_EmeraldTitleScreen_Ch1_sub_11
	note G#, 15
	note __, 1
	notetype 3, (10<<4) + 0
	note D_, 15
	note __, 1
	note F_, 5
	notetype 1, (10<<4) + 0
	note __, 1
	note E_, 15
	note __, 1
	note D#, 15
	note __, 1
	notetype 3, (10<<4) + 0
	note D_, 15
	note __, 1
	octave 0
	note A#, 5
	notetype 1, (10<<4) + 0
	note __, 1
	octave 1
	note D_, 15
	note __, 1
	note F_, 15
	note __, 1
	notetype 3, (10<<4) + 0
	octave 2
	note C_, 15
	note __, 1
	octave 1
	note A#, 5
	notetype 1, (10<<4) + 0
	note __, 1
	note G#, 15
	note __, 1
	note F_, 15
	note __, 1
	notetype 3, (10<<4) + 0
	note D#, 15
	note __, 1
	note C_, 5
	notetype 1, (10<<4) + 0
	note __, 1
	note D#, 15
	note __, 1
	note G#, 15
	note __, 1
	notetype 3, (10<<4) + 0
	octave 2
	note D#, 9
	callchannel Music_EmeraldTitleScreen_Ch1_sub_3
	note D_, 9
	callchannel Music_EmeraldTitleScreen_Ch1_sub_3
	note C#, 9
	callchannel Music_EmeraldTitleScreen_Ch1_sub_3
	note C_, 9
	callchannel Music_EmeraldTitleScreen_Ch1_sub_3
	octave 1
	note B_, 9
	callchannel Music_EmeraldTitleScreen_Ch1_sub_3
	note A#, 9
	notetype 1, (10<<4) + 0
	note __, 5
	note G#, 15
	note __, 1
	note A#, 15
	note __, 1
	note G#, 15
	note __, 1
	note G_, 15
	note __, 1
	note F_, 15
	note __, 1
	note D#, 15
	note __, 1
	notetype 3, (10<<4) + 0
	note A#, 15
	note __, 1
	octave 0
	note A_, 5
	notetype 1, (10<<4) + 0
	note __, 1
	octave 1
	note F_, 15
	note __, 1
	note A#, 15
	note __, 1
	notetype 3, (10<<4) + 0
	octave 2
	note F_, 9
	callchannel Music_EmeraldTitleScreen_Ch1_sub_3
	note E_, 9
	callchannel Music_EmeraldTitleScreen_Ch1_sub_3
	note D#, 9
	callchannel Music_EmeraldTitleScreen_Ch1_sub_3
	note D_, 9
	callchannel Music_EmeraldTitleScreen_Ch1_sub_3
	note C#, 9
	callchannel Music_EmeraldTitleScreen_Ch1_sub_3
	note C_, 9
	notetype 1, (10<<4) + 0
	note __, 5
	octave 1
	note A#, 15
	note __, 1
	octave 2
	note C_, 15
	note __, 1
	octave 1
	note A#, 15
	note __, 1
	note G_, 15
	note __, 1
	note A#, 15
	note __, 1
	note B_, 15
	notetype 12, (10<<4) + 0
	note __, 16
	note __, 9
	callchannel Music_EmeraldTitleScreen_Ch1_sub_3
	octave 3
	note A#, 9
	notetype 1, (10<<4) + 0
	note __, 5
	note A#, 7
	callchannel Music_EmeraldTitleScreen_Ch1_sub_9
	note B_, 7
	notetype 12, (10<<4) + 0
	note __, 16
	notetype 1, (10<<4) + 0
	note __, 9
	note C_, 7
	callchannel Music_EmeraldTitleScreen_Ch1_sub_2
	note C_, 3
	note __, 5
	note C_, 3
	note __, 5
	note C_, 3
	note __, 5
	note C_, 7
	note __, 9
	note C_, 7
	note __, 9
	note C_, 7
	callchannel Music_EmeraldTitleScreen_Ch1_sub_9
	note C_, 7
	note __, 9
	note C_, 7
	note __, 9
	octave 2
	note A#, 7
	note __, 9
	note A#, 7
	note __, 9
	note B_, 7
	note __, 9
	notetype 8, (10<<4) + 0
	octave 1
	note D#, 11
	note __, 1
	notetype 3, (10<<4) + 0
	note F_, 15
	note __, 1
	note C_, 10
	notetype 1, (10<<4) + 0
	note __, 2
	note C#, 15
	note __, 1
	notetype 12, (10<<4) + 0
	note D_, 5
	notetype 4, (10<<4) + 0
	note __, 1
	notetype 1, (10<<4) + 0
	note C#, 15
	note __, 1
	note D_, 15
	note __, 1
	notetype 6, (10<<4) + 0
	octave 0
	note A#, 7
	notetype 1, (10<<4) + 0
	note __, 2
	note B_, 3
	note __, 1
	notetype 3, (10<<4) + 0
	octave 1
	note C_, 15
	note __, 1
	notetype 8, (10<<4) + 0
	note C#, 11
	note __, 1
	notetype 6, (10<<4) + 0
	note C_, 5
	notetype 1, (10<<4) + 0
	note __, 2
	note D#, 11
	note __, 5
	notetype 6, (10<<4) + 0
	octave 0
	note A#, 5
	notetype 1, (10<<4) + 0
	note __, 2
	octave 1
	note C#, 11
	note __, 1
	octave 0
	note A_, 3
	note __, 1
	notetype 12, (10<<4) + 0
	note G#, 6
	callchannel Music_EmeraldTitleScreen_Ch1_sub_11
	note D#, 11
	note __, 1
	note A_, 3
	note __, 1
	notetype 3, (10<<4) + 0
	note G#, 13
	notetype 1, (10<<4) + 0
	note __, 1
	note G_, 3
	note __, 1
	note F#, 3
	note __, 1
	callchannel Music_EmeraldTitleScreen_Ch1_sub_8
	notetype 12, (10<<4) + 0
	octave 0
	note B_, 6
	callchannel Music_EmeraldTitleScreen_Ch1_sub_11
	note C#, 15
	note __, 1
	callchannel Music_EmeraldTitleScreen_Ch1_sub_8
	notetype 3, (10<<4) + 0
	octave 0
	note G#, 15
	note __, 1
	note F#, 6
	notetype 1, (10<<4) + 0
	note __, 14
	note G#, 7
	note __, 9
	note F#, 15
	callchannel Music_EmeraldTitleScreen_Ch1_sub_2
	note F#, 7
	note __, 9
	note F#, 15
	callchannel Music_EmeraldTitleScreen_Ch1_sub_2
	note F#, 7
	note __, 9
	note F#, 15
	callchannel Music_EmeraldTitleScreen_Ch1_sub_2
	note F#, 7
	note __, 9
	notetype 6, (10<<4) + 0
	note G#, 3
	notetype 1, (10<<4) + 0
	note __, 14
	note G#, 7
	note __, 9
	note G#, 15
	note __, 1
	octave 1
	note G#, 15
	note __, 1
	octave 0
	note G#, 7
	note __, 9
	note G#, 15
	callchannel Music_EmeraldTitleScreen_Ch1_sub_2
	note G#, 7
	note __, 9
	note G#, 15
	callchannel Music_EmeraldTitleScreen_Ch1_sub_2
	note G#, 7
	note __, 9
	notetype 6, (10<<4) + 0
	octave 1
	note C#, 3
	notetype 1, (10<<4) + 0
	note __, 14
	note C#, 7
	note __, 9
	note C#, 15
	note __, 1
	note B_, 15
	note __, 1
	note C#, 7
	note __, 9
	note C#, 15
	note __, 1
	note B_, 15
	note __, 1
	note G#, 7
	note __, 9
	note F_, 15
	note __, 1
	note G#, 7
	note __, 1
	note F_, 7
	note __, 1
	note C#, 7
	notetype 12, (10<<4) + 0
	note __, 3
	notetype 1, (10<<4) + 0
	note __, 5
	note F_, 7
	callchannel Music_EmeraldTitleScreen_Ch1_sub_1
	note F#, 7
	callchannel Music_EmeraldTitleScreen_Ch1_sub_1
	note F_, 7
	callchannel Music_EmeraldTitleScreen_Ch1_sub_1
	callchannel Music_EmeraldTitleScreen_Ch1_sub_10
	callchannel Music_EmeraldTitleScreen_Ch1_sub_1
	note F#, 7
	callchannel Music_EmeraldTitleScreen_Ch1_sub_1
	note F_, 7
	callchannel Music_EmeraldTitleScreen_Ch1_sub_1
	note F#, 7
	note __, 9
	note F#, 7
	callchannel Music_EmeraldTitleScreen_Ch1_sub_9
	note F_, 7
	notetype 12, (10<<4) + 0
	note __, 3
	notetype 1, (10<<4) + 0
	note __, 5
	note F_, 7
	callchannel Music_EmeraldTitleScreen_Ch1_sub_1
	note F#, 7
	callchannel Music_EmeraldTitleScreen_Ch1_sub_1
	note F_, 7
	callchannel Music_EmeraldTitleScreen_Ch1_sub_1
	callchannel Music_EmeraldTitleScreen_Ch1_sub_10
	callchannel Music_EmeraldTitleScreen_Ch1_sub_1
	note F#, 7
	callchannel Music_EmeraldTitleScreen_Ch1_sub_1
	note F_, 7
	note __, 9
	note F#, 7
	callchannel Music_EmeraldTitleScreen_Ch1_sub_9
	note G#, 7
	note __, 9
	notetype 2, (10<<4) + 0
	note G#, 11
	note __, 5
	notetype 1, (10<<4) + 0
	note B_, 7
	note __, 9
	callchannel Music_EmeraldTitleScreen_Ch1_sub_8
	notetype 3, (10<<4) + 0
	note F#, 15
	note __, 1
	note C#, 10
	notetype 1, (10<<4) + 0
	note __, 2
	note A#, 7
	note __, 1
	note F#, 7
	note __, 1
	notetype 15, (10<<4) + 0
	note E_, 16
	notetype 12, (10<<4) + 0
	note __, 12
	notetype 1, (10<<4) + 0
	note F#, 15
	note __, 1
	callchannel Music_EmeraldTitleScreen_Ch1_sub_8
	octave 0
	note B_, 15
	note __, 1
	note A#, 15
	note __, 1
	notetype 6, (10<<4) + 0
	note B_, 5
	notetype 1, (10<<4) + 0
	note __, 2
	notetype 6, (10<<4) + 0
	octave 1
	note D#, 5
	callchannel Music_EmeraldTitleScreen_Ch1_sub_4
	note B_, 5
	notetype 1, (10<<4) + 0
	note __, 2
	notetype 6, (10<<4) + 0
	octave 2
	note D#, 5
	callchannel Music_EmeraldTitleScreen_Ch1_sub_4
	note B_, 5
	callchannel Music_EmeraldTitleScreen_Ch1_sub_4
	note D_, 5
	notetype 1, (10<<4) + 0
	note __, 2
	notetype 3, (10<<4) + 0
	octave 3
	note D_, 15
	note __, 1
	notetype 1, (10<<4) + 0
	octave 2
	note B_, 7
	note __, 1
	note F#, 7
	note __, 1
	note D_, 7
	note __, 1
	octave 1
	note B_, 7
	note __, 1
	note G#, 7
	note __, 1
	note F_, 7
	notetype 12, (10<<4) + 0
	note __, 16
	note __, 16
	note __, 16
	note __, 16
	note __, 16
	note __, 16
	note __, 16
	notetype 1, (10<<4) + 0
	note __, 1
	octave 2
	note F#, 11
	notetype 12, (10<<4) + 0
	note __, 3
	notetype 1, (10<<4) + 0
	note __, 1
	octave 1
	note F#, 7
	note __, 9
	note F#, 7
	note __, 9
	note F#, 7
	note __, 9
	notetype 6, (10<<4) + 0
	note F#, 3
	endchannel
Music_EmeraldTitleScreen_Ch2_sub_0::
	note F#, 15
	note __, 9
	note F#, 3
	note __, 5
	note F#, 3
	note __, 5
	note F#, 3
	note __, 5
	note F#, 7
	note __, 9
	note F#, 7
	note __, 9
	note F#, 7
	notetype 5, (10<<4) + 0
	note __, 5
	notetype 1, (10<<4) + 0
	note F#, 7
	note __, 9
	note F#, 7
	notetype 5, (10<<4) + 0
	note __, 5
	notetype 1, (10<<4) + 0
	note F#, 7
	note __, 9
	note F#, 7
	note __, 9
	endchannel
Music_EmeraldTitleScreen_Ch2_sub_1::
	note __, 5
	note C_, 3
	note __, 5
	note C_, 7
	note __, 9
	note C_, 7
	note __, 9
	note C_, 7
	notetype 5, (10<<4) + 0
	note __, 5
	notetype 1, (10<<4) + 0
	note C_, 7
	note __, 9
	note C_, 7
	endchannel
Music_EmeraldTitleScreen_Ch2_sub_2::
	note C_, 13
	notetype 1, (10<<4) + 0
	note __, 7
	note C#, 7
	note __, 1
	note D_, 7
	note __, 1
	notetype 12, (10<<4) + 0
	note D#, 5
	notetype 4, (10<<4) + 0
	note __, 1
	notetype 1, (10<<4) + 0
	note D_, 15
	note __, 1
	note C#, 15
	note __, 1
	notetype 13, (10<<4) + 0
	note C_, 14
	notetype 1, (10<<4) + 0
	note __, 10
	endchannel
Music_EmeraldTitleScreen_Ch2_sub_3::
	notetype 5, (10<<4) + 0
	note __, 5
	notetype 1, (10<<4) + 0
	endchannel
Music_EmeraldTitleScreen_Ch2_sub_4::
	note A#, 3
	note __, 1
	note B_, 11
	note __, 5
	note A#, 3
	note __, 13
	note A#, 3
	note __, 9
	endchannel
Music_EmeraldTitleScreen_Ch2_sub_5::
	note __, 9
	notetype 13, (10<<4) + 0
	note C#, 14
	notetype 12, (10<<4) + 0
	note __, 16
	notetype 1, (10<<4) + 0
	note __, 10
	octave 3
	note F#, 15
	note __, 1
	endchannel
Music_EmeraldTitleScreen_Ch2_sub_6::
	notetype 1, (10<<4) + 0
	note __, 2
	notetype 6, (10<<4) + 0
	endchannel
Music_EmeraldTitleScreen_Ch2_sub_7::
	note __, 9
	octave 4
	note C_, 15
	note __, 1
	octave 3
	note B_, 7
	note __, 9
	octave 4
	note C_, 7
	note __, 9
	endchannel
Music_EmeraldTitleScreen_Ch2_sub_8::
	notetype 12, (10<<4) + 0
	note __, 1
	notetype 1, (10<<4) + 0
	note __, 5
	endchannel
Music_EmeraldTitleScreen_Ch2_sub_9::
	note __, 1
	note B_, 3
	note __, 1
	notetype 13, (10<<4) + 0
	octave 4
	endchannel
Music_EmeraldTitleScreen_Ch2::
	vibrato 0, (0<<4) + 0
	dutycycle 0
	notetype 1, (10<<4) + 0
	octave 3
	note C_, 7
	note __, 1
	note E_, 7
	note __, 1
	note F_, 7
	note __, 1
	note A_, 7
	note __, 1
	octave 4
	note C_, 7
	note __, 1
	note E_, 7
	note __, 1
	notetype 9, (10<<4) + 0
	note F_, 15
	callchannel Music_EmeraldTitleScreen_Ch2_sub_3
	note F_, 7
	note __, 9
	note F_, 7
	note __, 9
	notetype 9, (10<<4) + 0
	note F_, 15
	callchannel Music_EmeraldTitleScreen_Ch2_sub_3
	note E_, 7
	note __, 9
	note F_, 7
	note __, 5
	note G_, 3
	note __, 1
	note F#, 11
	note __, 1
	notetype 8, (10<<4) + 0
	note F_, 16
	notetype 4, (10<<4) + 0
	note __, 5
	notetype 1, (10<<4) + 0
	note F_, 7
	note __, 9
	note E_, 7
	note __, 1
	note F_, 7
	note __, 1
	notetype 3, (10<<4) + 0
	note D#, 9
	note __, 7
	notetype 1, (10<<4) + 0
	note D#, 7
	callchannel Music_EmeraldTitleScreen_Ch2_sub_3
	note D#, 7
	note __, 9
	note D#, 3
	note __, 13
	note D_, 3
	note __, 13
	note D#, 3
	note __, 13
	note D#, 3
	note __, 13
	note D#, 3
	note __, 13
	note E_, 7
	note __, 1
	octave 3
	note E_, 7
	note __, 1
	notetype 12, (10<<4) + 0
	note F_, 6
	notetype 8, (10<<4) + 0
	note __, 1
	notetype 1, (10<<4) + 0
	note A_, 11
	note __, 1
	octave 4
	note C#, 3
	note __, 1
	notetype 13, (10<<4) + 0
	callchannel Music_EmeraldTitleScreen_Ch2_sub_2
	notetype 3, (10<<4) + 0
	octave 3
	note A#, 13
	note __, 3
	notetype 1, (10<<4) + 0
	note A#, 7
	note __, 9
	note A#, 3
	note __, 5
	note A#, 3
	note __, 5
	note A#, 7
	note __, 9
	octave 4
	note D#, 15
	note __, 1
	octave 3
	note A#, 15
	note __, 1
	octave 4
	note D#, 15
	note __, 1
	note G#, 15
	note __, 1
	note E_, 15
	note __, 1
	octave 3
	note B_, 15
	notetype 12, (10<<4) + 0
	note __, 8
	notetype 1, (10<<4) + 0
	note __, 1
	octave 4
	note C_, 11
	note __, 5
	octave 3
	note B_, 7
	note __, 9
	octave 4
	note C_, 7
	note __, 9
	note C_, 11
	note __, 5
	note C_, 7
	note __, 9
	note C_, 7
	note __, 9
	note C_, 15
	note __, 1
	note D_, 7
	note __, 9
	note C_, 7
	note __, 9
	notetype 3, (10<<4) + 0
	octave 3
	note A#, 15
	note __, 1
	notetype 1, (10<<4) + 0
	note B_, 7
	note __, 1
	notetype 2, (10<<4) + 0
	note A#, 11
	note __, 1
	note A_, 15
	note __, 1
	notetype 3, (10<<4) + 0
	note A#, 9
	notetype 1, (10<<4) + 0
	callchannel Music_EmeraldTitleScreen_Ch2_sub_9
	note C_, 14
	notetype 12, (10<<4) + 0
	note __, 16
	notetype 1, (10<<4) + 0
	note __, 10
	notetype 3, (10<<4) + 0
	octave 3
	note C_, 15
	note __, 1
	note F_, 5
	notetype 1, (10<<4) + 0
	note __, 1
	notetype 3, (10<<4) + 0
	note A_, 9
	notetype 1, (10<<4) + 0
	callchannel Music_EmeraldTitleScreen_Ch2_sub_9
	callchannel Music_EmeraldTitleScreen_Ch2_sub_2
	note D#, 7
	note __, 9
	note D#, 7
	callchannel Music_EmeraldTitleScreen_Ch2_sub_3
	note D#, 3
	notetype 12, (10<<4) + 0
	note __, 2
	notetype 1, (10<<4) + 0
	note __, 5
	note D#, 3
	note __, 13
	note G_, 7
	note __, 9
	note D#, 7
	callchannel Music_EmeraldTitleScreen_Ch2_sub_3
	note G_, 3
	notetype 12, (10<<4) + 0
	note __, 2
	notetype 1, (10<<4) + 0
	note __, 5
	note G_, 7
	note __, 9
	notetype 2, (10<<4) + 0
	octave 3
	note F_, 11
	note __, 1
	notetype 1, (10<<4) + 0
	note E_, 3
	note __, 1
	note D#, 3
	note __, 1
	note D_, 3
	note __, 1
	note C_, 3
	note __, 1
	octave 2
	note A#, 3
	note __, 5
	octave 3
	note F_, 15
	note __, 1
	note C_, 7
	note __, 9
	note A_, 11
	callchannel Music_EmeraldTitleScreen_Ch2_sub_9
	note C_, 14
	notetype 1, (10<<4) + 0
	note __, 10
	notetype 5, (10<<4) + 0
	note D#, 7
	notetype 1, (10<<4) + 0
	note __, 1
	notetype 6, (10<<4) + 0
	note D_, 5
	notetype 1, (10<<4) + 0
	note __, 2
	notetype 3, (10<<4) + 0
	note D#, 9
	notetype 1, (10<<4) + 0
	note __, 1
	notetype 5, (10<<4) + 0
	note F_, 13
	notetype 1, (10<<4) + 0
	note __, 11
	note A_, 3
	note __, 1
	note G#, 15
	note __, 1
	note F#, 3
	note __, 1
	notetype 12, (10<<4) + 0
	note F_, 15
	notetype 8, (10<<4) + 0
	note __, 13
	note C_, 9
	note __, 1
	notetype 13, (10<<4) + 0
	octave 3
	note G#, 16
	notetype 3, (10<<4) + 0
	octave 4
	note C_, 15
	note __, 1
	note C#, 15
	note __, 1
	notetype 12, (10<<4) + 0
	note D_, 6
	notetype 8, (10<<4) + 0
	note __, 1
	notetype 13, (10<<4) + 0
	octave 3
	note A#, 16
	notetype 3, (10<<4) + 0
	octave 4
	note F_, 15
	note __, 1
	note F#, 15
	note __, 1
	note G_, 5
	notetype 1, (10<<4) + 0
	note __, 1
	note F#, 3
	note __, 1
	note F_, 3
	note __, 1
	octave 3
	note C_, 3
	note __, 5
	note C_, 3
	callchannel Music_EmeraldTitleScreen_Ch2_sub_1
	callchannel Music_EmeraldTitleScreen_Ch2_sub_3
	octave 2
	note B_, 7
	note __, 9
	octave 3
	note C_, 7
	note __, 9
	octave 1
	note G_, 11
	note __, 13
	octave 3
	note C_, 3
	note __, 5
	note C_, 3
	note __, 5
	note C_, 3
	note __, 5
	note C_, 7
	note __, 9
	note C_, 7
	note __, 9
	note C_, 7
	notetype 5, (10<<4) + 0
	note __, 5
	notetype 3, (10<<4) + 0
	octave 4
	note F_, 9
	notetype 1, (10<<4) + 0
	note __, 5
	note F_, 7
	callchannel Music_EmeraldTitleScreen_Ch2_sub_3
	note F#, 7
	note __, 9
	note G_, 15
	note __, 1
	note F#, 3
	note __, 1
	note F_, 3
	note __, 9
	note C_, 3
	callchannel Music_EmeraldTitleScreen_Ch2_sub_1
	callchannel Music_EmeraldTitleScreen_Ch2_sub_3
	note C_, 7
	note __, 9
	note C_, 7
	note __, 9
	octave 5
	note C_, 7
	callchannel Music_EmeraldTitleScreen_Ch2_sub_8
	note C_, 3
	note __, 5
	note C_, 3
	callchannel Music_EmeraldTitleScreen_Ch2_sub_1
	note __, 9
	octave 4
	note A#, 7
	note __, 9
	note A#, 7
	note __, 9
	note B_, 7
	notetype 7, (10<<4) + 0
	note __, 15
	notetype 3, (10<<4) + 0
	octave 3
	note D_, 15
	note __, 1
	note D#, 15
	note __, 1
	note F_, 5
	notetype 1, (10<<4) + 0
	note __, 1
	note E_, 7
	note __, 9
	note F_, 7
	note __, 9
	note A#, 15
	note __, 1
	note A_, 7
	note __, 5
	note A#, 7
	note __, 13
	notetype 6, (10<<4) + 0
	octave 4
	note F_, 5
	callchannel Music_EmeraldTitleScreen_Ch2_sub_6
	note D#, 5
	callchannel Music_EmeraldTitleScreen_Ch2_sub_6
	note D_, 5
	notetype 1, (10<<4) + 0
	note __, 2
	notetype 8, (10<<4) + 0
	note F_, 11
	note __, 1
	notetype 3, (10<<4) + 0
	note D#, 15
	note __, 1
	note C#, 14
	note __, 2
	octave 3
	note G#, 5
	notetype 1, (10<<4) + 0
	note __, 1
	note G_, 7
	note __, 9
	note G#, 7
	callchannel Music_EmeraldTitleScreen_Ch2_sub_7
	notetype 3, (10<<4) + 0
	note D#, 15
	note __, 1
	note D_, 1
	notetype 1, (10<<4) + 0
	note __, 1
	note C#, 3
	note __, 1
	note C_, 3
	note __, 1
	octave 3
	note B_, 3
	note __, 1
	note A#, 3
	note __, 1
	note A_, 3
	note __, 9
	note G_, 7
	note __, 1
	note A_, 7
	note __, 1
	notetype 8, (10<<4) + 0
	note B_, 11
	note __, 1
	notetype 3, (10<<4) + 0
	octave 4
	note C#, 15
	note __, 1
	octave 3
	note G#, 10
	notetype 1, (10<<4) + 0
	note __, 2
	octave 4
	note C_, 15
	note __, 1
	notetype 6, (10<<4) + 0
	note D#, 5
	callchannel Music_EmeraldTitleScreen_Ch2_sub_6
	note C#, 5
	callchannel Music_EmeraldTitleScreen_Ch2_sub_6
	note C_, 5
	notetype 1, (10<<4) + 0
	note __, 2
	notetype 4, (10<<4) + 0
	note C#, 7
	notetype 6, (10<<4) + 0
	octave 3
	note F_, 5
	note __, 1
	note A#, 5
	callchannel Music_EmeraldTitleScreen_Ch2_sub_6
	note G#, 3
	notetype 1, (10<<4) + 0
	note __, 2
	note G_, 7
	note __, 5
	note G#, 7
	note __, 9
	note A#, 15
	note __, 1
	note A_, 7
	note __, 9
	note A#, 7
	callchannel Music_EmeraldTitleScreen_Ch2_sub_7
	notetype 6, (10<<4) + 0
	note C#, 3
	notetype 1, (10<<4) + 0
	note __, 2
	note C_, 7
	note __, 5
	note C#, 7
	note __, 9
	notetype 12, (10<<4) + 0
	note D#, 6
	notetype 8, (10<<4) + 0
	note __, 1
	notetype 1, (10<<4) + 0
	note F_, 7
	note __, 1
	note D#, 7
	note __, 1
	note C#, 15
	note __, 1
	note D#, 7
	note __, 9
	note C#, 7
	note __, 9
	octave 3
	note B_, 15
	note __, 1
	note A#, 15
	note __, 1
	note G#, 15
	note __, 1
	notetype 3, (10<<4) + 0
	note F#, 15
	notetype 5, (10<<4) + 0
	note __, 7
	notetype 1, (10<<4) + 0
	note A#, 7
	note __, 9
	notetype 8, (10<<4) + 0
	octave 4
	note C#, 11
	note __, 1
	notetype 3, (10<<4) + 0
	octave 3
	note G#, 15
	notetype 5, (10<<4) + 0
	note __, 7
	notetype 1, (10<<4) + 0
	note B_, 7
	note __, 9
	notetype 12, (10<<4) + 0
	octave 4
	note E_, 5
	notetype 4, (10<<4) + 0
	note __, 1
	notetype 1, (10<<4) + 0
	note D#, 7
	note __, 9
	note D_, 7
	callchannel Music_EmeraldTitleScreen_Ch2_sub_5
	note C#, 15
	note __, 1
	note F_, 15
	note __, 1
	note F#, 15
	callchannel Music_EmeraldTitleScreen_Ch2_sub_8
	note A#, 7
	note __, 9
	notetype 8, (10<<4) + 0
	octave 4
	note C#, 11
	note __, 1
	notetype 1, (10<<4) + 0
	octave 3
	note G#, 15
	note __, 1
	note D#, 7
	note __, 9
	note G_, 7
	note __, 9
	note G#, 7
	callchannel Music_EmeraldTitleScreen_Ch2_sub_3
	octave 4
	note C_, 7
	note __, 9
	notetype 12, (10<<4) + 0
	note F_, 5
	notetype 4, (10<<4) + 0
	note __, 1
	notetype 1, (10<<4) + 0
	note D#, 7
	note __, 9
	note C_, 7
	callchannel Music_EmeraldTitleScreen_Ch2_sub_5
	note F_, 7
	note __, 9
	note F#, 7
	note __, 9
	note A#, 15
	callchannel Music_EmeraldTitleScreen_Ch2_sub_8
	octave 4
	note C#, 15
	note __, 1
	notetype 15, (10<<4) + 0
	note F#, 16
	notetype 12, (10<<4) + 0
	note __, 16
	notetype 4, (10<<4) + 0
	note __, 11
	notetype 1, (10<<4) + 0
	callchannel Music_EmeraldTitleScreen_Ch2_sub_4
	callchannel Music_EmeraldTitleScreen_Ch2_sub_4
	callchannel Music_EmeraldTitleScreen_Ch2_sub_4
	callchannel Music_EmeraldTitleScreen_Ch2_sub_4
	octave 5
	note C_, 3
	note __, 1
	note C#, 11
	note __, 5
	octave 4
	note B_, 3
	note __, 13
	note B_, 3
	note __, 9
	note B_, 3
	note __, 1
	octave 5
	note C#, 11
	note __, 5
	octave 4
	note B_, 3
	note __, 13
	note B_, 3
	note __, 9
	octave 5
	note D#, 3
	note __, 1
	notetype 3, (10<<4) + 0
	note D_, 15
	note __, 1
	notetype 1, (10<<4) + 0
	octave 4
	note B_, 7
	note __, 1
	note F#, 7
	note __, 1
	note D_, 7
	note __, 1
	octave 3
	note B_, 7
	note __, 1
	note F#, 7
	note __, 1
	note D_, 7
	note __, 1
	callchannel Music_EmeraldTitleScreen_Ch2_sub_0
	callchannel Music_EmeraldTitleScreen_Ch2_sub_0
	callchannel Music_EmeraldTitleScreen_Ch2_sub_0
	callchannel Music_EmeraldTitleScreen_Ch2_sub_0
	callchannel Music_EmeraldTitleScreen_Ch2_sub_0
	callchannel Music_EmeraldTitleScreen_Ch2_sub_0
	callchannel Music_EmeraldTitleScreen_Ch2_sub_0
	octave 5
	note F#, 11
	notetype 12, (10<<4) + 0
	note __, 3
	notetype 1, (10<<4) + 0
	note __, 1
	octave 3
	note F#, 7
	note __, 9
	note F#, 7
	note __, 9
	note F#, 7
	note __, 9
	notetype 6, (10<<4) + 0
	note F#, 3
	endchannel
Music_EmeraldTitleScreen_Ch4_sub_0::
	note C_, 7
	notetype 5
	note __, 5
	notetype 1
	note C_, 7
	note __, 9
	note C_, 7
	note __, 1
	note C_, 7
	note __, 1
	note C_, 7
	note __, 1
	note C_, 7
	note __, 1
	note C_, 7
	note __, 1
	note C_, 7
	note __, 1
	endchannel
Music_EmeraldTitleScreen_Ch4_sub_1::
	note C_, 7
	note __, 9
	note C_, 7
	note __, 9
	note C_, 7
	notetype 5
	note __, 5
	notetype 1
	note C_, 7
	note __, 9
	endchannel
Music_EmeraldTitleScreen_Ch4_sub_2::
	note C_, 7
	note __, 9
	note C_, 7
	note __, 9
	note C_, 7
	note __, 9
	endchannel
Music_EmeraldTitleScreen_Ch4_sub_3::
	notetype 8
	note __, 13
	note C_, 11
	notetype 12
	note __, 16
	endchannel
Music_EmeraldTitleScreen_Ch4_sub_4::
	note C_, 7
	notetype 5
	note __, 5
	notetype 1
	note C_, 7
	note __, 9
	endchannel
Music_EmeraldTitleScreen_Ch4_sub_5::
	note __, 4
	notetype 1
	note __, 9
	notetype 9
	note C_, 15
	notetype 12
	endchannel
Music_EmeraldTitleScreen_Ch4_sub_6::
	notetype 3
	note C_, 15
	note __, 1
	notetype 8
	note C_, 11
	notetype 12
	note __, 16
	note __, 16
	endchannel
Music_EmeraldTitleScreen_Ch4::
	notetype 12
	note __, 4
	notetype 9
	note C_, 15
	notetype 12
	callchannel Music_EmeraldTitleScreen_Ch4_sub_5
	callchannel Music_EmeraldTitleScreen_Ch4_sub_5
	note __, 16
	callchannel Music_EmeraldTitleScreen_Ch4_sub_5
	note __, 16
	note __, 16
	notetype 7
	note __, 15
	notetype 3
	note C_, 15
	notetype 12
	note __, 4
	notetype 1
	note __, 3
	callchannel Music_EmeraldTitleScreen_Ch4_sub_6
	note __, 12
	notetype 8
	note __, 1
	note C_, 11
	note __, 1
	callchannel Music_EmeraldTitleScreen_Ch4_sub_6
	note __, 16
	callchannel Music_EmeraldTitleScreen_Ch4_sub_3
	note __, 16
	notetype 8
	note __, 13
	note C_, 11
	note __, 1
	notetype 12
	note C_, 7
	note __, 1
	note C_, 7
	note __, 16
	note __, 16
	note __, 16
	note __, 9
	notetype 8
	note C_, 11
	notetype 12
	note __, 16
	callchannel Music_EmeraldTitleScreen_Ch4_sub_3
	callchannel Music_EmeraldTitleScreen_Ch4_sub_3
	callchannel Music_EmeraldTitleScreen_Ch4_sub_3
	callchannel Music_EmeraldTitleScreen_Ch4_sub_3
	note __, 16
	note __, 16
	notetype 8
	note __, 13
	note C_, 2
	notetype 1
	callchannel Music_EmeraldTitleScreen_Ch4_sub_1
	callchannel Music_EmeraldTitleScreen_Ch4_sub_0
	callchannel Music_EmeraldTitleScreen_Ch4_sub_2
	callchannel Music_EmeraldTitleScreen_Ch4_sub_0
	callchannel Music_EmeraldTitleScreen_Ch4_sub_2
	note C_, 7
	note __, 9
	callchannel Music_EmeraldTitleScreen_Ch4_sub_1
	callchannel Music_EmeraldTitleScreen_Ch4_sub_4
	callchannel Music_EmeraldTitleScreen_Ch4_sub_4
	note C_, 7
	note __, 9
	callchannel Music_EmeraldTitleScreen_Ch4_sub_1
	callchannel Music_EmeraldTitleScreen_Ch4_sub_0
	note C_, 7
	note __, 9
	callchannel Music_EmeraldTitleScreen_Ch4_sub_1
	callchannel Music_EmeraldTitleScreen_Ch4_sub_0
	callchannel Music_EmeraldTitleScreen_Ch4_sub_2
	callchannel Music_EmeraldTitleScreen_Ch4_sub_0
	callchannel Music_EmeraldTitleScreen_Ch4_sub_0
	callchannel Music_EmeraldTitleScreen_Ch4_sub_4
	callchannel Music_EmeraldTitleScreen_Ch4_sub_0
	note C_, 7
	note __, 9
	callchannel Music_EmeraldTitleScreen_Ch4_sub_1
	callchannel Music_EmeraldTitleScreen_Ch4_sub_0
	notetype 8
	note C_, 11
	endchannel
