Music_EmeraldDrought::
	    dbw $C0, Music_EmeraldDrought_Ch1
	    dbw $01, Music_EmeraldDrought_Ch2
	    dbw $02, Music_EmeraldDrought_Ch3
	    dbw $03, Music_EmeraldDrought_Ch4

    
Music_EmeraldDrought_Ch1_sub_0::
	octave 6
	note D#, 5
	notetype 12, (10<<4) + 0
	note __, 1
	notetype 1, (10<<4) + 0
	note __, 7
	octave 5
	note F#, 5
	notetype 12, (10<<4) + 0
	note __, 1
	notetype 1, (10<<4) + 0
	note __, 7
	note A_, 5
	notetype 12, (10<<4) + 0
	note __, 1
	notetype 1, (10<<4) + 0
	note __, 7
	note F#, 5
	notetype 12, (10<<4) + 0
	note __, 1
	notetype 1, (10<<4) + 0
	note __, 7
	octave 6
	note D#, 5
	notetype 12, (10<<4) + 0
	note __, 1
	notetype 1, (10<<4) + 0
	note __, 7
	octave 5
	note F#, 5
	notetype 12, (10<<4) + 0
	note __, 1
	notetype 1, (10<<4) + 0
	note __, 7
	note A_, 5
	notetype 12, (10<<4) + 0
	note __, 1
	notetype 1, (10<<4) + 0
	note __, 7
	note F#, 5
	notetype 12, (10<<4) + 0
	note __, 1
	notetype 1, (10<<4) + 0
	note __, 7
	octave 6
	note D#, 5
	notetype 12, (10<<4) + 0
	note __, 1
	notetype 1, (10<<4) + 0
	note __, 7
	octave 5
	note F#, 5
	notetype 12, (10<<4) + 0
	note __, 1
	notetype 1, (10<<4) + 0
	note __, 7
	note A_, 5
	notetype 12, (10<<4) + 0
	note __, 1
	notetype 1, (10<<4) + 0
	note __, 7
	note F#, 5
	notetype 12, (10<<4) + 0
	note __, 1
	notetype 1, (10<<4) + 0
	note __, 7
	octave 6
	note D#, 5
	notetype 12, (10<<4) + 0
	note __, 1
	notetype 1, (10<<4) + 0
	note __, 7
	octave 5
	note F#, 5
	notetype 12, (10<<4) + 0
	note __, 1
	notetype 1, (10<<4) + 0
	note __, 7
	note A_, 5
	notetype 12, (10<<4) + 0
	note __, 1
	notetype 1, (10<<4) + 0
	note __, 7
	note F#, 5
	notetype 12, (10<<4) + 0
	note __, 1
	notetype 1, (10<<4) + 0
	note __, 7
	octave 6
	note F_, 5
	notetype 12, (10<<4) + 0
	note __, 1
	notetype 1, (10<<4) + 0
	note __, 7
	octave 5
	note G#, 5
	notetype 12, (10<<4) + 0
	note __, 1
	notetype 1, (10<<4) + 0
	note __, 7
	note B_, 5
	notetype 12, (10<<4) + 0
	note __, 1
	notetype 1, (10<<4) + 0
	note __, 7
	note G#, 5
	notetype 12, (10<<4) + 0
	note __, 1
	notetype 1, (10<<4) + 0
	note __, 7
	octave 6
	note F_, 5
	notetype 12, (10<<4) + 0
	note __, 1
	notetype 1, (10<<4) + 0
	note __, 7
	octave 5
	note G#, 5
	notetype 12, (10<<4) + 0
	note __, 1
	notetype 1, (10<<4) + 0
	note __, 7
	note B_, 5
	notetype 12, (10<<4) + 0
	note __, 1
	notetype 1, (10<<4) + 0
	note __, 7
	note G#, 5
	notetype 12, (10<<4) + 0
	note __, 1
	notetype 1, (10<<4) + 0
	note __, 7
	octave 6
	note F_, 5
	notetype 12, (10<<4) + 0
	note __, 1
	notetype 1, (10<<4) + 0
	note __, 7
	octave 5
	note G#, 5
	notetype 12, (10<<4) + 0
	note __, 1
	notetype 1, (10<<4) + 0
	note __, 7
	note B_, 5
	notetype 12, (10<<4) + 0
	note __, 1
	notetype 1, (10<<4) + 0
	note __, 7
	note G#, 5
	notetype 12, (10<<4) + 0
	note __, 1
	notetype 1, (10<<4) + 0
	note __, 7
	octave 6
	note F_, 5
	notetype 12, (10<<4) + 0
	note __, 1
	notetype 1, (10<<4) + 0
	note __, 7
	octave 5
	note G#, 5
	notetype 12, (10<<4) + 0
	note __, 1
	notetype 1, (10<<4) + 0
	note __, 7
	note B_, 5
	notetype 12, (10<<4) + 0
	note __, 1
	notetype 1, (10<<4) + 0
	note __, 7
	note G#, 5
	notetype 12, (10<<4) + 0
	note __, 1
	notetype 1, (10<<4) + 0
	note __, 7
	octave 6
	note D#, 5
	notetype 12, (10<<4) + 0
	note __, 1
	notetype 1, (10<<4) + 0
	note __, 7
	octave 5
	note F#, 5
	notetype 12, (10<<4) + 0
	note __, 1
	notetype 1, (10<<4) + 0
	note __, 7
	note A_, 5
	notetype 12, (10<<4) + 0
	note __, 1
	notetype 1, (10<<4) + 0
	note __, 7
	note F#, 5
	notetype 12, (10<<4) + 0
	note __, 1
	notetype 1, (10<<4) + 0
	note __, 7
	octave 6
	note D#, 5
	notetype 12, (10<<4) + 0
	note __, 1
	notetype 1, (10<<4) + 0
	note __, 7
	octave 5
	note F#, 5
	notetype 12, (10<<4) + 0
	note __, 1
	notetype 1, (10<<4) + 0
	note __, 7
	note A_, 5
	notetype 12, (10<<4) + 0
	note __, 1
	notetype 1, (10<<4) + 0
	note __, 7
	note F#, 5
	notetype 12, (10<<4) + 0
	note __, 1
	notetype 1, (10<<4) + 0
	note __, 7
	octave 6
	note D#, 5
	notetype 12, (10<<4) + 0
	note __, 1
	notetype 1, (10<<4) + 0
	note __, 7
	octave 5
	note F#, 5
	notetype 12, (10<<4) + 0
	note __, 1
	notetype 1, (10<<4) + 0
	note __, 7
	note A_, 5
	notetype 12, (10<<4) + 0
	note __, 1
	notetype 1, (10<<4) + 0
	note __, 7
	note F#, 5
	notetype 12, (10<<4) + 0
	note __, 1
	notetype 1, (10<<4) + 0
	note __, 7
	octave 6
	note D#, 5
	notetype 12, (10<<4) + 0
	note __, 1
	notetype 1, (10<<4) + 0
	note __, 7
	octave 5
	note F#, 5
	notetype 12, (10<<4) + 0
	note __, 1
	notetype 1, (10<<4) + 0
	note __, 7
	note A_, 5
	notetype 12, (10<<4) + 0
	note __, 1
	notetype 1, (10<<4) + 0
	note __, 7
	note F#, 5
	notetype 12, (10<<4) + 0
	note __, 1
	notetype 1, (10<<4) + 0
	note __, 7
	octave 6
	note F_, 5
	notetype 12, (10<<4) + 0
	note __, 1
	notetype 1, (10<<4) + 0
	note __, 7
	octave 5
	note G#, 5
	notetype 12, (10<<4) + 0
	note __, 1
	notetype 1, (10<<4) + 0
	note __, 7
	note B_, 5
	notetype 12, (10<<4) + 0
	note __, 1
	notetype 1, (10<<4) + 0
	note __, 7
	note G#, 5
	notetype 12, (10<<4) + 0
	note __, 1
	notetype 1, (10<<4) + 0
	note __, 7
	octave 6
	note F_, 5
	notetype 12, (10<<4) + 0
	note __, 1
	notetype 1, (10<<4) + 0
	note __, 7
	octave 5
	note G#, 5
	notetype 12, (10<<4) + 0
	note __, 1
	notetype 1, (10<<4) + 0
	note __, 7
	note B_, 5
	notetype 12, (10<<4) + 0
	note __, 1
	notetype 1, (10<<4) + 0
	note __, 7
	note G#, 5
	notetype 12, (10<<4) + 0
	note __, 1
	notetype 1, (10<<4) + 0
	note __, 7
	octave 6
	note F_, 5
	notetype 12, (10<<4) + 0
	note __, 1
	notetype 1, (10<<4) + 0
	note __, 7
	octave 5
	note G#, 5
	notetype 12, (10<<4) + 0
	note __, 1
	notetype 1, (10<<4) + 0
	note __, 7
	note B_, 5
	notetype 12, (10<<4) + 0
	note __, 1
	notetype 1, (10<<4) + 0
	note __, 7
	note G#, 5
	notetype 12, (10<<4) + 0
	note __, 1
	notetype 1, (10<<4) + 0
	note __, 7
	octave 6
	note F_, 5
	notetype 12, (10<<4) + 0
	note __, 1
	notetype 1, (10<<4) + 0
	note __, 7
	octave 5
	note G#, 5
	notetype 12, (10<<4) + 0
	note __, 1
	notetype 1, (10<<4) + 0
	note __, 7
	note B_, 5
	notetype 12, (10<<4) + 0
	note __, 1
	notetype 1, (10<<4) + 0
	note __, 7
	note G#, 5
	notetype 12, (10<<4) + 0
	note __, 1
	notetype 1, (10<<4) + 0
	note __, 7
	octave 6
	note D#, 5
	note __, 13
	note D#, 5
	note __, 1
	octave 5
	note F#, 5
	note __, 13
	note F#, 5
	note __, 1
	note A_, 5
	note __, 13
	note A_, 5
	note __, 1
	note F#, 5
	note __, 13
	note F#, 5
	note __, 1
	octave 6
	note D#, 5
	note __, 13
	note D#, 5
	note __, 1
	octave 5
	note F#, 5
	note __, 13
	note F#, 5
	note __, 1
	note A_, 5
	note __, 13
	note A_, 5
	note __, 1
	note F#, 5
	note __, 13
	note F#, 5
	note __, 1
	octave 6
	note D#, 5
	note __, 13
	note D#, 5
	note __, 1
	octave 5
	note F#, 5
	note __, 13
	note F#, 5
	note __, 1
	note A_, 5
	note __, 13
	note A_, 5
	note __, 1
	note F#, 5
	note __, 13
	note F#, 5
	note __, 1
	octave 6
	note D#, 5
	note __, 13
	note D#, 5
	note __, 1
	octave 5
	note F#, 5
	note __, 13
	note F#, 5
	note __, 1
	note A_, 5
	note __, 13
	note A_, 5
	note __, 1
	note F#, 5
	note __, 13
	note F#, 5
	note __, 1
	octave 6
	note F_, 5
	note __, 13
	note F_, 5
	note __, 1
	octave 5
	note G#, 5
	note __, 13
	note G#, 5
	note __, 1
	note B_, 5
	note __, 13
	note B_, 5
	note __, 1
	note G#, 5
	note __, 13
	note G#, 5
	note __, 1
	octave 6
	note F_, 5
	note __, 13
	note F_, 5
	note __, 1
	octave 5
	note G#, 5
	note __, 13
	note G#, 5
	note __, 1
	note B_, 5
	note __, 13
	note B_, 5
	note __, 1
	note G#, 5
	note __, 13
	note G#, 5
	note __, 1
	octave 6
	note F_, 5
	note __, 13
	note F_, 5
	note __, 1
	octave 5
	note G#, 5
	note __, 13
	note G#, 5
	note __, 1
	note B_, 5
	note __, 13
	note B_, 5
	note __, 1
	note G#, 5
	note __, 13
	note G#, 5
	note __, 1
	octave 6
	note F_, 5
	note __, 13
	note F_, 5
	note __, 1
	octave 5
	note G#, 5
	note __, 13
	note G#, 5
	note __, 1
	note B_, 5
	note __, 13
	note B_, 5
	note __, 1
	note G#, 5
	note __, 13
	note G#, 5
	note __, 1
	octave 6
	note D#, 5
	note __, 13
	note D#, 5
	note __, 1
	octave 5
	note F#, 5
	note __, 13
	note F#, 5
	note __, 1
	note A_, 5
	note __, 13
	note A_, 5
	note __, 1
	note F#, 5
	note __, 13
	note F#, 5
	note __, 1
	octave 6
	note D#, 5
	note __, 13
	note D#, 5
	note __, 1
	octave 5
	note F#, 5
	note __, 13
	note F#, 5
	note __, 1
	note A_, 5
	note __, 13
	note A_, 5
	note __, 1
	note F#, 5
	note __, 13
	note F#, 5
	note __, 1
	octave 6
	note D#, 5
	note __, 13
	note D#, 5
	note __, 1
	octave 5
	note F#, 5
	note __, 13
	note F#, 5
	note __, 1
	note A_, 5
	note __, 13
	note A_, 5
	note __, 1
	note F#, 5
	note __, 13
	note F#, 5
	note __, 1
	octave 6
	note D#, 5
	note __, 13
	note D#, 5
	note __, 1
	octave 5
	note F#, 5
	note __, 13
	note F#, 5
	note __, 1
	note A_, 5
	note __, 13
	note A_, 5
	note __, 1
	note F#, 5
	note __, 13
	note F#, 5
	note __, 1
	octave 6
	note F_, 5
	note __, 13
	note F_, 5
	note __, 1
	octave 5
	note G#, 5
	note __, 13
	note G#, 5
	note __, 1
	note B_, 5
	note __, 13
	note B_, 5
	note __, 1
	note G#, 5
	note __, 13
	note G#, 5
	note __, 1
	octave 6
	note F_, 5
	note __, 13
	note F_, 5
	note __, 1
	octave 5
	note G#, 5
	note __, 13
	note G#, 5
	note __, 1
	note B_, 5
	note __, 13
	note B_, 5
	note __, 1
	note G#, 5
	note __, 13
	note G#, 5
	note __, 1
	octave 6
	note F_, 5
	note __, 13
	note F_, 5
	note __, 1
	octave 5
	note G#, 5
	note __, 13
	note G#, 5
	note __, 1
	note B_, 5
	note __, 13
	note B_, 5
	note __, 1
	note G#, 5
	note __, 13
	note G#, 5
	note __, 1
	octave 6
	note F_, 5
	note __, 13
	note F_, 5
	note __, 1
	octave 5
	note G#, 5
	note __, 13
	note G#, 5
	note __, 1
	note B_, 5
	note __, 13
	note B_, 5
	note __, 1
	note G#, 5
	note __, 13
	note G#, 5
	note __, 1
	endchannel
Music_EmeraldDrought_Ch1::
	vibrato 0, (0<<4) + 0
	dutycycle 0
	notetype 1, (10<<4) + 0
	callchannel Music_EmeraldDrought_Ch1_sub_0
	callchannel Music_EmeraldDrought_Ch1_sub_0
	octave 6
	note D#, 1
	endchannel
Music_EmeraldDrought_Ch2_sub_0::
	octave 6
	note D#, 5
	notetype 12, (10<<4) + 0
	note __, 1
	notetype 1, (10<<4) + 0
	note __, 7
	octave 5
	note F#, 5
	notetype 12, (10<<4) + 0
	note __, 1
	notetype 1, (10<<4) + 0
	note __, 7
	note A_, 5
	notetype 12, (10<<4) + 0
	note __, 1
	notetype 1, (10<<4) + 0
	note __, 7
	note F#, 5
	notetype 12, (10<<4) + 0
	note __, 1
	notetype 1, (10<<4) + 0
	note __, 7
	octave 6
	note D#, 5
	notetype 12, (10<<4) + 0
	note __, 1
	notetype 1, (10<<4) + 0
	note __, 7
	octave 5
	note F#, 5
	notetype 12, (10<<4) + 0
	note __, 1
	notetype 1, (10<<4) + 0
	note __, 7
	note A_, 5
	notetype 12, (10<<4) + 0
	note __, 1
	notetype 1, (10<<4) + 0
	note __, 7
	note F#, 5
	notetype 12, (10<<4) + 0
	note __, 1
	notetype 1, (10<<4) + 0
	note __, 7
	octave 6
	note D#, 5
	notetype 12, (10<<4) + 0
	note __, 1
	notetype 1, (10<<4) + 0
	note __, 7
	octave 5
	note F#, 5
	notetype 12, (10<<4) + 0
	note __, 1
	notetype 1, (10<<4) + 0
	note __, 7
	note A_, 5
	notetype 12, (10<<4) + 0
	note __, 1
	notetype 1, (10<<4) + 0
	note __, 7
	note F#, 5
	notetype 12, (10<<4) + 0
	note __, 1
	notetype 1, (10<<4) + 0
	note __, 7
	octave 6
	note D#, 5
	notetype 12, (10<<4) + 0
	note __, 1
	notetype 1, (10<<4) + 0
	note __, 7
	octave 5
	note F#, 5
	notetype 12, (10<<4) + 0
	note __, 1
	notetype 1, (10<<4) + 0
	note __, 7
	note A_, 5
	notetype 12, (10<<4) + 0
	note __, 1
	notetype 1, (10<<4) + 0
	note __, 7
	note F#, 5
	notetype 12, (10<<4) + 0
	note __, 1
	notetype 1, (10<<4) + 0
	note __, 7
	octave 6
	note F_, 5
	notetype 12, (10<<4) + 0
	note __, 1
	notetype 1, (10<<4) + 0
	note __, 7
	octave 5
	note G#, 5
	notetype 12, (10<<4) + 0
	note __, 1
	notetype 1, (10<<4) + 0
	note __, 7
	note B_, 5
	notetype 12, (10<<4) + 0
	note __, 1
	notetype 1, (10<<4) + 0
	note __, 7
	note G#, 5
	notetype 12, (10<<4) + 0
	note __, 1
	notetype 1, (10<<4) + 0
	note __, 7
	octave 6
	note F_, 5
	notetype 12, (10<<4) + 0
	note __, 1
	notetype 1, (10<<4) + 0
	note __, 7
	octave 5
	note G#, 5
	notetype 12, (10<<4) + 0
	note __, 1
	notetype 1, (10<<4) + 0
	note __, 7
	note B_, 5
	notetype 12, (10<<4) + 0
	note __, 1
	notetype 1, (10<<4) + 0
	note __, 7
	note G#, 5
	notetype 12, (10<<4) + 0
	note __, 1
	notetype 1, (10<<4) + 0
	note __, 7
	octave 6
	note F_, 5
	notetype 12, (10<<4) + 0
	note __, 1
	notetype 1, (10<<4) + 0
	note __, 7
	octave 5
	note G#, 5
	notetype 12, (10<<4) + 0
	note __, 1
	notetype 1, (10<<4) + 0
	note __, 7
	note B_, 5
	notetype 12, (10<<4) + 0
	note __, 1
	notetype 1, (10<<4) + 0
	note __, 7
	note G#, 5
	notetype 12, (10<<4) + 0
	note __, 1
	notetype 1, (10<<4) + 0
	note __, 7
	octave 6
	note F_, 5
	notetype 12, (10<<4) + 0
	note __, 1
	notetype 1, (10<<4) + 0
	note __, 7
	octave 5
	note G#, 5
	notetype 12, (10<<4) + 0
	note __, 1
	notetype 1, (10<<4) + 0
	note __, 7
	note B_, 5
	notetype 12, (10<<4) + 0
	note __, 1
	notetype 1, (10<<4) + 0
	note __, 7
	note G#, 5
	notetype 12, (10<<4) + 0
	note __, 1
	notetype 1, (10<<4) + 0
	note __, 7
	octave 6
	note D#, 5
	notetype 12, (10<<4) + 0
	note __, 1
	notetype 1, (10<<4) + 0
	note __, 7
	octave 5
	note F#, 5
	notetype 12, (10<<4) + 0
	note __, 1
	notetype 1, (10<<4) + 0
	note __, 7
	note A_, 5
	notetype 12, (10<<4) + 0
	note __, 1
	notetype 1, (10<<4) + 0
	note __, 7
	note F#, 5
	notetype 12, (10<<4) + 0
	note __, 1
	notetype 1, (10<<4) + 0
	note __, 7
	octave 6
	note D#, 5
	notetype 12, (10<<4) + 0
	note __, 1
	notetype 1, (10<<4) + 0
	note __, 7
	octave 5
	note F#, 5
	notetype 12, (10<<4) + 0
	note __, 1
	notetype 1, (10<<4) + 0
	note __, 7
	note A_, 5
	notetype 12, (10<<4) + 0
	note __, 1
	notetype 1, (10<<4) + 0
	note __, 7
	note F#, 5
	notetype 12, (10<<4) + 0
	note __, 1
	notetype 1, (10<<4) + 0
	note __, 7
	octave 6
	note D#, 5
	notetype 12, (10<<4) + 0
	note __, 1
	notetype 1, (10<<4) + 0
	note __, 7
	octave 5
	note F#, 5
	notetype 12, (10<<4) + 0
	note __, 1
	notetype 1, (10<<4) + 0
	note __, 7
	note A_, 5
	notetype 12, (10<<4) + 0
	note __, 1
	notetype 1, (10<<4) + 0
	note __, 7
	note F#, 5
	notetype 12, (10<<4) + 0
	note __, 1
	notetype 1, (10<<4) + 0
	note __, 7
	octave 6
	note D#, 5
	notetype 12, (10<<4) + 0
	note __, 1
	notetype 1, (10<<4) + 0
	note __, 7
	octave 5
	note F#, 5
	notetype 12, (10<<4) + 0
	note __, 1
	notetype 1, (10<<4) + 0
	note __, 7
	note A_, 5
	notetype 12, (10<<4) + 0
	note __, 1
	notetype 1, (10<<4) + 0
	note __, 7
	note F#, 5
	notetype 12, (10<<4) + 0
	note __, 1
	notetype 1, (10<<4) + 0
	note __, 7
	octave 6
	note F_, 5
	notetype 12, (10<<4) + 0
	note __, 1
	notetype 1, (10<<4) + 0
	note __, 7
	octave 5
	note G#, 5
	notetype 12, (10<<4) + 0
	note __, 1
	notetype 1, (10<<4) + 0
	note __, 7
	note B_, 5
	notetype 12, (10<<4) + 0
	note __, 1
	notetype 1, (10<<4) + 0
	note __, 7
	note G#, 5
	notetype 12, (10<<4) + 0
	note __, 1
	notetype 1, (10<<4) + 0
	note __, 7
	octave 6
	note F_, 5
	notetype 12, (10<<4) + 0
	note __, 1
	notetype 1, (10<<4) + 0
	note __, 7
	octave 5
	note G#, 5
	notetype 12, (10<<4) + 0
	note __, 1
	notetype 1, (10<<4) + 0
	note __, 7
	note B_, 5
	notetype 12, (10<<4) + 0
	note __, 1
	notetype 1, (10<<4) + 0
	note __, 7
	note G#, 5
	notetype 12, (10<<4) + 0
	note __, 1
	notetype 1, (10<<4) + 0
	note __, 7
	octave 6
	note F_, 5
	notetype 12, (10<<4) + 0
	note __, 1
	notetype 1, (10<<4) + 0
	note __, 7
	octave 5
	note G#, 5
	notetype 12, (10<<4) + 0
	note __, 1
	notetype 1, (10<<4) + 0
	note __, 7
	note B_, 5
	notetype 12, (10<<4) + 0
	note __, 1
	notetype 1, (10<<4) + 0
	note __, 7
	note G#, 5
	notetype 12, (10<<4) + 0
	note __, 1
	notetype 1, (10<<4) + 0
	note __, 7
	octave 6
	note F_, 5
	notetype 12, (10<<4) + 0
	note __, 1
	notetype 1, (10<<4) + 0
	note __, 7
	octave 5
	note G#, 5
	notetype 12, (10<<4) + 0
	note __, 1
	notetype 1, (10<<4) + 0
	note __, 7
	note B_, 5
	notetype 12, (10<<4) + 0
	note __, 1
	notetype 1, (10<<4) + 0
	note __, 7
	note G#, 5
	notetype 12, (10<<4) + 0
	note __, 1
	notetype 1, (10<<4) + 0
	note __, 7
	octave 6
	note D#, 5
	note __, 13
	note D#, 5
	note __, 1
	octave 5
	note F#, 5
	note __, 13
	note F#, 5
	note __, 1
	note A_, 5
	note __, 13
	note A_, 5
	note __, 1
	note F#, 5
	note __, 13
	note F#, 5
	note __, 1
	octave 6
	note D#, 5
	note __, 13
	note D#, 5
	note __, 1
	octave 5
	note F#, 5
	note __, 13
	note F#, 5
	note __, 1
	note A_, 5
	note __, 13
	note A_, 5
	note __, 1
	note F#, 5
	note __, 13
	note F#, 5
	note __, 1
	octave 6
	note D#, 5
	note __, 13
	note D#, 5
	note __, 1
	octave 5
	note F#, 5
	note __, 13
	note F#, 5
	note __, 1
	note A_, 5
	note __, 13
	note A_, 5
	note __, 1
	note F#, 5
	note __, 13
	note F#, 5
	note __, 1
	octave 6
	note D#, 5
	note __, 13
	note D#, 5
	note __, 1
	octave 5
	note F#, 5
	note __, 13
	note F#, 5
	note __, 1
	note A_, 5
	note __, 13
	note A_, 5
	note __, 1
	note F#, 5
	note __, 13
	note F#, 5
	note __, 1
	octave 6
	note F_, 5
	note __, 13
	note F_, 5
	note __, 1
	octave 5
	note G#, 5
	note __, 13
	note G#, 5
	note __, 1
	note B_, 5
	note __, 13
	note B_, 5
	note __, 1
	note G#, 5
	note __, 13
	note G#, 5
	note __, 1
	octave 6
	note F_, 5
	note __, 13
	note F_, 5
	note __, 1
	octave 5
	note G#, 5
	note __, 13
	note G#, 5
	note __, 1
	note B_, 5
	note __, 13
	note B_, 5
	note __, 1
	note G#, 5
	note __, 13
	note G#, 5
	note __, 1
	octave 6
	note F_, 5
	note __, 13
	note F_, 5
	note __, 1
	octave 5
	note G#, 5
	note __, 13
	note G#, 5
	note __, 1
	note B_, 5
	note __, 13
	note B_, 5
	note __, 1
	note G#, 5
	note __, 13
	note G#, 5
	note __, 1
	octave 6
	note F_, 5
	note __, 13
	note F_, 5
	note __, 1
	octave 5
	note G#, 5
	note __, 13
	note G#, 5
	note __, 1
	note B_, 5
	note __, 13
	note B_, 5
	note __, 1
	note G#, 5
	note __, 13
	note G#, 5
	note __, 5
	octave 6
	note D#, 5
	note __, 13
	note D#, 5
	note __, 1
	octave 5
	note F#, 5
	note __, 13
	note F#, 5
	note __, 1
	note A_, 5
	note __, 13
	note A_, 5
	note __, 1
	note F#, 5
	note __, 13
	note F#, 5
	note __, 1
	octave 6
	note D#, 5
	note __, 13
	note D#, 5
	note __, 1
	octave 5
	note F#, 5
	note __, 13
	note F#, 5
	note __, 1
	note A_, 5
	note __, 13
	note A_, 5
	note __, 1
	note F#, 5
	note __, 13
	note F#, 5
	note __, 1
	octave 6
	note D#, 5
	note __, 13
	note D#, 5
	note __, 1
	octave 5
	note F#, 5
	note __, 13
	note F#, 5
	note __, 1
	note A_, 5
	note __, 13
	note A_, 5
	note __, 1
	note F#, 5
	note __, 13
	note F#, 5
	note __, 1
	octave 6
	note D#, 5
	note __, 13
	note D#, 5
	note __, 1
	octave 5
	note F#, 5
	note __, 13
	note F#, 5
	note __, 1
	note A_, 5
	note __, 13
	note A_, 5
	note __, 1
	note F#, 5
	note __, 13
	note F#, 5
	note __, 1
	octave 6
	note F_, 5
	note __, 13
	note F_, 5
	note __, 1
	octave 5
	note G#, 5
	note __, 13
	note G#, 5
	note __, 1
	note B_, 5
	note __, 13
	note B_, 5
	note __, 1
	note G#, 5
	note __, 13
	note G#, 5
	note __, 1
	octave 6
	note F_, 5
	note __, 13
	note F_, 5
	note __, 1
	octave 5
	note G#, 5
	note __, 13
	note G#, 5
	note __, 1
	note B_, 5
	note __, 13
	note B_, 5
	note __, 1
	note G#, 5
	note __, 13
	note G#, 5
	note __, 1
	octave 6
	note F_, 5
	note __, 13
	note F_, 5
	note __, 1
	octave 5
	note G#, 5
	note __, 13
	note G#, 5
	note __, 1
	note B_, 5
	note __, 13
	note B_, 5
	note __, 1
	note G#, 5
	note __, 13
	note G#, 5
	note __, 1
	octave 6
	note F_, 5
	note __, 13
	note F_, 5
	note __, 1
	octave 5
	note G#, 5
	note __, 13
	note G#, 5
	note __, 1
	note B_, 5
	note __, 13
	note B_, 5
	note __, 1
	note G#, 5
	endchannel
Music_EmeraldDrought_Ch2::
	vibrato 0, (0<<4) + 0
	dutycycle 0
	notetype 1, (10<<4) + 0
	callchannel Music_EmeraldDrought_Ch2_sub_0
	note __, 15
	callchannel Music_EmeraldDrought_Ch2_sub_0
	endchannel
Music_EmeraldDrought_Ch3_sub_0::
	note D_, 15
	notetype 4, (10<<4) + 0
	note __, 1
	notetype 1, (10<<4) + 0
	note C_, 3
	note __, 1
	note C#, 3
	note __, 1
	notetype 12, (10<<4) + 0
	note D_, 15
	notetype 4, (10<<4) + 0
	note __, 1
	notetype 1, (10<<4) + 0
	note D#, 7
	note __, 1
	notetype 12, (10<<4) + 0
	note E_, 15
	notetype 4, (10<<4) + 0
	note __, 1
	notetype 1, (10<<4) + 0
	note F#, 3
	note __, 1
	note F_, 3
	note __, 1
	notetype 12, (10<<4) + 0
	note E_, 7
	notetype 4, (10<<4) + 0
	note __, 1
	notetype 1, (10<<4) + 0
	note D_, 3
	note __, 1
	note D#, 3
	note __, 1
	notetype 8, (10<<4) + 0
	note E_, 11
	endchannel
Music_EmeraldDrought_Ch3::
	vibrato 0, (0<<4) + 0
	notetype 12, (10<<4) + 0
	octave 2
	callchannel Music_EmeraldDrought_Ch3_sub_0
	note __, 1
	notetype 12, (10<<4) + 0
	callchannel Music_EmeraldDrought_Ch3_sub_0
	note __, 1
	notetype 12, (10<<4) + 0
	callchannel Music_EmeraldDrought_Ch3_sub_0
	note __, 1
	notetype 12, (10<<4) + 0
	callchannel Music_EmeraldDrought_Ch3_sub_0
	note __, 1
	notetype 12, (10<<4) + 0
	callchannel Music_EmeraldDrought_Ch3_sub_0
	note __, 1
	notetype 12, (10<<4) + 0
	callchannel Music_EmeraldDrought_Ch3_sub_0
	note __, 1
	notetype 12, (10<<4) + 0
	callchannel Music_EmeraldDrought_Ch3_sub_0
	note __, 1
	notetype 12, (10<<4) + 0
	callchannel Music_EmeraldDrought_Ch3_sub_0
	endchannel

Music_EmeraldDrought_Ch4::
	endchannel
