Music_EmeraldHeavyRain::
	    dbw $C0, Music_EmeraldHeavyRain_Ch1
	    dbw $01, Music_EmeraldHeavyRain_Ch2
	    dbw $02, Music_EmeraldHeavyRain_Ch3
	    dbw $03, Music_EmeraldHeavyRain_Ch4

    
Music_EmeraldHeavyRain_Ch3_sub_0::
	note B_, 16
	notetype 12, (10<<4) + 0
	note __, 12
	notetype 15, (10<<4) + 0
	note A#, 16
	notetype 12, (10<<4) + 0
	note __, 12
	notetype 15, (10<<4) + 0
	endchannel
Music_EmeraldHeavyRain_Ch3::
	notetype 12, (0<<4) + 0
	note __, 4
	vibrato 0, (0<<4) + 0
	notetype 15, (10<<4) + 0
	octave 4
	note A#, 16
	notetype 12, (10<<4) + 0
	note __, 12
	notetype 15, (10<<4) + 0
	callchannel Music_EmeraldHeavyRain_Ch3_sub_0
	callchannel Music_EmeraldHeavyRain_Ch3_sub_0
	callchannel Music_EmeraldHeavyRain_Ch3_sub_0
	callchannel Music_EmeraldHeavyRain_Ch3_sub_0
	callchannel Music_EmeraldHeavyRain_Ch3_sub_0
	callchannel Music_EmeraldHeavyRain_Ch3_sub_0
	callchannel Music_EmeraldHeavyRain_Ch3_sub_0
	note B_, 16
	endchannel
Music_EmeraldHeavyRain_Ch4_sub_0::
	note C_, 7
	notetype 12
	note __, 3
	notetype 1
	note __, 5
	note C_, 7
	notetype 12
	note __, 3
	notetype 1
	note __, 5
	note C_, 7
	notetype 5
	note __, 5
	notetype 1
	note C_, 7
	notetype 12
	note __, 3
	notetype 1
	note __, 5
	note C_, 7
	note __, 9
	note C_, 7
	notetype 12
	note __, 3
	notetype 1
	note __, 5
	note C_, 7
	notetype 12
	note __, 3
	notetype 1
	note __, 5
	note C_, 7
	notetype 5
	note __, 5
	notetype 1
	note C_, 7
	notetype 5
	note __, 5
	notetype 1
	note C_, 7
	note __, 9
	note C_, 7
	note __, 9
	note C_, 7
	notetype 12
	note __, 3
	notetype 1
	note __, 5
	note C_, 7
	notetype 12
	note __, 3
	notetype 1
	note __, 5
	note C_, 7
	notetype 5
	note __, 5
	notetype 1
	note C_, 7
	notetype 5
	note __, 5
	notetype 1
	note C_, 7
	note __, 9
	note C_, 7
	note __, 9
	note C_, 7
	notetype 12
	note __, 3
	notetype 1
	note __, 5
	note C_, 7
	notetype 12
	note __, 3
	notetype 1
	note __, 5
	note C_, 7
	notetype 5
	note __, 5
	notetype 1
	note C_, 7
	notetype 5
	note __, 5
	notetype 1
	note C_, 7
	note __, 9
	note C_, 7
	endchannel
Music_EmeraldHeavyRain_Ch4::
	notetype 12
	note __, 4
	notetype 1
	callchannel Music_EmeraldHeavyRain_Ch4_sub_0
	note __, 9
	callchannel Music_EmeraldHeavyRain_Ch4_sub_0
	note __, 9
	callchannel Music_EmeraldHeavyRain_Ch4_sub_0
	note __, 9
	callchannel Music_EmeraldHeavyRain_Ch4_sub_0
	note __, 9
	callchannel Music_EmeraldHeavyRain_Ch4_sub_0
	note __, 9
	callchannel Music_EmeraldHeavyRain_Ch4_sub_0
	note __, 9
	callchannel Music_EmeraldHeavyRain_Ch4_sub_0
	note __, 9
	callchannel Music_EmeraldHeavyRain_Ch4_sub_0
	endchannel
Music_EmeraldHeavyRain_Ch1_sub_0::
	note __, 1
	note D_, 5
	notetype 1, (10<<4) + 0
	note __, 1
	note D#, 7
	note __, 9
	note D#, 7
	note __, 9
	note D_, 15
	note __, 1
	note D#, 7
	note __, 9
	note D#, 7
	note __, 9
	notetype 2, (10<<4) + 0
	note D#, 11
	note __, 5
	notetype 1, (10<<4) + 0
	note D#, 7
	notetype 5, (10<<4) + 0
	note __, 5
	octave 2
	note D#, 3
	notetype 1, (10<<4) + 0
	note __, 1
	octave 1
	note D_, 7
	note __, 9
	note D#, 15
	note __, 1
	note D#, 7
	note __, 9
	note D#, 7
	note __, 9
	note D_, 7
	note __, 9
	note D#, 7
	note __, 9
	note D#, 7
	note __, 9
	note D_, 7
	note __, 9
	note D#, 3
	note __, 5
	note D#, 3
	note __, 5
	note D#, 7
	note __, 9
	note D_, 15
	note __, 1
	note D#, 7
	note __, 9
	note D#, 7
	note __, 9
	note D#, 15
	note __, 1
	note E_, 7
	note __, 9
	note E_, 7
	note __, 9
	note D#, 15
	note __, 1
	note E_, 7
	note __, 9
	note E_, 7
	note __, 9
	note E_, 15
	notetype 12, (10<<4) + 0
	note __, 1
	notetype 1, (10<<4) + 0
	note __, 5
	note E_, 7
	notetype 5, (10<<4) + 0
	note __, 5
	octave 2
	note E_, 3
	notetype 1, (10<<4) + 0
	note __, 1
	octave 1
	note E_, 7
	note __, 9
	note E_, 15
	note __, 1
	note E_, 7
	note __, 9
	note E_, 7
	note __, 9
	note D#, 7
	note __, 9
	note E_, 7
	note __, 9
	note E_, 7
	note __, 9
	note D#, 7
	note __, 9
	note E_, 3
	note __, 5
	note E_, 3
	note __, 5
	note E_, 7
	note __, 9
	notetype 3, (10<<4) + 0
	note E_, 15
	endchannel
Music_EmeraldHeavyRain_Ch1::
	tempo 150
	vibrato 0, (0<<4) + 0
	dutycycle 0
	notetype 3, (10<<4) + 0
	octave 1
	note A_, 15
	callchannel Music_EmeraldHeavyRain_Ch1_sub_0
	callchannel Music_EmeraldHeavyRain_Ch1_sub_0
	callchannel Music_EmeraldHeavyRain_Ch1_sub_0
	callchannel Music_EmeraldHeavyRain_Ch1_sub_0
	callchannel Music_EmeraldHeavyRain_Ch1_sub_0
	callchannel Music_EmeraldHeavyRain_Ch1_sub_0
	callchannel Music_EmeraldHeavyRain_Ch1_sub_0
	callchannel Music_EmeraldHeavyRain_Ch1_sub_0
	endchannel
Music_EmeraldHeavyRain_Ch2_sub_0::
	note D_, 5
	notetype 1, (10<<4) + 0
	note __, 1
	note D#, 7
	note __, 9
	note D#, 7
	note __, 9
	note D_, 15
	note __, 1
	note D#, 7
	note __, 9
	note D#, 7
	note __, 9
	notetype 2, (10<<4) + 0
	note D#, 11
	note __, 5
	notetype 1, (10<<4) + 0
	note D#, 7
	notetype 5, (10<<4) + 0
	note __, 5
	octave 2
	note D#, 3
	notetype 1, (10<<4) + 0
	note __, 1
	octave 1
	note D_, 7
	note __, 9
	note D#, 15
	note __, 1
	note D#, 7
	note __, 9
	note D#, 7
	note __, 9
	note D_, 7
	note __, 9
	note D#, 7
	note __, 9
	note D#, 7
	note __, 9
	note D_, 7
	note __, 9
	note D#, 3
	note __, 5
	note D#, 3
	note __, 5
	note D#, 7
	note __, 9
	note D_, 15
	note __, 1
	note D#, 7
	note __, 9
	note D#, 7
	note __, 9
	note D#, 15
	note __, 1
	note E_, 7
	note __, 9
	note E_, 7
	note __, 9
	note D#, 15
	note __, 1
	note E_, 7
	note __, 9
	note E_, 7
	note __, 9
	note E_, 15
	notetype 12, (10<<4) + 0
	note __, 1
	notetype 1, (10<<4) + 0
	note __, 5
	note E_, 7
	notetype 5, (10<<4) + 0
	note __, 5
	octave 2
	note E_, 3
	notetype 1, (10<<4) + 0
	note __, 1
	octave 1
	note E_, 7
	note __, 9
	note E_, 15
	note __, 1
	note E_, 7
	note __, 9
	note E_, 7
	note __, 9
	note D#, 7
	note __, 9
	note E_, 7
	note __, 9
	note E_, 7
	note __, 9
	note D#, 7
	note __, 9
	note E_, 3
	note __, 5
	note E_, 3
	note __, 5
	note E_, 7
	note __, 9
	notetype 3, (10<<4) + 0
	note E_, 15
	note __, 1
	octave 4
	note A#, 10
	notetype 1, (10<<4) + 0
	note __, 2
	octave 5
	note C#, 7
	note __, 9
	note C_, 7
	notetype 5, (10<<4) + 0
	note __, 5
	notetype 1, (10<<4) + 0
	octave 4
	note A_, 7
	note __, 9
	note D#, 7
	note __, 9
	note D_, 7
	note __, 9
	octave 5
	note F#, 7
	notetype 5, (10<<4) + 0
	note __, 5
	notetype 1, (10<<4) + 0
	octave 4
	note A_, 7
	note __, 9
	note A#, 7
	note __, 9
	notetype 12, (10<<4) + 0
	note D#, 6
	notetype 8, (10<<4) + 0
	note __, 1
	notetype 1, (10<<4) + 0
	note D_, 7
	note __, 1
	note D#, 7
	note __, 1
	notetype 3, (10<<4) + 0
	note F#, 15
	note __, 1
	note G#, 15
	note __, 1
	note B_, 5
	notetype 1, (10<<4) + 0
	note __, 1
	note A#, 7
	note __, 9
	note F#, 7
	note __, 9
	note G#, 15
	note __, 1
	note B_, 7
	note __, 9
	note A#, 7
	note __, 9
	octave 5
	note F#, 7
	note __, 9
	note G#, 7
	notetype 5, (10<<4) + 0
	note __, 5
	notetype 1, (10<<4) + 0
	octave 4
	note F#, 7
	note __, 9
	note F#, 7
	note __, 9
	note F#, 7
	note __, 9
	notetype 9, (10<<4) + 0
	note D#, 9
	notetype 1, (10<<4) + 0
	note __, 3
	note D_, 7
	note __, 1
	note D#, 4
	notetype 3, (10<<4) + 0
	note F#, 15
	note __, 1
	note G#, 15
	note __, 1
	octave 1
	note D_, 5
	notetype 1, (10<<4) + 0
	note __, 1
	note D#, 7
	note __, 9
	note D#, 7
	note __, 9
	note D_, 15
	note __, 1
	note D#, 7
	note __, 9
	note D#, 7
	note __, 9
	notetype 2, (10<<4) + 0
	note D#, 11
	note __, 5
	notetype 1, (10<<4) + 0
	note D#, 7
	notetype 5, (10<<4) + 0
	note __, 5
	octave 2
	note D#, 3
	notetype 1, (10<<4) + 0
	note __, 1
	octave 1
	note D_, 7
	note __, 9
	note D#, 15
	note __, 1
	note D#, 7
	note __, 9
	note D#, 7
	note __, 9
	note D_, 7
	note __, 9
	note D#, 7
	note __, 9
	note D#, 7
	note __, 9
	note D_, 7
	note __, 9
	note D#, 3
	note __, 5
	note D#, 3
	note __, 5
	note D#, 7
	note __, 9
	note D_, 15
	note __, 1
	note D#, 7
	note __, 9
	note D#, 7
	note __, 9
	note D#, 15
	note __, 1
	note E_, 7
	note __, 9
	note E_, 7
	note __, 9
	note D#, 15
	note __, 1
	note E_, 7
	note __, 9
	note E_, 7
	note __, 9
	note E_, 15
	notetype 12, (10<<4) + 0
	note __, 1
	notetype 1, (10<<4) + 0
	note __, 5
	note E_, 7
	notetype 5, (10<<4) + 0
	note __, 5
	octave 2
	note E_, 3
	notetype 1, (10<<4) + 0
	note __, 1
	octave 1
	note E_, 7
	note __, 9
	note E_, 15
	note __, 1
	note E_, 7
	note __, 9
	note E_, 7
	note __, 9
	note D#, 7
	note __, 9
	note E_, 7
	note __, 9
	note E_, 7
	note __, 9
	note D#, 7
	note __, 9
	note E_, 3
	note __, 5
	note E_, 3
	note __, 5
	note E_, 7
	note __, 9
	notetype 3, (10<<4) + 0
	note E_, 15
	note __, 1
	octave 3
	note A#, 10
	notetype 1, (10<<4) + 0
	note __, 2
	octave 4
	note C#, 7
	note __, 9
	note C_, 7
	notetype 5, (10<<4) + 0
	note __, 5
	notetype 1, (10<<4) + 0
	octave 3
	note A_, 7
	note __, 9
	note D#, 7
	note __, 9
	note D_, 7
	note __, 9
	octave 4
	note F#, 7
	notetype 5, (10<<4) + 0
	note __, 5
	notetype 1, (10<<4) + 0
	octave 3
	note A_, 7
	note __, 9
	note A#, 7
	note __, 9
	notetype 12, (10<<4) + 0
	note D#, 6
	notetype 8, (10<<4) + 0
	note __, 1
	notetype 1, (10<<4) + 0
	note D_, 7
	note __, 1
	note D#, 7
	note __, 1
	notetype 3, (10<<4) + 0
	note F#, 15
	note __, 1
	note G#, 15
	note __, 1
	note B_, 5
	notetype 1, (10<<4) + 0
	note __, 1
	note A#, 7
	note __, 9
	note F#, 7
	note __, 9
	note G#, 15
	note __, 1
	note B_, 7
	note __, 9
	note A#, 7
	note __, 9
	octave 4
	note F#, 7
	note __, 9
	note G#, 7
	notetype 5, (10<<4) + 0
	note __, 5
	notetype 1, (10<<4) + 0
	octave 3
	note F#, 7
	note __, 9
	note F#, 7
	note __, 9
	note F#, 7
	note __, 9
	notetype 9, (10<<4) + 0
	note D#, 9
	notetype 1, (10<<4) + 0
	note __, 3
	note D_, 7
	note __, 1
	note D#, 4
	notetype 3, (10<<4) + 0
	note F#, 15
	note __, 1
	note G#, 15
	endchannel
Music_EmeraldHeavyRain_Ch2::
	vibrato 0, (0<<4) + 0
	dutycycle 0
	notetype 3, (10<<4) + 0
	octave 1
	note A_, 15
	note __, 1
	callchannel Music_EmeraldHeavyRain_Ch2_sub_0
	note __, 1
	octave 1
	callchannel Music_EmeraldHeavyRain_Ch2_sub_0
	endchannel
