Music_SinnohBike:
	dbw $C0, Music_SinnohBike_Ch1
	dbw $01, Music_SinnohBike_Ch2
	dbw $02, Music_SinnohBike_Ch3
	dbw $03, Music_SinnohBike_Ch4

Music_SinnohBike_Ch1:
Music_SinnohBike_Ch1_loop:
	tempo $68
	volume $77
	notetype $6, $81
	dutycycle 1
	octave 5
	note A#, 1
	octave 6
	note A#, 3
	octave 5
	note A#, 1
	octave 6
	note A#, 1
	octave 5
	note A#, 1
	octave 6
	note A#, 1
	octave 5
	note A#, 5
	note A#, 1
	octave 6
	note A#, 3
	octave 5
	note A#, 1
	octave 6
	note A#, 1
	octave 5
	note A#, 1
	octave 6
	note A#, 1
	octave 5
	note A#, 11
	intensity $A1
	dutycycle 2
	octave 3
	note F#, 2
	octave 4
	note F#, 2
	intensity $81
	octave 3
	note F#, 2
	octave 4
	note F#, 2
	intensity $61
	octave 3
	note F#, 2
	octave 4
	note F#, 2
	intensity $A1
	octave 3
	note A#, 2
	octave 4
	note A#, 2
	intensity $81
	octave 3
	note A#, 2
	octave 4
	note A#, 2
	intensity $A1
	note C#, 2
	octave 5
	note C#, 2
	intensity $81
	octave 4
	note C#, 2
	octave 5
	note C#, 2
	intensity $A1
	octave 4
	note F#, 2
	octave 5
	note F#, 2
	intensity $81
	octave 4
	note F#, 2
	octave 5
	note F#, 2
	intensity $61
	octave 4
	note F#, 2
	octave 5
	note F#, 2
	intensity $81
	octave 6
	note F#, 1
	note D#, 1
	note C#, 1
	octave 5
	note A#, 1
	note F#, 1
	note D#, 1
	note C#, 1
	octave 4
	note A#, 1
	notetype $8, $81
	octave 3
	note B_, 1
	octave 4
	note B_, 1
	note D#, 1
	octave 5
	note D#, 1
	octave 4
	note F#, 1
	octave 5
	note F#, 1
	octave 4
	note A#, 1
	octave 5
	note A#, 1
	note C#, 1
	octave 6
	note C#, 1
	octave 5
	note D#, 1
	octave 6
	note D#, 1
	note C#, 1
	octave 5
	note D#, 1
	octave 6
	note D#, 1
	note C#, 1
	intensity $71
	octave 5
	note D#, 1
	octave 6
	note D#, 1
	note C#, 1
	intensity $61
	octave 5
	note D#, 1
	octave 6
	note D#, 1
	note C#, 1
	intensity $51
	octave 5
	note D#, 1
	octave 6
	note D#, 1
	note C#, 1
	intensity $41
	octave 5
	note D#, 1
	octave 6
	note D#, 1
	note C#, 1
	intensity $31
	octave 5
	note D#, 1
	octave 6
	note D#, 1
	intensity $A1
	octave 3
	note C#, 3
	note C#, 6
	note D#, 3
	note D#, 6
	note F#, 3
	note F#, 6
	note A#, 3
	note A#, 6
	notetype $6, $81
	octave 6
	note F#, 1
	note D#, 1
	note C#, 1
	octave 5
	note A#, 1
	note F#, 1
	note D#, 1
	note C#, 1
	octave 4
	note A#, 1
	notetype $8, $81
	note C#, 1
	octave 5
	note C#, 1
	octave 4
	note D#, 1
	octave 5
	note D#, 1
	octave 4
	note F#, 1
	octave 5
	note F#, 1
	octave 4
	note G#, 1
	octave 5
	note G#, 1
	octave 4
	note B_, 1
	octave 5
	note B_, 1
	note D#, 1
	octave 6
	note D#, 1
	octave 5
	note B_, 1
	intensity $71
	note D#, 1
	octave 6
	note D#, 1
	octave 5
	note B_, 1
	intensity $61
	note D#, 1
	octave 6
	note D#, 1
	octave 5
	note B_, 1
	intensity $51
	note D#, 1
	octave 6
	note D#, 1
	octave 5
	note B_, 1
	intensity $41
	note D#, 1
	octave 6
	note D#, 13
	notetype $C, $A1
	octave 3
	note G#, 1
	octave 4
	note G#, 1
	intensity $81
	octave 3
	note G#, 1
	octave 4
	note G#, 1
	intensity $61
	octave 3
	note G#, 1
	octave 4
	note G#, 1
	intensity $A1
	octave 3
	note B_, 1
	octave 4
	note B_, 1
	intensity $81
	octave 3
	note B_, 1
	octave 4
	note B_, 1
	intensity $A1
	note C#, 1
	octave 5
	note C#, 1
	intensity $81
	octave 4
	note C#, 1
	octave 5
	note C#, 1
	intensity $A1
	octave 4
	note F#, 1
	octave 5
	note F#, 1
	octave 4
	note C#, 1
	octave 5
	note C#, 1
	intensity $81
	octave 4
	note C#, 1
	octave 5
	note C#, 1
	intensity $61
	octave 4
	note C#, 1
	octave 5
	note C#, 16
	note __, 3
	intensity $A1
	octave 3
	note G#, 1
	octave 4
	note G#, 1
	note C#, 1
	octave 5
	note C#, 1
	octave 4
	note E_, 1
	octave 5
	note E_, 1
	octave 4
	note B_, 1
	octave 5
	note B_, 1
	octave 4
	note F#, 1
	octave 5
	note F#, 1
	intensity $81
	octave 4
	note B_, 1
	octave 5
	note B_, 1
	octave 4
	note F#, 1
	octave 5
	note F#, 1
	intensity $61
	octave 4
	note B_, 1
	octave 5
	note B_, 1
	octave 4
	note F#, 1
	octave 5
	note F#, 1
	intensity $41
	octave 4
	note B_, 1
	octave 5
	note B_, 1
	octave 4
	note F#, 1
	octave 5
	note F#, 7
	notetype $6, $81
	octave 6
	note G#, 1
	note E_, 1
	note C#, 1
	octave 5
	note B_, 1
	note G#, 1
	note E_, 1
	note C#, 1
	octave 4
	note B_, 1
	notetype $8, $81
	note C#, 1
	octave 5
	note C#, 1
	octave 4
	note E_, 1
	octave 5
	note E_, 1
	octave 4
	note G#, 1
	octave 5
	note G#, 1
	octave 4
	note B_, 1
	octave 5
	note B_, 1
	note C#, 1
	octave 6
	note C#, 1
	octave 5
	note E_, 1
	octave 6
	note E_, 1
	note C#, 1
	intensity $71
	octave 5
	note E_, 1
	octave 6
	note E_, 1
	note C#, 1
	intensity $61
	octave 5
	note E_, 1
	octave 6
	note E_, 1
	note C#, 1
	intensity $51
	octave 5
	note E_, 1
	octave 6
	note E_, 1
	note C#, 1
	intensity $41
	octave 5
	note E_, 1
	octave 6
	note E_, 16
	note __, 3
	intensity $A1
	octave 3
	note A#, 3
	note A#, 6
	note F#, 3
	note F#, 6
	octave 4
	note C#, 3
	note C#, 6
	octave 3
	note G#, 3
	note G#, 6
	notetype $6, $81
	octave 6
	note G#, 1
	note F#, 1
	note E_, 1
	note C#, 1
	octave 5
	note B_, 1
	note G#, 1
	note F#, 1
	note E_, 1
	notetype $8, $81
	octave 4
	note C#, 1
	octave 5
	note C#, 1
	octave 4
	note D#, 1
	octave 5
	note D#, 1
	octave 4
	note E_, 1
	octave 5
	note E_, 1
	octave 4
	note F#, 1
	octave 5
	note F#, 1
	octave 4
	note B_, 1
	octave 5
	note B_, 1
	note C#, 1
	octave 6
	note C#, 1
	octave 5
	note B_, 1
	intensity $71
	note C#, 1
	octave 6
	note C#, 1
	octave 5
	note B_, 1
	intensity $61
	note C#, 1
	octave 6
	note C#, 1
	octave 5
	note B_, 1
	intensity $51
	note C#, 1
	octave 6
	note C#, 1
	octave 5
	note B_, 1
	intensity $41
	note C#, 1
	octave 6
	note C#, 16
	note __, 9
	intensity $81
	note F#, 1
	octave 5
	note G#, 1
	octave 6
	note G#, 1
	note F#, 1
	octave 5
	note G#, 1
	octave 6
	note G#, 1
	intensity $71
	note F#, 1
	octave 5
	note G#, 1
	octave 6
	note G#, 1
	note F#, 1
	octave 5
	note G#, 1
	octave 6
	note G#, 1
	intensity $61
	note F#, 1
	octave 5
	note G#, 1
	octave 6
	note G#, 1
	note F#, 1
	octave 5
	note G#, 1
	octave 6
	note G#, 1
	intensity $51
	note F#, 1
	octave 5
	note G#, 1
	octave 6
	note G#, 1
	note F#, 1
	octave 5
	note G#, 1
	octave 6
	note G#, 1
	intensity $41
	note F#, 1
	octave 5
	note G#, 1
	octave 6
	note G#, 1
	note F#, 1
	octave 5
	note G#, 1
	octave 6
	note G#, 1
	notetype $6, $81
	note F#, 1
	note D#, 1
	note C#, 1
	octave 5
	note A#, 1
	note F#, 1
	note D#, 1
	note C#, 1
	octave 4
	note A#, 1
	notetype $8, $81
	octave 3
	note B_, 1
	octave 4
	note B_, 1
	note D#, 1
	octave 5
	note D#, 1
	octave 4
	note F#, 1
	octave 5
	note F#, 1
	octave 4
	note A#, 1
	octave 5
	note A#, 1
	note C#, 1
	octave 6
	note C#, 1
	octave 5
	note D#, 1
	octave 6
	note D#, 1
	note C#, 1
	intensity $71
	octave 5
	note D#, 1
	octave 6
	note D#, 1
	note C#, 1
	intensity $61
	octave 5
	note D#, 1
	octave 6
	note D#, 1
	note C#, 1
	intensity $51
	octave 5
	note D#, 1
	octave 6
	note D#, 1
	note C#, 1
	intensity $41
	octave 5
	note D#, 1
	octave 6
	note D#, 7
	intensity $A1
	octave 3
	note C#, 3
	note C#, 3
	intensity $61
	note C#, 3
	intensity $A1
	note D#, 3
	note D#, 3
	intensity $61
	note D#, 3
	intensity $A1
	note F#, 3
	note F#, 3
	intensity $61
	note F#, 3
	intensity $A1
	note A#, 3
	note A#, 3
	intensity $61
	note A#, 3
	notetype $6, $81
	octave 6
	note F#, 1
	note D#, 1
	note C#, 1
	octave 5
	note A#, 1
	note F#, 1
	note D#, 1
	note C#, 1
	octave 4
	note A#, 1
	notetype $8, $81
	note C#, 1
	octave 5
	note C#, 1
	octave 4
	note D#, 1
	octave 5
	note D#, 1
	octave 4
	note F#, 1
	octave 5
	note F#, 1
	octave 4
	note G#, 1
	octave 5
	note G#, 1
	octave 4
	note B_, 1
	octave 5
	note B_, 1
	note D#, 1
	octave 6
	note D#, 1
	octave 5
	note B_, 1
	intensity $71
	note D#, 1
	octave 6
	note D#, 1
	octave 5
	note B_, 1
	intensity $61
	note D#, 1
	octave 6
	note D#, 1
	octave 5
	note B_, 1
	intensity $51
	note D#, 1
	octave 6
	note D#, 1
	octave 5
	note B_, 1
	intensity $41
	note D#, 1
	octave 6
	note D#, 13
	notetype $C, $A1
	octave 3
	note G#, 1
	octave 4
	note G#, 1
	intensity $81
	octave 3
	note G#, 1
	octave 4
	note G#, 1
	intensity $61
	octave 3
	note G#, 1
	octave 4
	note G#, 1
	intensity $A1
	octave 3
	note B_, 1
	octave 4
	note B_, 1
	intensity $81
	octave 3
	note B_, 1
	octave 4
	note B_, 1
	intensity $A1
	note C#, 1
	octave 5
	note C#, 1
	intensity $81
	octave 4
	note C#, 1
	octave 5
	note C#, 1
	intensity $A1
	octave 4
	note F#, 1
	octave 5
	note F#, 1
	octave 4
	note C#, 1
	octave 5
	note C#, 1
	intensity $81
	octave 4
	note C#, 1
	octave 5
	note C#, 1
	intensity $61
	octave 4
	note C#, 1
	octave 5
	note C#, 1
	intensity $A1
	octave 3
	note B_, 1
	octave 4
	note B_, 1
	intensity $81
	octave 3
	note B_, 1
	octave 4
	note B_, 1
	intensity $61
	octave 3
	note B_, 1
	octave 4
	note B_, 1
	intensity $41
	octave 3
	note B_, 1
	octave 4
	note B_, 7
	notetype $8, $81
	octave 6
	note E_, 1
	octave 5
	note G#, 1
	octave 6
	note C#, 1
	note E_, 1
	octave 5
	note G#, 1
	octave 6
	note C#, 1
	intensity $71
	note E_, 1
	octave 5
	note G#, 1
	octave 6
	note C#, 1
	note E_, 1
	octave 5
	note G#, 1
	octave 6
	note C#, 1
	intensity $61
	note E_, 1
	octave 5
	note G#, 1
	octave 6
	note C#, 1
	note E_, 1
	octave 5
	note G#, 1
	octave 6
	note C#, 1
	intensity $51
	note E_, 1
	octave 5
	note G#, 1
	octave 6
	note C#, 1
	note E_, 1
	octave 5
	note G#, 1
	octave 6
	note C#, 1
	intensity $41
	note E_, 1
	octave 5
	note G#, 1
	octave 6
	note C#, 1
	note E_, 1
	octave 5
	note G#, 1
	octave 6
	note C#, 1
	intensity $31
	note E_, 1
	octave 5
	note G#, 1
	octave 6
	note C#, 1
	note E_, 1
	octave 5
	note G#, 1
	octave 6
	note C#, 1
	intensity $21
	note E_, 1
	octave 5
	note G#, 1
	octave 6
	note C#, 1
	note E_, 1
	octave 5
	note G#, 1
	octave 6
	note C#, 7
	notetype $6, $81
	note G#, 1
	note E_, 1
	note C#, 1
	octave 5
	note B_, 1
	note G#, 1
	note E_, 1
	note C#, 1
	octave 4
	note B_, 1
	notetype $8, $81
	note C#, 1
	octave 5
	note C#, 1
	octave 4
	note E_, 1
	octave 5
	note E_, 1
	octave 4
	note G#, 1
	octave 5
	note G#, 1
	octave 4
	note B_, 1
	octave 5
	note B_, 1
	note C#, 1
	octave 6
	note C#, 1
	octave 5
	note E_, 1
	octave 6
	note E_, 1
	note C#, 1
	intensity $71
	octave 5
	note E_, 1
	octave 6
	note E_, 1
	note C#, 1
	intensity $61
	octave 5
	note E_, 1
	octave 6
	note E_, 1
	note C#, 1
	intensity $51
	octave 5
	note E_, 1
	octave 6
	note E_, 1
	note C#, 1
	intensity $41
	octave 5
	note E_, 1
	octave 6
	note E_, 16
	note __, 3
	intensity $A1
	octave 3
	note A#, 3
	note A#, 3
	intensity $81
	note A#, 3
	intensity $A1
	note F#, 3
	note F#, 3
	intensity $81
	note F#, 3
	intensity $A1
	octave 4
	note C#, 3
	note C#, 3
	intensity $81
	note C#, 3
	intensity $A1
	octave 3
	note G#, 3
	note G#, 3
	intensity $81
	note G#, 3
	intensity $A1
	octave 4
	note E_, 3
	note E_, 3
	intensity $81
	note D#, 3
	note D#, 3
	notetype $6, $81
	octave 6
	note G#, 1
	note F#, 1
	note E_, 1
	note C#, 1
	octave 5
	note B_, 1
	note G#, 1
	note F#, 1
	note E_, 1
	notetype $8, $81
	octave 4
	note C#, 1
	octave 5
	note C#, 1
	octave 4
	note D#, 1
	octave 5
	note D#, 1
	octave 4
	note E_, 1
	octave 5
	note E_, 1
	octave 4
	note F#, 1
	octave 5
	note F#, 1
	octave 4
	note B_, 1
	octave 5
	note B_, 1
	note C#, 1
	octave 6
	note C#, 1
	octave 5
	note B_, 1
	intensity $71
	note C#, 1
	octave 6
	note C#, 1
	octave 5
	note B_, 1
	intensity $61
	note C#, 1
	octave 6
	note C#, 1
	octave 5
	note B_, 1
	intensity $51
	note C#, 1
	octave 6
	note C#, 1
	octave 5
	note B_, 1
	intensity $41
	note C#, 1
	octave 6
	note C#, 10
	notetype $C, $A7
	dutycycle 1
	tone $0001
	octave 4
	note C#, 1
	note D#, 1
	note E_, 14
	note F#, 2
	note G#, 2
	note A#, 4
	note F#, 4
	note G#, 4
	note E_, 2
	notetype $6, $A7
	note D_, 1
	note D#, 7
	note F#, 4
	note C#, 16
	octave 3
	note A#, 2
	octave 4
	note C#, 2
	note C_, 4
	note D#, 4
	note E_, 4
	note D#, 12
	note C_, 8
	octave 3
	note A#, 1
	note B_, 3
	note A#, 4
	note B_, 4
	octave 4
	note E_, 12
	octave 3
	note A#, 1
	note B_, 3
	note A#, 4
	note B_, 12
	octave 4
	note G_, 8
	note F#, 1
	note G_, 3
	note A_, 4
	note G_, 4
	note F#, 4
	note D#, 8
	note D#, 8
	octave 3
	note A#, 8
	intensity $A1
	note G#, 2
	note A#, 2
	octave 4
	note D#, 4
	note D#, 8
	note E_, 8
	note F_, 1
	intensity $A7
	note F#, 11
	notetype $E, $A7
	note E_, 12
	notetype $C, $A7
	note D#, 2
	note C#, 2
	octave 3
	note B_, 4
	octave 4
	note E_, 4
	note G_, 4
	note E_, 2
	notetype $6, $A7
	note F_, 1
	note F#, 7
	note E_, 4
	note F#, 8
	note E_, 4
	note F#, 4
	note C#, 4
	note G_, 1
	note G#, 7
	note F#, 4
	note G#, 8
	octave 5
	note C_, 8
	octave 4
	note D#, 4
	note A#, 1
	note B_, 3
	note A#, 8
	note G#, 8
	note A#, 12
	note A#, 1
	note B_, 3
	note A#, 8
	note G_, 12
	note E_, 4
	note G_, 4
	note F_, 1
	note F#, 7
	note E_, 4
	note F#, 8
	note E_, 4
	note F#, 4
	note E_, 4
	intensity $A1
	note G_, 1
	note G#, 3
	note G#, 8
	intensity $A7
	note A#, 12
	note E_, 4
	note G#, 4
	notetype $C, $A7
	note F#, 16
	note __, 16
	note __, 16
	loopchannel 0, Music_SinnohBike_Ch1_loop

Music_SinnohBike_Ch2:
Music_SinnohBike_Ch2_loop:
	notetype $C, $C3
	dutycycle 2
	tone $0002
	vibrato $12, $12
	octave 3
	note F#, 4
	intensity $8E
	note F#, 8
	intensity $C1
	octave 4
	note D#, 1
	note E_, 1
	note D#, 1
	note C#, 1
	intensity $C7
	note D#, 16
	note __, 8
	notetype $6, $C7
	octave 3
	note F_, 1
	note F#, 15
	octave 4
	note C_, 2
	note C#, 10
	note D#, 12
	note E_, 8
	note D#, 12
	note C#, 12
	intensity $C1
	octave 3
	note B_, 2
	octave 4
	note C#, 2
	octave 3
	note A#, 2
	note B_, 2
	notetype $C, $C7
	octave 4
	note C#, 16
	notetype $6, $C7
	note __, 16
	note __, 12
	note D_, 1
	note D#, 3
	note C#, 12
	octave 3
	note A#, 1
	notetype $C, $C7
	note B_, 16
	notetype $6, $C7
	note __, 11
	intensity $C1
	octave 4
	note D#, 2
	note E_, 2
	note C#, 2
	note D#, 2
	notetype $C, $C7
	note E_, 16
	notetype $6, $C7
	note __, 16
	note __, 12
	note D#, 2
	note D_, 2
	notetype $C, $C7
	note C#, 12
	octave 3
	note B_, 4
	note G#, 6
	note B_, 6
	octave 4
	note E_, 4
	note D#, 16
	note __, 14
	note E_, 1
	note D#, 1
	notetype $6, $C7
	note C_, 1
	notetype $C, $C7
	note C#, 15
	notetype $6, $C7
	note __, 1
	notetype $C, $C7
	note D_, 12
	intensity $C1
	dutycycle 1
	note D#, 1
	note E_, 1
	note D#, 1
	note C#, 1
	intensity $C7
	note D_, 8
	note D#, 16
	notetype $6, $C7
	octave 3
	note G_, 1
	note F#, 15
	note A#, 2
	note B_, 2
	octave 4
	note C#, 8
	note D#, 12
	note E_, 8
	note D#, 12
	note F_, 1
	note F#, 11
	octave 3
	note A#, 4
	note B_, 4
	notetype $E, $C7
	octave 4
	note C#, 12
	notetype $C, $C7
	note D#, 2
	note C#, 2
	octave 3
	note B_, 4
	note A#, 4
	note B_, 2
	note G#, 2
	note A#, 2
	note B_, 12
	notetype $6, $C7
	octave 4
	note D_, 1
	note D#, 7
	note C#, 4
	octave 3
	note B_, 8
	note A#, 4
	note B_, 8
	intensity $C1
	octave 4
	note E_, 2
	note D#, 2
	note C#, 2
	note D#, 2
	notetype $E, $C7
	note E_, 12
	notetype $C, $C7
	octave 3
	note G#, 2
	note G#, 6
	note B_, 6
	octave 4
	note D#, 4
	note E_, 6
	notetype $6, $C7
	note G_, 1
	note G#, 11
	note F#, 8
	note E_, 12
	note F#, 12
	note D_, 1
	note D#, 3
	note E_, 4
	notetype $C, $C7
	note D#, 16
	notetype $6, $C7
	note __, 16
	note __, 12
	note E_, 2
	note D#, 2
	note C_, 1
	notetype $C, $C7
	note C#, 15
	notetype $6, $C7
	note __, 1
	notetype $E, $C7
	note D_, 12
	notetype $C, $B7
	vibrato $12, $34
	note E_, 1
	note F#, 1
	note G#, 14
	note A#, 2
	note B_, 2
	octave 5
	note C#, 4
	octave 4
	note A#, 4
	note B_, 4
	note G#, 2
	notetype $6, $B7
	note G_, 1
	note G#, 7
	note A#, 4
	note F#, 16
	note D#, 2
	note E_, 2
	note F#, 4
	note G#, 4
	note A_, 4
	note G#, 12
	note F#, 8
	note D#, 1
	note E_, 3
	note D#, 4
	note E_, 4
	note B_, 12
	note D#, 1
	note E_, 3
	note D#, 4
	note E_, 12
	note B_, 8
	note A#, 1
	note B_, 3
	octave 5
	note C#, 4
	octave 4
	note B_, 4
	note A#, 4
	note F#, 8
	note F#, 8
	note D#, 8
	intensity $B1
	note E_, 2
	note F_, 2
	note F#, 4
	note F#, 8
	note G#, 8
	note G#, 1
	intensity $B7
	note A_, 11
	notetype $E, $B7
	note G#, 12
	notetype $C, $B7
	note A#, 2
	note B_, 2
	octave 5
	note C#, 4
	octave 4
	note A#, 4
	note B_, 4
	octave 5
	note C#, 2
	notetype $6, $B7
	note D_, 1
	note D#, 7
	note C#, 4
	note D#, 8
	note C#, 4
	note D#, 4
	octave 4
	note A#, 4
	octave 5
	note D#, 1
	note E_, 7
	note D#, 4
	note E_, 8
	note F_, 1
	note F#, 7
	octave 4
	note B_, 4
	octave 5
	note D#, 1
	note E_, 3
	note D#, 8
	note C#, 8
	note D#, 12
	note D#, 1
	note E_, 3
	note D#, 8
	note C#, 12
	octave 4
	note G#, 4
	note B_, 4
	note A_, 1
	note A#, 7
	note G#, 4
	note A#, 8
	note G#, 4
	note A#, 4
	note G#, 4
	intensity $B1
	note A#, 1
	note B_, 3
	note B_, 8
	intensity $B7
	octave 5
	note C#, 12
	octave 4
	note G#, 4
	note B_, 4
	notetype $C, $B7
	note A#, 12
	intensity $C7
	octave 5
	note C#, 3
	notetype $6, $C7
	note C_, 1
	octave 4
	note B_, 1
	notetype $C, $C7
	note A#, 12
	notetype $F, $C7
	octave 5
	note D#, 2
	notetype $6, $C7
	note D_, 1
	note C#, 1
	note C_, 1
	notetype $C, $C7
	octave 4
	note A#, 16
	loopchannel 0, Music_SinnohBike_Ch2_loop

Music_SinnohBike_Ch3:
Music_SinnohBike_Ch3_loop:
	notetype $C, $14
	octave 2
	note F#, 1
	note __, 3
	note F#, 8
	note __, 2
	notetype $6, $14
	octave 1
	note F#, 1
	note __, 1
	note F#, 2
	note B_, 8
	note __, 4
	note B_, 3
	note __, 5
	note B_, 3
	note __, 5
	note B_, 3
	notetype $F, $14
	note __, 10
	notetype $C, $14
	octave 3
	note C#, 2
	octave 2
	note F#, 1
	octave 1
	note F#, 1
	note B_, 4
	note __, 2
	note B_, 1
	note __, 3
	note B_, 1
	note __, 3
	note B_, 1
	note __, 13
	octave 3
	note C#, 2
	octave 2
	note F#, 1
	octave 1
	note F#, 1
	note G#, 4
	note __, 2
	note G#, 1
	note __, 3
	note G#, 1
	note __, 3
	note G#, 1
	note __, 13
	octave 2
	note A#, 2
	note D#, 1
	octave 1
	note F#, 1
	note G#, 4
	note __, 2
	note G#, 1
	note __, 3
	note G#, 1
	note __, 3
	note G#, 1
	note __, 1
	note F#, 1
	note __, 1
	note F#, 3
	note __, 1
	note F#, 1
	note __, 5
	note F#, 2
	notetype $6, $14
	note B_, 1
	note __, 1
	note B_, 2
	octave 2
	note E_, 8
	note __, 4
	note E_, 2
	note __, 6
	note E_, 2
	note __, 6
	note E_, 2
	notetype $D, $14
	note __, 12
	notetype $C, $14
	octave 3
	note F#, 2
	octave 2
	note B_, 1
	octave 1
	note B_, 1
	octave 2
	note E_, 4
	note __, 2
	note E_, 1
	note __, 3
	note E_, 1
	note __, 3
	note E_, 1
	note __, 13
	octave 3
	note C#, 2
	octave 2
	note E_, 1
	octave 1
	note G#, 1
	note F#, 4
	note __, 2
	note F#, 1
	note __, 3
	note F#, 1
	note __, 3
	note F#, 1
	note __, 13
	octave 2
	note G#, 2
	note C#, 1
	octave 1
	note C#, 1
	note F#, 4
	note __, 2
	note F#, 1
	note __, 3
	note F#, 1
	note __, 3
	note F#, 1
	note __, 13
	octave 2
	note F#, 2
	octave 1
	note A#, 1
	note F#, 1
	note B_, 4
	note __, 2
	note B_, 1
	note __, 3
	note B_, 1
	note __, 3
	note B_, 1
	note __, 13
	octave 3
	note C#, 2
	octave 2
	note F#, 1
	octave 1
	note F#, 1
	note B_, 4
	note __, 2
	note B_, 1
	note __, 3
	note B_, 1
	note __, 3
	note B_, 1
	note __, 13
	octave 3
	note C#, 2
	octave 2
	note F#, 1
	octave 1
	note F#, 1
	note G#, 4
	note __, 2
	note G#, 1
	note __, 3
	note G#, 1
	note __, 3
	note G#, 1
	note __, 13
	octave 2
	note A#, 2
	note D#, 1
	octave 1
	note F#, 1
	note G#, 4
	note __, 2
	note G#, 1
	note __, 3
	note G#, 1
	note __, 3
	note G#, 1
	note __, 1
	note F#, 1
	note __, 1
	note F#, 3
	note __, 1
	note F#, 1
	note __, 5
	note F#, 2
	notetype $6, $14
	note B_, 1
	note __, 1
	note B_, 2
	octave 2
	note E_, 8
	note __, 4
	note E_, 2
	note __, 6
	note E_, 2
	note __, 6
	note E_, 2
	notetype $D, $14
	note __, 12
	notetype $C, $14
	octave 3
	note F#, 2
	octave 2
	note B_, 1
	octave 1
	note B_, 1
	octave 2
	note E_, 4
	note __, 2
	note E_, 1
	note __, 3
	note E_, 1
	note __, 3
	note E_, 1
	note __, 13
	octave 3
	note C#, 2
	octave 2
	note E_, 1
	octave 1
	note G#, 1
	note F#, 4
	note __, 2
	note F#, 1
	note __, 3
	note F#, 1
	note __, 3
	note F#, 1
	note __, 13
	octave 2
	note G#, 2
	note C#, 1
	octave 1
	note C#, 1
	note F#, 4
	note __, 2
	note F#, 1
	note __, 3
	note F#, 1
	note __, 3
	note F#, 1
	note __, 13
	octave 2
	note F#, 2
	octave 1
	note A#, 1
	note F#, 1
	octave 2
	note E_, 4
	note __, 2
	note E_, 1
	note __, 3
	note E_, 1
	note __, 3
	note G#, 2
	note E_, 4
	note __, 2
	note E_, 1
	note __, 3
	note E_, 1
	note __, 3
	note G_, 2
	note D#, 4
	note __, 2
	note D#, 1
	note __, 3
	note D#, 1
	note __, 3
	note F#, 2
	note G#, 4
	note __, 2
	note F#, 1
	note __, 3
	note E_, 1
	note __, 3
	note D#, 2
	note C#, 4
	note __, 2
	note C#, 1
	note __, 3
	note C#, 1
	note __, 3
	note G#, 1
	note __, 1
	note C#, 4
	note __, 2
	note C#, 1
	note __, 3
	note C#, 1
	note __, 3
	note E_, 1
	note __, 1
	octave 1
	note B_, 4
	note __, 2
	note B_, 1
	note __, 3
	note B_, 1
	note __, 3
	octave 2
	note F#, 1
	note __, 1
	note C_, 4
	note __, 2
	note C_, 1
	note __, 3
	note C_, 1
	note __, 3
	note C_, 1
	note __, 1
	note E_, 4
	note __, 2
	note E_, 1
	note __, 3
	note E_, 1
	note __, 3
	note G#, 1
	note __, 1
	note E_, 4
	note __, 2
	note E_, 1
	note __, 3
	note E_, 1
	note __, 3
	note G_, 1
	note __, 1
	note D#, 4
	note __, 2
	note D#, 1
	note __, 3
	note D#, 1
	note __, 3
	note F#, 2
	note G#, 4
	note __, 2
	note F#, 1
	note __, 3
	note E_, 1
	note __, 3
	note D#, 2
	note C#, 4
	note __, 2
	note C#, 1
	note __, 3
	note C#, 1
	note __, 3
	note G#, 1
	note __, 1
	note C#, 4
	note __, 2
	note C#, 1
	note __, 3
	note C#, 1
	note __, 3
	note E_, 1
	note __, 1
	octave 1
	note B_, 4
	note __, 2
	note B_, 1
	note __, 3
	note B_, 1
	note __, 1
	octave 2
	note F#, 4
	note C#, 4
	note __, 2
	note C#, 1
	note __, 3
	note C#, 1
	note __, 1
	note G#, 4
	octave 1
	note B_, 4
	note __, 2
	note B_, 1
	note __, 3
	note B_, 1
	note __, 1
	octave 2
	note F#, 4
	note C#, 4
	note __, 2
	note C#, 1
	note __, 3
	note C#, 1
	note __, 3
	note G#, 2
	octave 1
	note B_, 4
	note __, 2
	note B_, 1
	note __, 3
	note B_, 1
	note __, 1
	octave 2
	note D#, 4
	loopchannel 0, Music_SinnohBike_Ch3_loop

Music_SinnohBike_Ch4:
	togglenoise 1
Music_SinnohBike_Ch4_loop:
	notetype $C
	note __, 14
	notetype $6
	note G_, 1
	note G_, 1
	note G_, 1
	note G_, 1
	note G_, 4
	note G_, 4
	note G_, 4
	note G#, 4
	note G_, 4
	note G_, 4
	note G_, 4
	note G#, 4
	note G_, 4
	note G_, 4
	note G_, 4
	note G#, 4
	note G_, 4
	note G_, 4
	note G_, 4
	note G#, 4
	note G_, 4
	note G_, 4
	note G_, 4
	note G#, 4
	note G_, 4
	note G_, 4
	note G_, 4
	note G#, 4
	note G_, 4
	note G_, 4
	note G_, 4
	note G#, 4
	note G_, 4
	note G_, 4
	note G_, 4
	note G#, 4
	note G_, 4
	note G_, 4
	note G_, 4
	note G#, 4
	note G_, 4
	note G_, 4
	note G_, 4
	note G#, 4
	note G_, 4
	note G_, 4
	note G_, 4
	note G#, 4
	note G_, 4
	note G_, 4
	note G_, 4
	note G#, 4
	note G_, 4
	note G_, 4
	note G_, 4
	note G#, 4
	note G_, 4
	note G_, 4
	note G_, 4
	note G#, 4
	note G_, 4
	note G_, 4
	note G_, 4
	note G#, 4
	note G_, 4
	note G_, 4
	note G_, 4
	note G#, 4
	note G_, 4
	note G_, 4
	note G_, 4
	note G#, 4
	note G_, 4
	note G_, 4
	note G_, 4
	note G#, 4
	note G_, 4
	note G_, 4
	note G_, 4
	note G#, 4
	note G_, 4
	note G_, 4
	note G_, 4
	note G#, 4
	note G_, 4
	note G_, 4
	note G_, 4
	note G#, 4
	note G_, 4
	note G_, 4
	note G_, 4
	note G#, 4
	note G_, 4
	note G_, 4
	note G_, 4
	note G#, 4
	note G_, 4
	note G_, 4
	note G_, 4
	note G#, 4
	note G_, 4
	note G_, 4
	note G_, 4
	note G#, 4
	note G_, 4
	note G_, 4
	note G_, 4
	note G#, 4
	note G_, 4
	note G_, 4
	note G_, 4
	note G#, 4
	note G_, 4
	note G_, 4
	note G_, 4
	note G#, 4
	note G_, 4
	note G_, 4
	note G_, 4
	note G#, 4
	note G_, 4
	note G_, 4
	note G_, 4
	note G#, 4
	note G_, 4
	note G_, 4
	note G_, 4
	note G#, 4
	note G_, 4
	note G_, 4
	note G_, 4
	note G#, 4
	note G_, 4
	note G_, 4
	note G_, 4
	note G#, 4
	note G_, 4
	note G_, 4
	note G_, 4
	note G#, 4
	note G_, 4
	note G_, 4
	note G_, 4
	note G#, 4
	note G_, 4
	note G_, 4
	note G_, 4
	note G#, 4
	note G_, 4
	note G_, 4
	note G_, 4
	note G#, 4
	note G_, 4
	note G_, 4
	note G_, 4
	note G#, 4
	note G_, 4
	note G_, 4
	note G_, 4
	note G#, 4
	note G_, 4
	note G_, 4
	note G_, 4
	note G#, 4
	note G_, 4
	note G_, 4
	note G_, 4
	note G#, 4
	note G_, 4
	note G_, 4
	note G_, 4
	note G#, 4
	note G_, 4
	note G_, 4
	note G_, 4
	note G#, 4
	note G_, 4
	note G_, 4
	note G_, 4
	note G#, 4
	note G_, 4
	note G_, 4
	note G_, 4
	note G#, 4
	note G_, 4
	note G_, 4
	note G_, 4
	note G#, 4
	note G_, 4
	note G_, 4
	note G_, 4
	note G#, 4
	note G_, 4
	note G_, 4
	note G_, 4
	note G#, 4
	note G_, 4
	note G_, 4
	note G_, 4
	note G#, 4
	note G_, 4
	note G_, 4
	note G_, 4
	note G#, 4
	note G_, 4
	note G_, 4
	note G_, 4
	note G#, 4
	note G_, 4
	note G_, 4
	note G_, 4
	note G#, 4
	note G_, 4
	note G_, 4
	note G_, 4
	note G#, 4
	note G_, 4
	note G_, 4
	note G_, 4
	note G#, 4
	note G_, 4
	note G_, 4
	note G_, 4
	note G#, 4
	note G_, 4
	note G_, 4
	note G_, 4
	note G#, 4
	note G_, 4
	note G_, 4
	note G_, 4
	note G#, 4
	note G_, 4
	note G_, 4
	note G_, 4
	note G#, 4
	note G_, 4
	note G_, 4
	note G_, 4
	note G#, 4
	note G_, 4
	note G_, 4
	note G_, 4
	note G#, 4
	note G_, 4
	note G_, 4
	note G_, 4
	note G#, 4
	note G_, 4
	note G_, 4
	note G_, 4
	note G#, 4
	note G_, 4
	note G_, 4
	note G_, 4
	note G#, 4
	note G_, 4
	note G_, 4
	note G_, 4
	note G#, 4
	note A_, 4
	note E_, 4
	note E_, 4
	note A_, 4
	note E_, 4
	note A_, 4
	note A_, 4
	note E_, 2
	note E_, 2
	note E_, 4
	note A_, 4
	note A_, 4
	note E_, 4
	note A_, 4
	note E_, 4
	note E_, 4
	note A_, 2
	note A_, 2
	note A_, 4
	note E_, 4
	note E_, 4
	note A_, 4
	note E_, 4
	note A_, 4
	note A_, 4
	note E_, 2
	note E_, 2
	note E_, 4
	note A_, 4
	note A_, 4
	note E_, 4
	note A_, 4
	note E_, 4
	note E_, 4
	note A_, 2
	note A_, 2
	note A_, 4
	note E_, 4
	note E_, 4
	note A_, 4
	note E_, 4
	note A_, 4
	note A_, 4
	note E_, 2
	note E_, 2
	note E_, 4
	note A_, 4
	note A_, 4
	note E_, 4
	note A_, 4
	note E_, 4
	note E_, 4
	note A_, 2
	note A_, 2
	note A_, 4
	note E_, 4
	note E_, 4
	note A_, 4
	note E_, 4
	note A_, 4
	note A_, 4
	note E_, 2
	note E_, 2
	note E_, 4
	note A_, 4
	note A_, 4
	note E_, 4
	note G#, 4
	note G#, 4
	note G#, 4
	note G#, 2
	note G#, 2
	note A_, 4
	note E_, 4
	note E_, 4
	note A_, 4
	note E_, 4
	note A_, 4
	note A_, 4
	note E_, 2
	note E_, 2
	note E_, 4
	note A_, 4
	note A_, 4
	note E_, 4
	note A_, 4
	note E_, 4
	note E_, 4
	note A_, 2
	note A_, 2
	note A_, 4
	note E_, 4
	note E_, 4
	note A_, 4
	note E_, 4
	note A_, 4
	note A_, 4
	note E_, 2
	note E_, 2
	note E_, 4
	note A_, 4
	note A_, 4
	note E_, 4
	note A_, 4
	note E_, 4
	note E_, 4
	note A_, 2
	note A_, 2
	note A_, 4
	note E_, 4
	note E_, 4
	note A_, 4
	note E_, 4
	note A_, 4
	note A_, 4
	note E_, 2
	note E_, 2
	note E_, 4
	note A_, 4
	note A_, 4
	note E_, 4
	note A_, 4
	note E_, 4
	note E_, 4
	note A_, 2
	note A_, 2
	note A_, 4
	note E_, 4
	note E_, 4
	note A_, 4
	note E_, 4
	note A_, 4
	note A_, 4
	note E_, 2
	note E_, 2
	note E_, 4
	note A_, 4
	note A_, 4
	note E_, 4
	note A_, 4
	note E_, 4
	note E_, 4
	note A_, 2
	note A_, 2
	note A_, 4
	note E_, 4
	note E_, 4
	note A_, 4
	note E_, 4
	note A_, 4
	note A_, 4
	note E_, 2
	note E_, 2
	note E_, 4
	note A_, 4
	note A_, 4
	note E_, 4
	note A_, 4
	note E_, 4
	note E_, 4
	note A_, 2
	note A_, 2
	note A_, 4
	note E_, 4
	note E_, 4
	note A_, 4
	note E_, 4
	note A_, 4
	note A_, 4
	note E_, 2
	note E_, 2
	loopchannel 0, Music_SinnohBike_Ch4_loop
