Music_Poffins:
	dbw $C0, Music_Poffins_Ch1
	dbw $01, Music_Poffins_Ch2
	dbw $02, Music_Poffins_Ch3
	dbw $03, Music_Poffins_Ch4

Music_Poffins_Ch1:
	tempo $D8
	volume $77
	notetype $C, $B5
	dutycycle 1
	octave 3
	note __, 16
Music_Poffins_Ch1_loop:
	note __, 2
	octave 4
	note C_, 3
	octave 3
	note B_, 2
	note B_, 2
	note B_, 2
	note G_, 1
	note A_, 1
	note A_, 3
	note A_, 2
	note A_, 3
	note B_, 1
	octave 4
	note D_, 1
	note C_, 2
	note C_, 1
	octave 3
	note G_, 1
	note A_, 1
	octave 4
	note C_, 1
	note C#, 2
	octave 3
	note A#, 1
	octave 4
	note C_, 1
	note C_, 3
	octave 3
	note A_, 1
	note A#, 1
	note B_, 1
	octave 4
	note F_, 1
	note E_, 1
	note D#, 1
	note D_, 1
	note C#, 2
	note C#, 2
	note C#, 1
	note E_, 2
	note E_, 2
	note D#, 1
	note D#, 2
	octave 3
	note B_, 2
	note B_, 1
	octave 4
	note D_, 1
	note C#, 1
	note C_, 1
	octave 3
	note B_, 1
	note A_, 1
	note B_, 1
	octave 4
	note C_, 1
	octave 3
	note A_, 1
	octave 4
	note C_, 1
	note D_, 1
	note D#, 1
	note C_, 1
	note D_, 1
	note D#, 1
	note E_, 1
	note C_, 1
	note D_, 1
	note C_, 1
	octave 3
	note A#, 1
	note A_, 1
	note G_, 1
	note G#, 1
	note A_, 1
	octave 4
	note C_, 1
	note D_, 1
	octave 3
	note A_, 1
	octave 4
	note C_, 1
	note D_, 1
	note D#, 1
	note C_, 1
	octave 3
	note B_, 1
	octave 4
	note C_, 1
	octave 3
	note G_, 1
	note A_, 1
	note A#, 1
	octave 4
	note C_, 1
	note D_, 1
	note C_, 1
	note E_, 1
	note E_, 1
	note C_, 1
	note E_, 1
	note E_, 1
	note C_, 1
	note C_, 1
	note D#, 1
	note E_, 1
	octave 3
	note B_, 1
	note G_, 1
	note A#, 1
	note A_, 1
	octave 4
	note F_, 1
	note C_, 1
	note C#, 1
	note C_, 1
	octave 3
	note A_, 1
	note G_, 1
	note F_, 1
	note D#, 1
	note G_, 1
	note A_, 1
	octave 4
	note C_, 2
	octave 3
	note A#, 2
	note A#, 2
	note G_, 1
	note A_, 1
	note B_, 1
	octave 4
	note E_, 2
	note E_, 3
	note E_, 2
	note E_, 1
	note D_, 1
	note C_, 1
	octave 3
	note G_, 1
	note A#, 2
	octave 4
	note F_, 2
	note C#, 1
	note D#, 2
	note D#, 2
	note E_, 1
	note E_, 2
	note C_, 2
	octave 3
	note B_, 2
	note G_, 1
	note A#, 1
	note A#, 2
	note B_, 1
	loopchannel 0, Music_Poffins_Ch1_loop

Music_Poffins_Ch2:
	notetype $C, $A5
	dutycycle 2
	octave 5
	note __, 16
Music_Poffins_Ch2_loop:
	octave 4
	note G_, 2
	note E_, 1
	note F#, 2
	note D#, 2
	note F_, 2
	note D_, 2
	note E_, 2
	note D_, 1
	note C_, 1
	octave 3
	note B_, 1
	note A_, 1
	note A_, 1
	octave 4
	note C_, 1
	octave 3
	note A_, 1
	octave 4
	note C_, 1
	note E_, 2
	note G_, 9
	octave 3
	note A_, 1
	note A_, 1
	octave 4
	note C_, 1
	octave 3
	note A_, 1
	note B_, 1
	octave 4
	note D_, 1
	note A_, 1
	intensity $A2
	note G_, 2
	intensity $A5
	note F#, 1
	note F_, 1
	note E_, 5
	note E_, 1
	note F_, 1
	note F#, 1
	note G_, 1
	note A_, 1
	note G#, 1
	note A_, 1
	note C_, 9
	note A_, 4
	note G#, 3
	note G_, 9
	note A_, 2
	note A_, 2
	note G#, 1
	note G#, 2
	note G_, 6
	note G_, 1
	note A_, 1
	note B_, 1
	octave 5
	note C_, 2
	octave 4
	note A_, 1
	octave 5
	note C_, 2
	octave 4
	note G#, 2
	octave 5
	note C_, 2
	octave 4
	note G_, 2
	note A_, 1
	note A#, 1
	note A_, 1
	note E_, 1
	note F_, 1
	note A_, 1
	note G#, 1
	note G_, 1
	note A_, 1
	note D#, 1
	note C_, 1
	note D_, 1
	note C_, 2
	note E_, 1
	note D#, 1
	note E_, 1
	note G_, 1
	octave 5
	note C_, 1
	note D_, 1
	note C#, 1
	note C_, 2
	octave 4
	note A_, 1
	octave 5
	note C_, 2
	octave 4
	note G#, 2
	octave 5
	note C_, 2
	octave 4
	note G_, 2
	note A#, 1
	note A_, 1
	note G#, 1
	note A_, 1
	octave 5
	note C_, 1
	note D#, 1
	note C_, 1
	note D_, 1
	note D#, 1
	note E_, 1
	note C_, 1
	note D_, 1
	note C_, 9
	loopchannel 0, Music_Poffins_Ch2_loop

Music_Poffins_Ch3:
	notetype $C, $12
	octave 2
	note __, 12
	octave 3
	note C_, 1
	octave 2
	note C_, 1
	note E_, 1
	note D#, 1
Music_Poffins_Ch3_loop:
	note D_, 1
	note __, 2
	note D_, 1
	note G_, 1
	note G_, 1
	note __, 1
	note C_, 1
	note __, 1
	note C_, 1
	note __, 1
	note A_, 1
	note __, 1
	note G_, 1
	note F_, 1
	note E_, 1
	note D_, 1
	note __, 2
	note D_, 1
	note G_, 1
	note A_, 1
	note __, 1
	note C_, 1
	note __, 1
	note C_, 1
	note G_, 1
	note B_, 1
	note A_, 1
	note G_, 1
	note F_, 1
	note E_, 1
	note D_, 1
	note __, 2
	note G_, 1
	note __, 1
	note G_, 1
	note A_, 1
	note B_, 1
	octave 3
	note C_, 1
	octave 2
	note B_, 1
	note A#, 1
	note A_, 1
	note __, 1
	note A_, 1
	note __, 1
	note E_, 1
	note F_, 1
	note __, 1
	note F_, 1
	note __, 1
	note G_, 1
	note G_, 1
	note __, 1
	note C_, 1
	note __, 1
	octave 3
	note C_, 1
	octave 2
	note G_, 1
	note F_, 1
	note E_, 1
	note C_, 1
	note E_, 1
	note D#, 1
	note D_, 2
	note __, 1
	note D_, 1
	note G_, 2
	note __, 1
	note G_, 1
	note C_, 2
	note __, 1
	note C_, 1
	note C#, 2
	note __, 1
	note C#, 1
	note D_, 2
	note __, 1
	note D_, 1
	note G_, 2
	note __, 1
	note G_, 1
	note C_, 2
	note __, 1
	note C_, 1
	note E_, 2
	note __, 1
	note E_, 1
	note F_, 1
	note F_, 1
	note __, 1
	octave 3
	note C_, 1
	note C_, 1
	octave 2
	note F_, 1
	note __, 1
	octave 3
	note C_, 1
	note C_, 1
	octave 2
	note E_, 1
	note G_, 1
	note B_, 1
	note A#, 1
	note C#, 1
	note __, 1
	note C#, 1
	note F_, 1
	note __, 1
	note F_, 1
	note __, 1
	note G_, 1
	note G_, 1
	note __, 1
	note C_, 1
	note __, 1
	note C_, 1
	note __, 1
	note C_, 1
	note E_, 1
	note G_, 1
	note A#, 1
	note C_, 1
	note F_, 1
	note __, 1
	note C_, 1
	note F_, 1
	note __, 1
	note F_, 1
	note G_, 1
	note F_, 1
	note E_, 1
	note __, 1
	note E_, 1
	note A#, 1
	note __, 1
	note A_, 1
	note G#, 1
	note A_, 1
	note D_, 1
	note D_, 1
	note F_, 1
	note G#, 1
	note G_, 1
	note G_, 1
	note __, 1
	note C_, 1
	note __, 1
	note C_, 1
	note __, 1
	note C_, 1
	note G_, 1
	note C_, 1
	note F_, 1
	note E_, 1
	loopchannel 0, Music_Poffins_Ch3_loop

Music_Poffins_Ch4:
	togglenoise 4
	notetype $C
	note F_, 2
	note F#, 1
	note G_, 1
	note F_, 2
	note F#, 1
	note G_, 1
	note F_, 2
	note F#, 1
	note G_, 1
	note F_, 2
	note F#, 1
	note G_, 1
Music_Poffins_Ch4_loop:
	note F_, 2
	note F#, 1
	note G_, 1
	note F_, 2
	note F#, 1
	note G_, 1
	note F_, 2
	note F#, 1
	note G_, 1
	note F_, 2
	note F#, 1
	note G_, 1
	note F_, 2
	note F#, 1
	note G_, 1
	note F_, 2
	note F#, 1
	note G_, 1
	note F_, 2
	note F#, 1
	note G_, 1
	note F_, 2
	note F#, 1
	note G_, 1
	note F_, 2
	note F#, 1
	note G_, 1
	note F_, 2
	note F#, 1
	note G_, 1
	note F_, 2
	note F#, 1
	note G_, 1
	note F_, 2
	note F#, 1
	note G_, 1
	note F_, 2
	note F#, 1
	note G_, 1
	note F_, 2
	note F#, 1
	note G_, 1
	note F_, 2
	note F#, 1
	note G_, 1
	note F_, 2
	note F#, 1
	note G_, 1
	note D_, 1
	note D_, 1
	note B_, 1
	note D_, 1
	note D_, 1
	note B_, 1
	note D_, 1
	note D_, 1
	note B_, 1
	note D_, 1
	note D_, 1
	note B_, 1
	note D_, 1
	note D_, 1
	note B_, 1
	note D_, 1
	note D_, 1
	note D_, 1
	note B_, 1
	note D_, 1
	note D_, 1
	note B_, 1
	note D_, 1
	note D_, 1
	note B_, 1
	note D_, 1
	note D_, 1
	note B_, 1
	note D_, 1
	note D_, 1
	note B_, 1
	note D_, 1
	note D_, 1
	note D_, 1
	note B_, 1
	note D_, 1
	note D_, 1
	note B_, 1
	note D_, 1
	note D_, 1
	note B_, 1
	note D_, 1
	note D_, 1
	note B_, 1
	note D_, 1
	note D_, 1
	note B_, 1
	note D_, 1
	note D_, 1
	note D_, 1
	note B_, 1
	note D_, 1
	note D_, 1
	note B_, 1
	note D_, 1
	note D_, 1
	note B_, 1
	note D_, 1
	note D_, 1
	note B_, 1
	note D_, 1
	note D_, 1
	note B_, 1
	note D_, 1
	note F_, 2
	note F#, 1
	note G_, 1
	note F_, 2
	note F#, 1
	note G_, 1
	note F_, 2
	note F#, 1
	note G_, 1
	note F_, 2
	note F#, 1
	note G_, 1
	note F_, 2
	note F#, 1
	note G_, 1
	note F_, 2
	note F#, 1
	note G_, 1
	note F_, 2
	note F#, 1
	note G_, 1
	note F_, 2
	note F#, 1
	note G_, 1
	loopchannel 0, Music_Poffins_Ch4_loop
