Music_Route209:
	dbw $C0, Music_Route209_Ch1
	dbw $01, Music_Route209_Ch2
	dbw $02, Music_Route209_Ch3
	dbw $03, Music_Route209_Ch4

Music_Route209_Ch1:
	tempo $E0
	volume $77
	notetype $C, $A2
	dutycycle 1
	octave 4
	note __, 2
	octave 2
	note E_, 2
	note A_, 2
	note B_, 2
	octave 3
	note C#, 2
	note E_, 2
	note A_, 2
	octave 4
	note C#, 2
Music_Route209_Ch1_loop:
	intensity $94
	note A_, 2
	note E_, 2
	note A_, 2
	octave 5
	note C#, 1
	note D_, 1
	note E_, 3
	note F#, 1
	note E_, 1
	note D_, 1
	note C#, 1
	octave 4
	note B_, 1
	octave 5
	note C#, 2
	note D_, 2
	note C#, 2
	octave 4
	note B_, 2
	note A_, 2
	note E_, 2
	note A_, 2
	octave 5
	note C#, 1
	note D_, 1
	note E_, 2
	octave 4
	note A_, 2
	note E_, 2
	octave 5
	note C#, 1
	note D_, 1
	note E_, 1
	note D_, 1
	note C#, 1
	octave 4
	note B_, 1
	note A_, 2
	note E_, 2
	octave 5
	note C_, 2
	octave 4
	note B_, 2
	note A_, 1
	note E_, 1
	note C_, 1
	note D_, 1
	note F_, 2
	note A_, 2
	octave 5
	note C_, 2
	octave 4
	note B_, 2
	octave 5
	note A_, 1
	note E_, 1
	note E_, 1
	octave 4
	note A_, 1
	note A_, 1
	note E_, 1
	note E_, 1
	octave 3
	note A_, 1
	note A_, 1
	note E_, 1
	note E_, 1
	note A_, 1
	note A_, 1
	octave 4
	note E_, 1
	note A_, 1
	octave 5
	note E_, 1
	note A_, 1
	note D_, 1
	note D_, 1
	octave 4
	note A_, 1
	note A_, 1
	note D_, 1
	note D_, 1
	octave 3
	note A_, 1
	note A_, 1
	note D_, 1
	note D_, 1
	note A_, 1
	note A_, 1
	octave 4
	note D_, 1
	note A_, 1
	octave 5
	note D_, 1
	note A_, 1
	note E_, 1
	note E_, 1
	octave 4
	note A_, 1
	note A_, 1
	note E_, 1
	note E_, 1
	octave 3
	note A_, 1
	note A_, 1
	note E_, 1
	note E_, 1
	note A_, 1
	note A_, 1
	octave 4
	note E_, 1
	note A_, 1
	octave 5
	note E_, 1
	note A_, 1
	note D_, 1
	note D_, 1
	octave 4
	note A_, 1
	note A_, 1
	note D_, 1
	note D_, 1
	octave 3
	note A_, 1
	note A_, 1
	note D_, 1
	note D_, 1
	note A_, 1
	note A_, 1
	octave 4
	note D_, 1
	note A_, 1
	octave 5
	note D_, 5
	octave 3
	note G#, 8
	note B_, 8
	octave 4
	note C#, 8
	note D_, 8
	octave 3
	note G#, 8
	note B_, 8
	octave 4
	note C#, 8
	note C#, 4
	note C#, 2
	note C#, 6
	note C#, 2
	note C#, 6
	note C#, 2
	note C#, 4
	note C#, 10
	note D_, 2
	notetype $8, $94
	note D_, 1
	note D_, 1
	note D_, 1
	notetype $C, $94
	octave 3
	note A_, 1
	octave 4
	note D_, 2
	octave 3
	note A_, 1
	octave 4
	note E_, 2
	notetype $8, $94
	note E_, 1
	note E_, 1
	note E_, 1
	notetype $C, $94
	octave 3
	note B_, 1
	octave 4
	note E_, 2
	octave 3
	note B_, 1
	octave 4
	note F_, 2
	notetype $8, $94
	note F_, 1
	note F_, 1
	note F_, 1
	notetype $C, $94
	note C_, 1
	note F_, 2
	note C_, 1
	note G_, 2
	notetype $8, $94
	note G_, 1
	note G_, 1
	note G_, 1
	notetype $C, $94
	note D_, 1
	note G_, 2
	note G#, 1
	note A_, 16
	note __, 2
	octave 3
	note E_, 3
	note E_, 5
	note F#, 3
	note F#, 7
	intensity $91
	dutycycle 2
	octave 5
	note A_, 1
	note E_, 1
	octave 6
	note C#, 1
	note D_, 1
	note E_, 1
	octave 5
	note E_, 1
	note A_, 1
	octave 6
	note E_, 1
	note D_, 1
	note C#, 1
	octave 5
	note A_, 1
	note E_, 1
	note D_, 1
	note C#, 1
	octave 4
	note A_, 1
	note E_, 1
	note D_, 1
	note C#, 1
	octave 3
	note A_, 1
	note E_, 1
	note A_, 1
	note E_, 1
	octave 4
	note C#, 1
	note D_, 1
	note E_, 1
	note A_, 1
	note B_, 1
	octave 5
	note C#, 3
	intensity $94
	octave 3
	note E_, 3
	note E_, 5
	note G#, 3
	note G#, 5
	note A_, 3
	note A_, 5
	note B_, 2
	note B_, 1
	note B_, 2
	note E_, 2
	note E_, 3
	note E_, 1
	note E_, 2
	note G_, 2
	note G_, 3
	note G_, 1
	note G_, 2
	note A_, 2
	note A_, 3
	note A_, 1
	note A_, 2
	note B_, 2
	note B_, 2
	note B_, 1
	note B_, 1
	note B_, 2
	note A_, 1
	intensity $B7
	dutycycle 1
	octave 4
	note B_, 1
	note A_, 16
	note __, 15
	loopchannel 0, Music_Route209_Ch1_loop

Music_Route209_Ch2:
	notetype $C, $A1
	dutycycle 2
	octave 5
	note B_, 1
	note A_, 1
	note E_, 1
	note A_, 1
	note B_, 1
	note A_, 1
	note E_, 1
	note A_, 1
	note B_, 1
	note A_, 1
	note E_, 1
	note A_, 1
	note E_, 1
	octave 4
	note B_, 1
	note A_, 1
	note E_, 1
Music_Route209_Ch2_loop:
	notetype $3, $B7
	dutycycle 3
	vibrato $08, $15
	octave 2
	note G#, 1
	note A_, 15
	note E_, 16
	octave 3
	note C#, 8
	note D_, 8
	note E_, 8
	notetype $2, $B7
	note G#, 1
	notetype $E, $B7
	note A_, 5
	notetype $C, $B7
	note E_, 4
	note C#, 2
	note D_, 2
	note E_, 2
	note A_, 6
	note E_, 4
	octave 4
	note C#, 2
	note D_, 2
	note E_, 2
	octave 3
	note A_, 6
	note E_, 4
	note B_, 2
	octave 4
	note C_, 2
	octave 3
	note B_, 2
	intensity $B0
	note A_, 16
	intensity $B7
	note A_, 16
	note __, 2
	dutycycle 2
	octave 5
	note C#, 2
	note A_, 2
	note G#, 2
	note A_, 4
	note E_, 2
	note B_, 2
	octave 6
	note E_, 2
	octave 5
	note B_, 2
	note A_, 2
	note G#, 2
	note A_, 4
	note E_, 2
	note B_, 2
	octave 6
	note E_, 2
	dutycycle 1
	octave 3
	note A_, 4
	note E_, 2
	octave 4
	note C#, 1
	note D_, 1
	note E_, 2
	note F#, 2
	note E_, 1
	note D_, 1
	note C#, 1
	octave 3
	note B_, 1
	note A_, 2
	note E_, 2
	note A_, 2
	note B_, 4
	octave 4
	note D_, 2
	note C#, 2
	octave 3
	note A_, 2
	note B_, 2
	note A_, 2
	note E_, 2
	octave 4
	note C#, 1
	note D_, 1
	note E_, 2
	note F#, 2
	note E_, 1
	note D_, 1
	note C#, 1
	octave 3
	note B_, 1
	note A_, 2
	note E_, 2
	note A_, 2
	note B_, 4
	octave 4
	note C#, 2
	octave 3
	note B_, 2
	note A_, 2
	note G#, 2
	note A_, 4
	note G#, 1
	note F#, 1
	note G#, 2
	note A_, 4
	note G#, 1
	note F#, 1
	note G#, 2
	note A_, 2
	octave 4
	note E_, 2
	note A_, 4
	dutycycle 2
	octave 3
	note E_, 2
	note A_, 2
	note G#, 2
	note A_, 2
	note E_, 2
	note A_, 2
	note G#, 4
	note A_, 2
	note B_, 2
	octave 4
	note C_, 4
	octave 3
	note B_, 2
	octave 4
	note C_, 2
	note D_, 4
	note C_, 2
	note D_, 2
	intensity $6E
	note E_, 4
	intensity $B0
	note E_, 6
	intensity $B7
	note E_, 6
	note __, 2
	note A_, 2
	note E_, 2
	note A_, 2
	octave 5
	note C_, 4
	octave 4
	note B_, 2
	note A_, 2
	note B_, 4
	note B_, 2
	note A_, 16
	note __, 12
	dutycycle 1
	note A_, 1
	note E_, 2
	note A_, 3
	octave 5
	note C#, 1
	note D_, 1
	note E_, 1
	note F#, 2
	note E_, 2
	note D_, 1
	note C#, 1
	octave 4
	note B_, 1
	note A_, 1
	note E_, 2
	note A_, 3
	octave 5
	note D_, 1
	note C#, 2
	octave 4
	note A_, 2
	note E_, 2
	note A_, 1
	note B_, 1
	note A_, 2
	note E_, 2
	note A_, 3
	octave 5
	note C#, 1
	note D_, 1
	note C#, 1
	octave 4
	note B_, 1
	note A_, 1
	note E_, 2
	note A_, 1
	octave 5
	note C#, 1
	note D_, 1
	note E_, 1
	note E_, 2
	octave 4
	note A_, 1
	note A_, 2
	octave 5
	note F#, 1
	note E_, 1
	note C#, 1
	octave 4
	note A_, 2
	note E_, 2
	octave 5
	note D_, 1
	note C#, 1
	octave 4
	note A_, 1
	intensity $A1
	dutycycle 2
	octave 5
	note B_, 1
	note A_, 1
	note E_, 1
	note A_, 1
	note B_, 1
	note A_, 1
	note E_, 1
	note A_, 1
	note B_, 1
	note A_, 1
	note E_, 1
	note A_, 1
	note E_, 1
	octave 4
	note B_, 1
	note A_, 1
	note E_, 1
	octave 5
	note B_, 1
	note A_, 1
	note D_, 1
	note A_, 1
	note B_, 1
	note A_, 1
	note D_, 1
	note A_, 1
	note B_, 1
	note A_, 1
	note D_, 1
	note A_, 1
	note D_, 1
	octave 4
	note B_, 1
	note A_, 1
	notetype $D, $A1
	note E_, 1
	loopchannel 0, Music_Route209_Ch2_loop

Music_Route209_Ch3:
	notetype $C, $10
	octave 2
	note __, 16
Music_Route209_Ch3_loop:
	notetype $E, $10
	note A_, 3
	notetype $6, $00
	note __, 1
	intensity $11
	note A_, 7
	note __, 1
	note G#, 7
	note __, 1
	note G#, 7
	note __, 1
	note F#, 7
	note __, 1
	note F#, 7
	note __, 1
	note E_, 7
	note __, 1
	note E_, 7
	note __, 1
	note D_, 7
	note __, 1
	note D_, 7
	note __, 1
	note C#, 7
	note __, 1
	note C#, 7
	note __, 1
	note F_, 7
	note __, 1
	note F_, 7
	note __, 1
	note G_, 7
	note __, 1
	note G_, 7
	note __, 1
	notetype $C, $11
	octave 1
	note A_, 12
	note __, 4
	note A_, 12
	note __, 4
	note A_, 3
	note A_, 3
	note __, 10
	note A_, 3
	note A_, 3
	note __, 10
	note A_, 1
	note __, 1
	note A_, 1
	note __, 3
	note A_, 1
	note __, 1
	octave 2
	note C#, 1
	note __, 1
	note C#, 1
	note __, 3
	note C#, 1
	note __, 1
	note D_, 1
	note __, 1
	note D_, 1
	note __, 3
	note D_, 1
	note __, 1
	note E_, 1
	note __, 1
	note E_, 1
	note __, 3
	note E_, 1
	note __, 1
	octave 1
	note A_, 1
	note __, 1
	note A_, 1
	note __, 3
	note A_, 1
	note __, 1
	octave 2
	note C#, 1
	note __, 1
	note C#, 1
	note __, 3
	note C#, 1
	note __, 1
	note D_, 1
	note __, 1
	note D_, 1
	note __, 3
	note D_, 1
	note __, 1
	note C#, 1
	note __, 1
	note C#, 1
	note __, 3
	note C#, 1
	note __, 5
	note F#, 1
	note F#, 2
	note __, 5
	note F_, 1
	note F_, 2
	note __, 1
	note E_, 2
	note E_, 2
	note __, 2
	note D#, 2
	note __, 8
	note D_, 2
	note D_, 2
	note __, 1
	note A_, 1
	note __, 1
	octave 3
	note D_, 1
	octave 2
	note E_, 2
	note E_, 2
	note __, 1
	note B_, 1
	note __, 1
	octave 3
	note E_, 1
	octave 2
	note F_, 2
	note F_, 2
	note __, 1
	octave 3
	note C_, 1
	note __, 1
	note F_, 1
	octave 2
	note G_, 2
	note G_, 2
	note __, 1
	octave 3
	note D_, 1
	note __, 1
	note G_, 1
	octave 2
	note A_, 1
	octave 1
	note A_, 1
	note A_, 12
	octave 2
	note A_, 2
	octave 1
	note A_, 2
	note __, 1
	note A_, 7
	octave 2
	note D_, 4
	note E_, 2
	octave 1
	note A_, 2
	note __, 1
	note A_, 5
	note __, 8
	note A_, 2
	note __, 1
	note A_, 5
	note __, 5
	octave 2
	note E_, 1
	note __, 1
	note E_, 1
	notetype $6, $11
	octave 1
	note A_, 1
	note __, 1
	note A_, 1
	note __, 13
	octave 2
	note C#, 1
	note __, 1
	note C#, 1
	note __, 13
	note D_, 1
	note __, 1
	note D_, 1
	note __, 13
	note E_, 1
	note __, 1
	note E_, 1
	note __, 15
	note A_, 1
	note __, 1
	octave 1
	note A_, 1
	note __, 1
	note A_, 1
	note __, 3
	note A_, 1
	note __, 1
	octave 2
	note C#, 1
	note __, 1
	octave 1
	note A_, 1
	note __, 3
	octave 3
	note C#, 1
	note __, 1
	octave 2
	note C#, 1
	note __, 1
	note C#, 1
	note __, 3
	note E_, 1
	note __, 1
	note G_, 1
	note __, 1
	note E_, 1
	note __, 3
	octave 3
	note D_, 1
	note __, 1
	octave 2
	note D_, 1
	note __, 1
	note D_, 1
	note __, 3
	note D_, 1
	note __, 1
	note A_, 1
	note __, 1
	note F#, 1
	note __, 3
	octave 3
	note E_, 1
	note __, 1
	octave 2
	note E_, 1
	note __, 1
	note E_, 1
	note __, 3
	note E_, 1
	note __, 1
	note B_, 1
	note __, 1
	note A_, 1
	note __, 16
	note __, 16
	note __, 13
	octave 3
	note A_, 4
	note D_, 4
	octave 2
	note B_, 4
	note A_, 4
	notetype $5, $11
	note E_, 5
	loopchannel 0, Music_Route209_Ch3_loop

Music_Route209_Ch4:
	togglenoise 3
	notetype $C
	note C#, 2
	note C#, 2
	note C#, 2
	notetype $8
	note C#, 1
	note C#, 1
	note C#, 1
	note C#, 3
	note C#, 3
	note C#, 3
	note C#, 1
	note C#, 1
	note C#, 1
Music_Route209_Ch4_loop:
	note C#, 3
	note C#, 3
	note B_, 3
	note C#, 1
	note C#, 1
	note C#, 1
	note C#, 3
	note C#, 3
	note B_, 3
	note C#, 1
	note C#, 1
	note C#, 1
	note C#, 3
	note C#, 3
	note B_, 3
	note C#, 1
	note C#, 1
	note C#, 1
	note C#, 3
	note C#, 3
	note B_, 3
	note C#, 1
	note C#, 1
	note C#, 1
	note C#, 3
	note C#, 3
	note B_, 3
	note C#, 1
	note C#, 1
	note C#, 1
	note C#, 3
	note C#, 3
	note B_, 3
	note C#, 1
	note C#, 1
	note C#, 1
	note C#, 3
	note C#, 3
	note B_, 3
	note C#, 1
	note C#, 1
	note C#, 1
	note C#, 3
	note C#, 3
	note B_, 3
	note C#, 1
	note C#, 1
	note C#, 1
	notetype $C
	note B_, 16
	note B_, 16
	note __, 16
	note __, 16
	note C#, 2
	note C#, 2
	note G#, 2
	note G_, 2
	note C#, 2
	note C#, 2
	note G#, 2
	note G_, 2
	note C#, 2
	note C#, 2
	note G#, 2
	note G_, 2
	note C#, 2
	note C#, 2
	note G#, 2
	note G_, 2
	note C#, 2
	note C#, 2
	note G#, 2
	note G_, 2
	note C#, 2
	note C#, 2
	note G#, 2
	note G_, 2
	note C#, 2
	note C#, 2
	note G#, 2
	note G_, 2
	note C#, 2
	note C#, 2
	note G#, 2
	note G_, 2
	note C#, 2
	note C#, 6
	note C#, 2
	note C#, 6
	note C#, 2
	note C#, 2
	note C#, 1
	note C#, 1
	note B_, 6
	note C#, 1
	note C#, 2
	note C#, 1
	note C#, 2
	note C#, 2
	note B_, 2
	notetype $8
	note C#, 1
	note C#, 1
	note C#, 1
	note C#, 3
	note C#, 3
	note B_, 3
	note C#, 1
	note C#, 1
	note C#, 1
	note C#, 3
	note C#, 3
	note B_, 3
	note C#, 1
	note C#, 1
	note C#, 1
	note C#, 3
	note C#, 3
	note B_, 6
	notetype $C
	note B_, 12
	note C#, 1
	note C#, 3
	note C#, 2
	note C#, 2
	note C#, 1
	note C#, 5
	note C#, 2
	note C#, 1
	note C#, 3
	note C#, 2
	note C#, 2
	note C#, 2
	note C#, 2
	note C#, 2
	note C#, 2
	note C#, 2
	note C#, 4
	note C#, 2
	note C#, 2
	note C#, 4
	note C#, 2
	note C#, 1
	note C#, 2
	note C#, 1
	note C#, 1
	note C#, 3
	note G#, 4
	note C#, 1
	note C#, 3
	note G#, 4
	note C#, 1
	note C#, 3
	note G#, 4
	note C#, 1
	note C#, 3
	note G#, 4
	note C#, 1
	note C#, 3
	note G#, 4
	note C#, 1
	note C#, 3
	note G#, 4
	note C#, 1
	note C#, 3
	note G#, 4
	note C#, 1
	note C#, 3
	note G#, 4
	note C#, 2
	note C#, 2
	note C#, 2
	notetype $8
	note C#, 1
	note C#, 1
	note C#, 1
	note C#, 3
	note C#, 3
	note C#, 3
	note C#, 1
	note C#, 1
	note C#, 1
	note C#, 3
	note C#, 3
	note C#, 3
	note C#, 1
	note C#, 1
	note C#, 1
	note C#, 3
	note C#, 3
	note C#, 3
	note C#, 1
	note C#, 1
	note C#, 1
	loopchannel 0, Music_Route209_Ch4_loop
