Music_FrontierBrain:
	dbw $80, Music_FrontierBrain_Ch1
	dbw $01, Music_FrontierBrain_Ch2
	dbw $02, Music_FrontierBrain_Ch3

Music_FrontierBrain_Ch1:
	ftempo $60
	volume $77
	notetype 12, $C2
	dutycycle 1
	vibrato $6, $34
	tone $0002
	note __, 4
	notetype 8, $C2
	octave 3
	note B_, 2
	octave 4
	note F_, 2
	note B_, 2
	octave 3
	note A#, 2
	octave 4
	note E_, 2
	note A#, 2
	octave 3
	note A_, 2
	octave 4
	note D#, 2
	note A_, 2
	octave 3
	note G#, 2
	octave 4
	note D_, 2
	note G#, 2
	octave 3
	note G_, 2
	octave 4
	note C#, 2
	note G_, 2
	octave 3
	note F#, 2
	octave 4
	note C_, 2
	note F#, 2
	octave 3
	note F_, 2
	note B_, 2
	octave 4
	note F_, 2
Music_FrontierBrain_Loop1:
	notetype 12, $C2
	note E_, 1
	note F_, 1
	note E_, 1
	note D_, 1
	note A_, 2
	octave 3
	note A_, 2
	octave 4
	note A_, 2
	octave 3
	note A_, 2
	octave 4
	note A_, 2
	octave 3
	note A_, 2
	octave 4
	note A_, 2
	octave 3
	note A_, 16
	note __, 16
	note __, 2
	notetype 8, $C1
	octave 4
	note A_, 2
	note A_, 1
	note A_, 1
	note A_, 2
	note A_, 2
	note A_, 2
	note A_, 2
	note A_, 2
	note A_, 2
	note A_, 2
	notetype 12, $C1
	note E_, 1
	note F_, 1
	note E_, 1
	note D_, 1
	intensity $C2
	note A_, 2
	octave 3
	note A_, 2
	octave 4
	note A_, 2
	octave 3
	note A_, 2
	octave 4
	note A_, 2
	octave 3
	note A_, 2
	octave 4
	note A_, 2
	octave 3
	note A_, 16
	note __, 16
	note __, 2
	notetype 8, $C1
	octave 4
	note G#, 2
	note G#, 1
	note G#, 1
	note G#, 2
	note G#, 2
	note G#, 2
	note G#, 2
	note G#, 2
	note G#, 2
	note G#, 2
	notetype 12, $C1
	note G#, 1
	note A_, 1
	note G#, 1
	note F#, 1
	intensity $C2
	note B_, 2
	octave 3
	note B_, 2
	octave 4
	note B_, 2
	octave 3
	note B_, 2
	octave 4
	note B_, 2
	octave 3
	note B_, 2
	octave 4
	note B_, 2
	octave 3
	note B_, 16
	note __, 16
	note __, 2
	notetype 8, $C2
	dutycycle 2
	note B_, 1
	octave 4
	note D#, 1
	note F#, 1
	note A_, 1
	note B_, 1
	octave 5
	note C#, 1
	note D#, 1
	note F#, 1
	note A_, 1
	note B_, 1
	octave 6
	note C#, 1
	note D#, 1
	note F#, 1
	note D#, 1
	note C#, 1
	octave 5
	note B_, 1
	note A_, 1
	note F#, 1
	note D#, 1
	note C#, 1
	octave 4
	note B_, 1
	note A_, 1
	note F#, 1
	note D#, 4
	intensity $C4
	dutycycle 1
	note E_, 9
	note E_, 9
	note E_, 6
	note E_, 9
	note E_, 6
	notetype 12, $C4
	octave 3
	note B_, 1
	octave 4
	note C#, 1
	octave 3
	note B_, 1
	note A_, 1
	octave 4
	note E_, 6
	note E_, 6
	note E_, 6
	note E_, 6
	note E_, 4
	octave 3
	note B_, 1
	octave 4
	note C#, 1
	octave 3
	note B_, 1
	note G#, 3
	octave 4
	note E_, 4
	octave 3
	note B_, 2
	octave 4
	note E_, 2
	octave 3
	note B_, 2
	note G#, 2
	octave 4
	note E_, 4
	note G#, 2
	note E_, 2
	note B_, 2
	note G#, 2
	octave 5
	note E_, 2
	octave 4
	note B_, 2
	octave 5
	note G#, 2
	intensity $C2
	dutycycle 2
	octave 4
	note E_, 1
	note G_, 1
	note B_, 1
	octave 5
	note E_, 1
	note F#, 1
	note E_, 1
	octave 4
	note B_, 1
	note G_, 1
	note B_, 1
	note G_, 1
	note B_, 1
	octave 5
	note E_, 1
	note F#, 1
	note E_, 1
	octave 4
	note B_, 1
	note G_, 1
	note B_, 1
	note G_, 1
	note B_, 1
	octave 5
	note E_, 1
	note F#, 1
	note G_, 1
	note F#, 1
	note E_, 1
	octave 4
	note B_, 1
	octave 5
	note E_, 1
	octave 4
	note B_, 1
	note G_, 1
	note E_, 1
	octave 3
	note B_, 1
	octave 4
	note E_, 1
	note G_, 1
	note E_, 1
	note G#, 1
	note B_, 1
	octave 5
	note E_, 1
	note F#, 1
	note E_, 1
	octave 4
	note B_, 1
	note G#, 1
	note E_, 1
	note G#, 1
	note B_, 1
	octave 5
	note E_, 1
	note F#, 1
	note E_, 1
	octave 4
	note B_, 1
	note G_, 1
	note E_, 1
	note G#, 1
	note B_, 1
	octave 5
	note E_, 1
	note G#, 1
	note B_, 1
	note G#, 1
	note E_, 1
	octave 4
	note B_, 1
	note G#, 1
	note E_, 1
	octave 5
	note E_, 1
	octave 4
	note B_, 1
	octave 5
	note E_, 1
	note F#, 1
	note G#, 1
	octave 6
	note C_, 1
	octave 5
	note A_, 1
	note G_, 1
	note E_, 1
	note C_, 1
	octave 4
	note A_, 1
	note G_, 1
	note E_, 1
	note C_, 1
	octave 3
	note G_, 1
	octave 4
	note C_, 1
	note E_, 1
	note G_, 1
	octave 5
	note C_, 1
	octave 4
	note G_, 1
	note E_, 1
	octave 3
	note B_, 1
	octave 4
	note D#, 1
	note F#, 1
	note A_, 1
	note B_, 1
	octave 5
	note D#, 1
	octave 4
	note B_, 1
	note F#, 1
	note D#, 1
	note F#, 1
	note B_, 1
	octave 5
	note D#, 1
	note F#, 1
	note D#, 1
	octave 4
	note B_, 1
	note F#, 1
	note C#, 1
	note E_, 1
	note G_, 1
	note G#, 1
	octave 5
	note C#, 1
	note D#, 1
	note E_, 1
	note D#, 1
	note C#, 1
	octave 4
	note G#, 1
	note F#, 1
	note E_, 1
	note C#, 1
	octave 3
	note G#, 1
	note F#, 1
	note E_, 15
	intensity $C4
	dutycycle 1
	octave 2
	note A_, 1
	octave 3
	note C_, 1
	note C#, 6
	note C#, 6
	note C#, 6
	note C#, 6
	octave 2
	note B_, 4
	octave 3
	note D_, 4
	note C#, 6
	note C#, 6
	note C#, 6
	note C#, 6
	note D_, 4
	octave 2
	note B_, 4
	octave 3
	note C#, 6
	note C#, 6
	note C#, 6
	note C#, 6
	octave 2
	note B_, 4
	octave 3
	note D_, 4
	octave 2
	note B_, 6
	note B_, 6
	note B_, 6
	note F#, 6
	note B_, 4
	octave 3
	note D#, 4
	octave 2
	note B_, 6
	note B_, 6
	note B_, 4
	note B_, 6
	note B_, 6
	octave 3
	note C_, 4
	note C#, 6
	note C#, 6
	note C#, 6
	note C#, 6
	note D_, 4
	octave 2
	note B_, 4
	dutycycle 0
	octave 4
	note G#, 2
	note G#, 4
	note G#, 4
	note G#, 4
	note G#, 4
	note G#, 4
	note G#, 2
	note A_, 4
	note G#, 4
	note G_, 2
	note C#, 2
	octave 3
	note G_, 2
	octave 4
	note D_, 2
	note C#, 2
	octave 3
	note G_, 2
	note E_, 2
	octave 4
	note G_, 2
	note F#, 2
	note C#, 2
	octave 3
	note F#, 2
	octave 4
	note C#, 2
	octave 3
	note B_, 2
	note F_, 2
	octave 2
	note B_, 2
	octave 3
	note F#, 2
	notetype 8, $C4
	octave 4
	note G_, 2
	octave 3
	note B_, 2
	note G_, 2
	octave 4
	note F#, 2
	octave 3
	note A#, 2
	note F#, 2
	octave 4
	note F_, 2
	octave 3
	note A_, 2
	note F_, 2
	octave 4
	note E_, 2
	octave 3
	note G#, 2
	note E_, 2
	notetype 12, $C4
	octave 4
	note G_, 1
	note F#, 1
	note F_, 1
	note E_, 1
	note D#, 1
	note D_, 1
	note C#, 1
	note C_, 1
	octave 3
	note B_, 1
	note A#, 1
	note A_, 1
	note G#, 1
	note G_, 1
	note F#, 1
	note E_, 1
	note D_, 3
	dutycycle 1
	octave 4
	note C_, 6
	note C_, 6
	note C_, 4
	note C_, 6
	note C_, 4
	octave 3
	note G_, 1
	note A_, 1
	note G_, 1
	note F_, 1
	octave 4
	note C_, 6
	note C_, 6
	note C_, 6
	note C_, 6
	note C_, 4
	octave 3
	note G_, 1
	note A_, 1
	note G_, 1
	note E_, 3
	octave 4
	note C_, 4
	octave 3
	note G_, 2
	octave 4
	note C_, 2
	octave 3
	note G_, 2
	note E_, 2
	octave 4
	note C_, 4
	note E_, 2
	note C_, 2
	note G_, 2
	note E_, 2
	octave 5
	note C_, 2
	octave 4
	note G_, 2
	octave 5
	note E_, 2
	intensity $C2
	dutycycle 2
	octave 4
	note C_, 1
	note D#, 1
	note G_, 1
	octave 5
	note C_, 1
	note D_, 1
	note C_, 1
	octave 4
	note G_, 1
	note D#, 1
	note G_, 1
	note D#, 1
	note G_, 1
	octave 5
	note C_, 1
	note D_, 1
	note C_, 1
	octave 4
	note G_, 1
	note D#, 1
	note G_, 1
	note D#, 1
	note G_, 1
	octave 5
	note C_, 1
	note D_, 1
	note D#, 1
	note D_, 1
	note C_, 1
	octave 4
	note G_, 1
	octave 5
	note C_, 1
	octave 4
	note G_, 1
	note D#, 1
	note C_, 1
	octave 3
	note G_, 1
	octave 4
	note C_, 1
	note D#, 1
	note C_, 1
	note E_, 1
	note G_, 1
	octave 5
	note C_, 1
	note D_, 1
	note C_, 1
	octave 4
	note G_, 1
	note E_, 1
	note C_, 1
	note E_, 1
	note G_, 1
	octave 5
	note C_, 1
	note D_, 1
	note C_, 1
	octave 4
	note G_, 1
	note D#, 1
	note C_, 1
	note E_, 1
	note G_, 1
	octave 5
	note C_, 1
	note E_, 1
	note G_, 1
	note E_, 1
	note C_, 1
	octave 4
	note G_, 1
	note E_, 1
	note C_, 1
	octave 5
	note C_, 1
	octave 4
	note G_, 1
	octave 5
	note C_, 1
	note D_, 1
	note E_, 1
	note G#, 1
	note F_, 1
	note D#, 1
	note C_, 1
	octave 4
	note G#, 1
	note F_, 1
	note D#, 1
	note C_, 1
	octave 3
	note G#, 1
	note D#, 1
	note G#, 1
	octave 4
	note C_, 1
	note D#, 1
	note G#, 1
	note D#, 1
	note C_, 1
	octave 3
	note G_, 1
	note B_, 1
	octave 4
	note D_, 1
	note F_, 1
	note G_, 1
	note B_, 1
	note G_, 1
	note D_, 1
	octave 3
	note B_, 1
	octave 4
	note D_, 1
	note G_, 1
	note B_, 1
	octave 5
	note D_, 1
	octave 4
	note B_, 1
	note G_, 1
	note D_, 16
	note __, 9
	notetype 8, $C7
	dutycycle 1
	octave 3
	note A_, 2
	notetype 10, $00
	note __, 2
	notetype 8, $C7
	note F_, 1
	notetype 4, $00
	note __, 1
	notetype 12, $C7
	octave 4
	note C_, 12
	note D_, 4
	note F_, 1
	note G_, 1
	note F_, 1
	note D_, 1
	octave 3
	note B_, 8
	note G_, 1
	note A_, 1
	note G_, 1
	note F#, 1
	note G_, 10
	notetype 8, $C7
	note G_, 1
	notetype 4, $00
	note __, 1
	intensity $C7
	note G_, 2
	note __, 1
	notetype 12, $C7
	note G_, 16
	notetype 8, $C7
	note B_, 2
	notetype 10, $00
	note __, 2
	notetype 8, $C7
	note G_, 1
	notetype 4, $00
	note __, 1
	notetype 12, $C7
	octave 4
	note D_, 12
	note D#, 8
	note E_, 12
	dutycycle 0
	note C#, 1
	notetype 4, $00
	note __, 1
	intensity $C7
	note C#, 3
	note __, 1
	note C#, 3
	note __, 1
	note C#, 16
	octave 3
	note B_, 3
	note __, 1
	note B_, 3
	note __, 1
	notetype 12, $C7
	note B_, 8
	notetype 8, $C7
	dutycycle 1
	note F_, 2
	notetype 10, $00
	note __, 2
	notetype 8, $C7
	note C_, 1
	notetype 4, $00
	note __, 1
	intensity $C7
	note A_, 12
	octave 4
	note C_, 4
	note __, 5
	octave 3
	note A_, 2
	note __, 1
	octave 4
	note F_, 16
	note __, 16
	note __, 16
	note __, 6
	note C_, 6
	octave 3
	note F#, 4
	note __, 5
	note C_, 2
	note __, 1
	note A_, 12
	octave 4
	note C_, 4
	note __, 5
	octave 3
	note A_, 2
	note __, 1
	notetype 12, $C7
	octave 4
	note F#, 12
	octave 5
	note C_, 8
	notetype 8, $C2
	octave 3
	note B_, 2
	octave 4
	note F_, 2
	note B_, 2
	octave 3
	note A#, 2
	octave 4
	note E_, 2
	note A#, 2
	octave 3
	note A_, 2
	octave 4
	note D#, 2
	note A_, 2
	octave 3
	note G#, 2
	octave 4
	note D_, 2
	note G#, 2
	octave 3
	note G_, 2
	octave 4
	note C#, 2
	note G_, 2
	octave 3
	note F#, 2
	octave 4
	note C_, 2
	note F#, 2
	octave 3
	note F_, 2
	note B_, 2
	octave 4
	note F_, 2
	loopchannel 0, Music_FrontierBrain_Loop1
Music_FrontierBrain_Ch2:
	notetype 8, $D4
	dutycycle 3
	vibrato $a, $25
	tone $0001
	octave 3
	note B_, 2
	octave 4
	note F_, 2
	note B_, 2
	octave 5
	note D_, 6
	note C#, 6
	note C_, 6
	octave 4
	note B_, 6
	note A#, 6
	note A_, 6
	note G#, 6
Music_FrontierBrain_Loop2:
	notetype 12, $D4
	octave 2
	note __, 8
	note A_, 2
	note G#, 4
	note B_, 2
	octave 3
	note C_, 6
	note D_, 2
	note D#, 4
	octave 2
	note B_, 2
	octave 3
	note C_, 2
	octave 2
	note A_, 1
	octave 3
	note C_, 1
	octave 2
	note A#, 2
	octave 3
	note D#, 6
	note D_, 4
	note C_, 4
	octave 2
	note B_, 2
	note A_, 2
	note G#, 2
	note B_, 2
	note E_, 2
	note F_, 2
	note E_, 2
	note D#, 1
	note F_, 1
	note E_, 2
	note E_, 2
	note F_, 2
	note A_, 2
	note G#, 4
	note B_, 2
	octave 3
	note C_, 6
	note D#, 2
	note F_, 4
	note D_, 2
	note D#, 2
	note C_, 1
	note D_, 1
	note C#, 2
	note G_, 6
	note F_, 4
	note D#, 4
	octave 2
	note B_, 2
	note A_, 2
	note G#, 2
	note B_, 2
	note E_, 2
	note F_, 2
	note E_, 2
	note D#, 2
	note E_, 6
	intensity $D7
	octave 3
	note E_, 4
	note __, 4
	note F_, 4
	note __, 4
	note F#, 4
	note __, 4
	note G_, 4
	note __, 2
	note E_, 2
	note __, 2
	note F_, 2
	note __, 2
	note F#, 2
	note __, 2
	note G_, 2
	note __, 2
	note G#, 2
	note __, 2
	note A_, 2
	note __, 2
	note A#, 2
	note __, 2
	note B_, 2
	note __, 2
	octave 4
	note E_, 6
	note F#, 2
	note __, 2
	note G#, 2
	note __, 2
	note A_, 2
	note G#, 6
	note A_, 2
	note __, 2
	note B_, 4
	note G#, 16
	note E_, 16
	note __, 2
	note E_, 6
	note F#, 2
	note __, 2
	note G#, 4
	note A_, 2
	note G#, 4
	note A_, 2
	note __, 2
	note B_, 6
	intensity $D2
	note E_, 6
	note E_, 6
	note E_, 6
	intensity $D5
	octave 3
	note B_, 6
	intensity $D2
	octave 4
	note E_, 4
	octave 3
	note B_, 4
	octave 4
	note E_, 6
	note E_, 6
	note E_, 6
	intensity $D5
	octave 3
	note B_, 6
	intensity $D2
	octave 4
	note E_, 4
	note F#, 4
	note E_, 6
	note E_, 6
	note D#, 2
	note C#, 4
	intensity $D5
	note D#, 6
	note E_, 2
	note __, 2
	note F#, 4
	note G#, 16
	note __, 14
	intensity $D2
	octave 3
	note C#, 1
	note G_, 1
	note G#, 6
	note G#, 6
	note G#, 6
	note G#, 6
	note F#, 4
	note A_, 4
	note G#, 6
	note G#, 6
	note G#, 6
	note G#, 6
	note A_, 4
	note F#, 2
	intensity $D7
	octave 4
	note E_, 1
	note F#, 1
	note G#, 2
	note C#, 4
	octave 5
	note C#, 6
	note E_, 6
	octave 4
	note E_, 1
	note F#, 1
	note G#, 4
	note F#, 4
	note E_, 4
	note D#, 2
	note E_, 2
	note D#, 2
	note C#, 2
	note D#, 16
	note __, 6
	note D#, 1
	note E_, 1
	note F#, 2
	octave 3
	note B_, 4
	octave 4
	note B_, 6
	octave 5
	note D#, 6
	octave 4
	note D#, 1
	note E_, 1
	note F#, 4
	note B_, 4
	note A_, 4
	note G#, 2
	note A_, 2
	note G#, 2
	note F#, 2
	note G#, 16
	note __, 6
	intensity $D5
	dutycycle 0
	note G#, 1
	note B_, 1
	octave 5
	note C#, 2
	note C#, 4
	note C#, 4
	note C#, 4
	note C#, 4
	note C#, 4
	note C#, 2
	note E_, 4
	note D#, 4
	note D_, 8
	note C#, 8
	note C_, 8
	octave 4
	note B_, 8
	octave 5
	note D_, 4
	note C#, 4
	note C_, 4
	octave 4
	note B_, 4
	octave 5
	note D_, 1
	note C#, 1
	note C_, 1
	octave 4
	note B_, 1
	note A#, 1
	note A_, 1
	note G#, 1
	note G_, 1
	note F#, 1
	note F_, 1
	note E_, 1
	note D#, 1
	note D_, 1
	note C#, 1
	octave 3
	note B_, 1
	note G_, 1
	note __, 2
	intensity $D7
	dutycycle 3
	octave 4
	note C_, 6
	note D_, 2
	note __, 2
	note E_, 2
	note __, 2
	note F_, 2
	note E_, 6
	note F_, 2
	note __, 2
	note G_, 4
	note E_, 16
	note C_, 16
	note __, 2
	note C_, 6
	note D_, 2
	note __, 2
	note E_, 4
	note F_, 2
	note E_, 4
	note F_, 2
	note __, 2
	note G_, 6
	intensity $D2
	octave 5
	note C_, 6
	note C_, 6
	note C_, 6
	intensity $D5
	octave 4
	note G_, 6
	intensity $D2
	octave 5
	note C_, 4
	octave 4
	note G_, 4
	octave 5
	note C_, 6
	note C_, 6
	note C_, 6
	intensity $D5
	octave 4
	note G_, 6
	intensity $D2
	octave 5
	note C_, 4
	note D_, 4
	note C_, 6
	note C_, 6
	octave 4
	note B_, 2
	note A_, 4
	intensity $D5
	note B_, 6
	octave 5
	note C_, 4
	note D_, 16
	note __, 1
	intensity $D1
	octave 4
	note A_, 1
	note B_, 1
	octave 5
	note C_, 1
	note E_, 3
	octave 4
	note A_, 1
	intensity $D7
	note A_, 12
	octave 5
	note E_, 4
	note D_, 4
	note C_, 4
	note D_, 4
	octave 4
	note B_, 1
	octave 5
	note C_, 1
	octave 4
	note B_, 1
	note A_, 1
	note B_, 16
	note __, 9
	intensity $D1
	note G_, 1
	note A_, 1
	note B_, 1
	octave 5
	note D_, 3
	octave 4
	note G_, 1
	intensity $D7
	note G_, 12
	note B_, 4
	note G_, 4
	octave 5
	note G_, 4
	note F_, 4
	note E_, 1
	note F_, 1
	note E_, 1
	note D_, 1
	note E_, 8
	notetype 8, $D7
	dutycycle 2
	octave 4
	note A_, 1
	note __, 1
	note A_, 1
	note __, 1
	note A_, 1
	note __, 1
	note A_, 8
	note G_, 1
	note __, 1
	note G_, 1
	note __, 1
	note G_, 6
	intensity $D1
	dutycycle 3
	note A_, 2
	note B_, 2
	octave 5
	note C_, 2
	notetype 12, $D1
	note E_, 3
	octave 4
	note A_, 1
	intensity $D7
	note A_, 12
	octave 3
	note F_, 2
	note C_, 4
	note F_, 4
	note A_, 2
	notetype 8, $D1
	octave 4
	note A_, 2
	note B_, 2
	octave 5
	note C_, 2
	notetype 12, $D1
	note E_, 3
	octave 4
	note A_, 1
	intensity $D7
	note A_, 12
	octave 3
	note F#, 2
	note C_, 4
	note F#, 4
	note A_, 4
	octave 4
	note C_, 2
	octave 5
	note D_, 16
	note __, 12
	loopchannel 0, Music_FrontierBrain_Loop2
Music_FrontierBrain_Ch3:
	notetype 12, $14
	vibrato $0, $20
	note __, 4
	notetype 8, $14
	octave 2
	note F#, 2
	octave 3
	note C_, 2
	note F#, 2
	octave 2
	note F_, 2
	note B_, 2
	octave 3
	note F_, 2
	octave 2
	note E_, 2
	note A#, 2
	octave 3
	note E_, 2
	octave 2
	note D#, 2
	note A_, 2
	octave 3
	note D#, 2
	octave 2
	note D_, 2
	note G#, 2
	octave 3
	note D_, 2
	octave 2
	note C#, 2
	note G_, 2
	octave 3
	note C#, 2
	octave 2
	note C_, 2
	note F#, 2
	octave 3
	note C_, 2
Music_FrontierBrain_Loop3:
	notetype 12, $14
	octave 2
	note B_, 1
	octave 3
	note C_, 1
	octave 2
	note B_, 1
	note A#, 1
	note A_, 1
	note __, 1
	note A_, 1
	note __, 1
	note A_, 1
	note __, 1
	note A_, 1
	note __, 1
	note A_, 1
	note __, 1
	note A_, 1
	note __, 1
	note A_, 1
	note __, 1
	note A_, 1
	note __, 1
	note A_, 1
	note __, 1
	note A_, 1
	note __, 1
	note A_, 1
	note __, 1
	note A_, 1
	note __, 1
	note A_, 1
	note __, 1
	note B_, 2
	octave 3
	note D#, 1
	note D_, 1
	note C_, 2
	octave 2
	note A_, 1
	note __, 1
	note A_, 1
	note __, 1
	note A_, 1
	note __, 1
	note A_, 1
	note __, 1
	note A_, 1
	note __, 1
	note A_, 1
	note __, 1
	note A_, 1
	note __, 1
	note A_, 1
	note __, 3
	note A_, 1
	note __, 1
	note A_, 1
	note __, 1
	note A_, 1
	note __, 1
	octave 3
	note C_, 1
	note __, 1
	note D_, 2
	note D#, 1
	note D_, 1
	octave 2
	note A#, 3
	note __, 1
	note A_, 1
	note __, 1
	note A_, 1
	note __, 1
	note A_, 1
	note __, 1
	note A_, 1
	note __, 1
	note A_, 1
	note __, 1
	note A_, 1
	note __, 1
	note A_, 1
	note __, 1
	note A_, 1
	note __, 1
	note A_, 1
	note __, 1
	note A_, 1
	note __, 1
	note A_, 1
	note __, 1
	note A_, 1
	note __, 1
	note B_, 2
	octave 3
	note D#, 1
	note D_, 1
	note C_, 2
	octave 2
	note A_, 1
	note __, 1
	note A_, 1
	note __, 1
	note A_, 1
	note __, 1
	note A_, 1
	note __, 1
	note A_, 1
	note __, 1
	note A_, 1
	note __, 1
	note A_, 1
	note __, 1
	note A_, 1
	note __, 3
	note A_, 1
	note __, 1
	note A_, 1
	note __, 1
	note A_, 1
	note __, 1
	octave 3
	note C_, 1
	note __, 1
	note D_, 2
	note D#, 1
	note D_, 1
	octave 2
	note A#, 2
	notetype 8, $14
	note E_, 2
	note __, 1
	note E_, 2
	note __, 1
	octave 3
	note E_, 6
	octave 2
	note E_, 2
	note __, 1
	note E_, 2
	note __, 1
	octave 3
	note F_, 6
	octave 2
	note E_, 2
	note __, 1
	note E_, 2
	note __, 1
	octave 3
	note F#, 6
	octave 2
	note E_, 2
	note __, 1
	note E_, 2
	note __, 1
	octave 3
	note G_, 6
	octave 2
	note E_, 3
	octave 3
	note E_, 3
	octave 2
	note E_, 3
	octave 3
	note F_, 3
	octave 2
	note E_, 3
	octave 3
	note F#, 3
	octave 2
	note E_, 3
	octave 3
	note G_, 3
	octave 2
	note E_, 3
	octave 3
	note G#, 3
	octave 2
	note E_, 3
	octave 3
	note A_, 3
	octave 2
	note E_, 3
	octave 3
	note A#, 3
	octave 2
	note E_, 3
	octave 3
	note B_, 3
	octave 2
	note E_, 3
	octave 3
	note E_, 3
	octave 2
	note E_, 3
	octave 3
	note E_, 3
	octave 2
	note E_, 3
	octave 3
	note E_, 3
	octave 2
	note E_, 3
	notetype 12, $14
	octave 3
	note E_, 1
	note D#, 1
	note E_, 2
	octave 2
	note E_, 1
	note __, 1
	note E_, 2
	octave 3
	note E_, 2
	octave 2
	note B_, 2
	note E_, 2
	octave 3
	note E_, 1
	octave 2
	note B_, 1
	note G#, 1
	note F#, 1
	note E_, 2
	octave 3
	note E_, 2
	octave 2
	note E_, 2
	octave 3
	note E_, 2
	octave 2
	note E_, 2
	octave 3
	note E_, 2
	octave 2
	note E_, 2
	octave 3
	note E_, 1
	note D#, 1
	note E_, 2
	octave 2
	note E_, 1
	note __, 1
	note E_, 2
	octave 3
	note E_, 2
	octave 2
	note B_, 2
	note E_, 2
	octave 3
	note E_, 1
	octave 2
	note B_, 1
	note G#, 1
	note F#, 1
	note E_, 2
	octave 3
	note E_, 2
	octave 2
	note E_, 2
	octave 3
	note E_, 2
	octave 2
	note E_, 2
	octave 3
	note E_, 2
	octave 2
	note E_, 2
	octave 3
	note E_, 1
	note D#, 1
	note E_, 2
	octave 2
	note E_, 1
	note __, 1
	note E_, 2
	octave 3
	note E_, 2
	octave 2
	note B_, 2
	note E_, 2
	octave 3
	note E_, 1
	octave 2
	note B_, 1
	note G#, 1
	note F#, 1
	note D_, 2
	octave 3
	note D_, 2
	octave 2
	note D_, 2
	octave 3
	note D_, 2
	octave 2
	note D_, 2
	octave 3
	note D_, 2
	octave 2
	note D_, 2
	octave 3
	note D_, 1
	note C#, 1
	note D_, 2
	octave 2
	note D_, 2
	note D_, 2
	octave 3
	note D_, 2
	octave 2
	note A_, 2
	note D_, 2
	octave 3
	note D_, 1
	octave 2
	note A_, 1
	note F#, 1
	note E_, 1
	note C#, 2
	octave 3
	note C#, 2
	octave 2
	note C#, 2
	octave 3
	note C#, 2
	octave 2
	note C#, 2
	octave 3
	note C#, 2
	octave 2
	note C#, 2
	octave 3
	note C#, 1
	note C_, 1
	note C#, 2
	octave 2
	note C#, 2
	note C#, 2
	octave 3
	note C#, 2
	octave 2
	note G#, 2
	note C#, 2
	octave 3
	note C#, 1
	octave 2
	note G#, 1
	note F_, 1
	note D#, 1
	note C_, 2
	octave 3
	note C_, 2
	octave 2
	note C_, 2
	octave 3
	note C_, 2
	octave 2
	note C_, 2
	octave 3
	note C_, 2
	octave 2
	note C_, 2
	octave 3
	note C_, 1
	octave 2
	note B_, 1
	note B_, 2
	octave 1
	note B_, 2
	note B_, 2
	octave 2
	note B_, 2
	note F#, 2
	octave 1
	note B_, 2
	octave 2
	note B_, 1
	note F#, 1
	note D#, 1
	note C#, 1
	note C#, 2
	note G#, 2
	note C#, 2
	note G#, 2
	note C#, 2
	note G_, 2
	octave 3
	note C#, 2
	octave 2
	note G_, 2
	note C#, 2
	note G_, 2
	octave 3
	note C#, 2
	octave 2
	note G_, 2
	note E_, 2
	note F#, 2
	note E_, 1
	note D_, 1
	octave 1
	note B_, 2
	octave 2
	note C#, 2
	note G#, 2
	note C#, 2
	note G#, 2
	note C#, 2
	note G_, 2
	octave 3
	note C#, 2
	octave 2
	note G_, 2
	note C#, 2
	note G_, 2
	octave 3
	note C#, 2
	octave 2
	note G_, 2
	note E_, 2
	note F#, 2
	note E_, 1
	note D_, 1
	octave 1
	note B_, 2
	octave 2
	note C#, 2
	note G#, 2
	note C#, 2
	note G#, 2
	note C#, 2
	note G_, 2
	octave 3
	note C#, 2
	octave 2
	note G_, 2
	note C#, 2
	note G_, 2
	octave 3
	note C#, 2
	octave 2
	note G_, 2
	note E_, 2
	note F#, 2
	note E_, 1
	note D_, 1
	octave 1
	note B_, 2
	octave 2
	note C#, 2
	note G_, 2
	octave 3
	note C#, 2
	octave 2
	note G_, 2
	note E_, 2
	note F#, 2
	note D_, 2
	octave 1
	note B_, 2
	octave 2
	note C#, 2
	note G#, 2
	note C#, 2
	note G#, 2
	note C#, 2
	note G_, 2
	octave 3
	note D_, 2
	octave 2
	note G_, 2
	octave 1
	note B_, 2
	octave 2
	note F#, 2
	note B_, 2
	note F_, 2
	note D#, 2
	note E_, 2
	note D#, 1
	note C#, 1
	octave 1
	note A#, 2
	note B_, 2
	octave 2
	note F#, 2
	octave 1
	note B_, 2
	octave 2
	note F#, 2
	octave 1
	note B_, 2
	octave 2
	note F_, 2
	note B_, 2
	note F_, 2
	octave 1
	note B_, 2
	octave 2
	note F#, 2
	note B_, 2
	note F#, 2
	note D_, 2
	note E_, 2
	note D#, 1
	note C#, 1
	octave 1
	note A#, 2
	note B_, 2
	octave 2
	note F#, 2
	octave 1
	note B_, 2
	octave 2
	note F#, 2
	octave 1
	note B_, 2
	octave 2
	note F_, 2
	note B_, 2
	note F_, 2
	note C#, 2
	note G#, 2
	octave 3
	note C#, 2
	octave 2
	note G#, 2
	note C#, 2
	note D_, 2
	octave 1
	note B_, 2
	octave 2
	note D_, 2
	note C#, 2
	note G#, 2
	note C#, 2
	note G#, 2
	note C#, 2
	note D_, 2
	octave 1
	note B_, 2
	octave 2
	note D_, 2
	note C#, 2
	note C#, 2
	note __, 2
	note C#, 2
	note __, 2
	note C#, 2
	note __, 2
	note C#, 2
	note __, 2
	note C#, 2
	note __, 2
	note C#, 2
	note C#, 2
	note __, 2
	note C#, 2
	note __, 2
	note G#, 2
	octave 3
	note C#, 2
	octave 2
	note G_, 2
	octave 3
	note C_, 2
	octave 2
	note F#, 2
	note B_, 2
	note F_, 2
	note A#, 2
	note E_, 2
	note A_, 2
	note D#, 2
	note G#, 2
	note D_, 2
	note G_, 2
	note C#, 2
	note F#, 2
	note G#, 2
	octave 3
	note C#, 2
	octave 2
	note G_, 2
	octave 3
	note C_, 2
	octave 2
	note F#, 2
	note B_, 2
	note F_, 2
	note A#, 2
	note E_, 2
	note A_, 2
	note D#, 2
	note G#, 2
	note D_, 2
	note G_, 2
	note C#, 2
	note F#, 2
	note C_, 2
	octave 3
	note C_, 2
	octave 2
	note C_, 2
	octave 3
	note C_, 2
	octave 2
	note C_, 2
	octave 3
	note C_, 2
	octave 2
	note C_, 2
	octave 3
	note C_, 1
	octave 2
	note B_, 1
	octave 3
	note C_, 2
	octave 2
	note C_, 1
	note __, 1
	note C_, 2
	octave 3
	note C_, 2
	octave 2
	note G_, 2
	note C_, 2
	octave 3
	note C_, 1
	octave 2
	note G_, 1
	note E_, 1
	note D_, 1
	note C_, 2
	octave 3
	note C_, 2
	octave 2
	note C_, 2
	octave 3
	note C_, 2
	octave 2
	note C_, 2
	octave 3
	note C_, 2
	octave 2
	note C_, 2
	octave 3
	note C_, 1
	octave 2
	note B_, 1
	octave 3
	note C_, 2
	octave 2
	note C_, 1
	note __, 1
	note C_, 2
	octave 3
	note C_, 2
	octave 2
	note G_, 2
	note C_, 2
	octave 3
	note C_, 1
	octave 2
	note G_, 1
	note E_, 1
	note D_, 1
	note C_, 2
	octave 3
	note C_, 2
	octave 2
	note C_, 2
	octave 3
	note C_, 2
	octave 2
	note C_, 2
	octave 3
	note C_, 2
	octave 2
	note C_, 2
	octave 3
	note C_, 1
	octave 2
	note B_, 1
	octave 3
	note C_, 2
	octave 2
	note C_, 1
	note __, 1
	note C_, 2
	octave 3
	note C_, 2
	octave 2
	note G_, 2
	note C_, 2
	octave 3
	note C_, 1
	octave 2
	note G_, 1
	note E_, 1
	note D_, 1
	octave 1
	note A#, 2
	octave 2
	note A#, 2
	octave 1
	note A#, 2
	octave 2
	note A#, 2
	octave 1
	note A#, 2
	octave 2
	note A#, 2
	octave 1
	note A#, 2
	octave 2
	note A#, 1
	note A_, 1
	note A#, 2
	octave 1
	note A#, 2
	note A#, 2
	octave 2
	note A#, 2
	note F_, 2
	octave 1
	note A#, 2
	octave 2
	note A#, 1
	note F_, 1
	note D_, 1
	note C_, 1
	octave 1
	note A_, 2
	octave 2
	note A_, 2
	octave 1
	note A_, 2
	octave 2
	note A_, 2
	octave 1
	note A_, 2
	octave 2
	note A_, 2
	octave 1
	note A_, 2
	octave 2
	note A_, 1
	note G#, 1
	note A_, 2
	octave 1
	note A_, 2
	note A_, 2
	octave 2
	note A_, 2
	note E_, 2
	octave 1
	note A_, 2
	octave 2
	note A_, 1
	note E_, 1
	note C#, 1
	octave 1
	note B_, 1
	note G#, 2
	octave 2
	note G#, 2
	octave 1
	note G#, 2
	octave 2
	note G#, 2
	octave 1
	note G#, 2
	octave 2
	note G#, 2
	octave 1
	note G#, 2
	octave 2
	note G#, 1
	note G_, 1
	note G_, 2
	octave 1
	note G_, 2
	note G_, 2
	octave 2
	note G_, 2
	note D_, 2
	octave 1
	note G_, 2
	octave 2
	note G_, 1
	note D_, 1
	octave 1
	note B_, 1
	note A_, 1
	octave 2
	note G_, 2
	note __, 2
	note D_, 2
	note __, 2
	octave 1
	note B_, 2
	note __, 2
	octave 2
	note D_, 2
	note __, 2
	note F_, 2
	octave 3
	note C_, 2
	note F_, 2
	note C_, 2
	octave 2
	note F_, 2
	octave 3
	note C_, 2
	note F_, 1
	note G_, 1
	note F_, 1
	note C_, 1
	note F_, 2
	octave 2
	note F_, 2
	note __, 2
	octave 3
	note C_, 2
	note __, 2
	note F_, 2
	note __, 2
	note A_, 2
	octave 2
	note F_, 2
	note B_, 2
	octave 3
	note G_, 2
	note D_, 2
	octave 2
	note B_, 2
	note A_, 2
	note B_, 1
	octave 3
	note D_, 1
	octave 2
	note B_, 1
	note A_, 1
	note G_, 2
	note D_, 2
	note __, 2
	note G_, 2
	note __, 2
	note B_, 2
	note __, 2
	octave 3
	note D_, 2
	octave 2
	note E_, 2
	note B_, 2
	octave 3
	note E_, 2
	octave 2
	note B_, 2
	note E_, 2
	note B_, 2
	octave 3
	note E_, 1
	note F_, 1
	note E_, 1
	octave 2
	note B_, 1
	note E_, 2
	octave 1
	note B_, 2
	note __, 2
	octave 2
	note E_, 2
	note __, 2
	note G#, 2
	note __, 2
	note B_, 2
	note A_, 2
	octave 3
	note C#, 2
	note A_, 2
	note E_, 2
	octave 2
	note A_, 2
	octave 3
	note E_, 2
	octave 4
	note C#, 1
	note D_, 1
	note C#, 1
	octave 3
	note A_, 1
	octave 2
	note A_, 2
	note E_, 2
	note __, 2
	note A_, 2
	note __, 2
	octave 3
	note C#, 2
	note __, 2
	note E_, 2
	octave 2
	note F_, 2
	octave 3
	note C_, 2
	note F_, 2
	note C_, 2
	octave 2
	note F_, 2
	octave 3
	note C_, 2
	note F_, 1
	note G_, 1
	note F_, 1
	note C_, 1
	note F_, 2
	octave 2
	note F_, 2
	note __, 2
	octave 3
	note C_, 2
	note __, 2
	note F_, 2
	note __, 2
	note A_, 2
	octave 2
	note F#, 2
	octave 3
	note E_, 2
	note F#, 2
	note C_, 2
	octave 2
	note F#, 2
	octave 3
	note C_, 2
	note F#, 1
	note G_, 1
	note F#, 1
	note C_, 1
	note F#, 2
	octave 2
	note A_, 2
	note __, 2
	octave 3
	note C_, 2
	note __, 2
	note E_, 2
	note __, 2
	note A_, 2
	notetype 8, $14
	octave 2
	note F#, 2
	octave 3
	note C_, 2
	note F#, 2
	octave 2
	note F_, 2
	note B_, 2
	octave 3
	note F_, 2
	octave 2
	note E_, 2
	note A#, 2
	octave 3
	note E_, 2
	octave 2
	note D#, 2
	note A_, 2
	octave 3
	note D#, 2
	octave 2
	note D_, 2
	note G#, 2
	octave 3
	note D_, 2
	octave 2
	note C#, 2
	note G_, 2
	octave 3
	note C#, 2
	octave 2
	note C_, 2
	note F#, 2
	octave 3
	note C_, 2
	loopchannel 0, Music_FrontierBrain_Loop3
